<svg baseProfile="tiny" xmlns="http://www.w3.org/2000/svg" width="590" height="170" preserveAspectRatio="xMaxYMax meet" viewBox="0 0 590 170" ><g fill="#fff"><path d="M75.934 144.744l-2.234 1.324c-.417-.725-.815-1.197-1.193-1.418-.394-.252-.902-.379-1.525-.379-.764 0-1.398.217-1.903.65-.504.426-.756.963-.756 1.609 0 .891.662 1.609 1.986 2.152l1.82.746c1.481.598 2.565 1.33 3.25 2.193s1.028 1.922 1.028 3.176c0 1.68-.56 3.066-1.679 4.164-1.126 1.104-2.525 1.654-4.196 1.654-1.583 0-2.892-.471-3.924-1.412-1.016-.941-1.651-2.264-1.903-3.965l2.79-.615c.126 1.072.347 1.812.662 2.223.567.787 1.395 1.182 2.482 1.182.859 0 1.572-.287 2.139-.861.567-.576.851-1.303.851-2.186 0-.354-.049-.68-.147-.975-.099-.295-.252-.566-.461-.814-.209-.248-.479-.48-.81-.697-.331-.217-.725-.424-1.182-.619l-1.761-.732c-2.498-1.055-3.747-2.6-3.747-4.631 0-1.369.524-2.516 1.572-3.436 1.048-.93 2.352-1.395 3.912-1.395 2.104.002 3.747 1.023 4.929 3.062zM81.865 151.258v9.029h-2.659v-9.029h-1.135v-2.482h1.135v-4.219h2.659v4.219h2.068v2.482h-2.068zM85.125 154.449c0-1.664.595-3.078 1.785-4.244 1.189-1.166 2.639-1.75 4.349-1.75 1.718 0 3.175.588 4.373 1.762 1.182 1.174 1.773 2.617 1.773 4.326 0 1.725-.595 3.172-1.785 4.338-1.198 1.158-2.667 1.736-4.408 1.736-1.726 0-3.172-.59-4.338-1.771-1.166-1.166-1.749-2.633-1.749-4.397zm2.718.047c0 1.15.307 2.061.922 2.73.63.678 1.461 1.016 2.494 1.016 1.04 0 1.872-.334 2.494-1.004.622-.67.934-1.564.934-2.684s-.312-2.014-.934-2.684c-.631-.678-1.462-1.016-2.494-1.016-1.016 0-1.84.338-2.47 1.016s-.946 1.554-.946 2.626zM109.08 149.271v3.533c-.607-.74-1.15-1.248-1.631-1.523-.473-.283-1.028-.426-1.667-.426-1.001 0-1.832.35-2.494 1.051-.662.703-.993 1.58-.993 2.637 0 1.08.319 1.967.958 2.658.646.695 1.469 1.041 2.47 1.041.638 0 1.201-.139 1.69-.414.473-.268 1.028-.787 1.667-1.561v3.512c-1.08.559-2.159.838-3.238.838-1.781 0-3.27-.574-4.468-1.725-1.198-1.158-1.796-2.596-1.796-4.314 0-1.717.606-3.168 1.82-4.35s2.703-1.773 4.468-1.773c1.134 0 2.205.274 3.214.816z"/></g><g fill="#fff"><path d="M114.58 140.324v12.174l3.747-3.723h3.57l-5 4.834 5.366 6.678h-3.451l-3.806-4.857-.426.426v4.432h-2.659v-19.963h2.659zM123.952 140.324h2.659v9.408c.946-.852 1.99-1.277 3.132-1.277 1.3 0 2.34.422 3.12 1.266.662.732.993 1.902.993 3.51v7.057h-2.659v-6.809c0-.922-.164-1.59-.49-2.002-.327-.414-.853-.621-1.578-.621-.93 0-1.583.287-1.962.863-.371.582-.556 1.584-.556 3.002v5.566h-2.659v-19.963zM136.657 154.449c0-1.664.595-3.078 1.785-4.244 1.189-1.166 2.639-1.75 4.349-1.75 1.718 0 3.175.588 4.373 1.762 1.182 1.174 1.773 2.617 1.773 4.326 0 1.725-.595 3.172-1.785 4.338-1.198 1.158-2.667 1.736-4.408 1.736-1.726 0-3.172-.59-4.338-1.771-1.166-1.166-1.749-2.633-1.749-4.397zm2.718.047c0 1.15.307 2.061.922 2.73.63.678 1.461 1.016 2.494 1.016 1.04 0 1.872-.334 2.494-1.004.622-.67.934-1.564.934-2.684s-.312-2.014-.934-2.684c-.631-.678-1.462-1.016-2.494-1.016-1.016 0-1.84.338-2.47 1.016s-.946 1.554-.946 2.626zM154.385 140.324v19.963h-2.659v-19.963h2.659z"/></g><g fill="#fff"><path d="M157.451 148.775h2.659v1.062c.512-.535.95-.896 1.312-1.086.386-.197.871-.297 1.454-.297 1.3 0 2.329.568 3.085 1.703.835-1.135 1.966-1.703 3.392-1.703 2.592 0 3.889 1.572 3.889 4.717v7.115h-2.671v-6.395c0-1.104-.134-1.883-.402-2.34-.276-.465-.729-.697-1.359-.697-.733 0-1.267.275-1.602.826-.335.553-.502 1.439-.502 2.66v5.945h-2.671v-6.359c0-2.049-.591-3.072-1.773-3.072-.749 0-1.294.279-1.637.84-.343.559-.514 1.441-.514 2.646v5.945h-2.659v-11.51zM183.07 150.736l-2.198 1.17c-.347-.701-.776-1.051-1.288-1.051-.245 0-.453.08-.626.242-.173.16-.26.367-.26.619 0 .441.512.877 1.537 1.311 1.411.605 2.36 1.164 2.849 1.676.488.512.732 1.201.732 2.066 0 1.109-.41 2.039-1.229 2.785-.796.709-1.757 1.062-2.884 1.062-1.931 0-3.297-.941-4.101-2.824l2.269-1.053c.315.553.556.902.721 1.053.323.299.709.449 1.158.449.898 0 1.347-.41 1.347-1.229 0-.473-.347-.914-1.04-1.324l-.804-.391-.815-.389c-.772-.379-1.316-.758-1.631-1.135-.402-.48-.603-1.1-.603-1.855 0-1.002.343-1.828 1.028-2.482.701-.654 1.552-.982 2.553-.982 1.473.001 2.568.763 3.285 2.282z"/></g><g fill="#fff"><path d="M188.866 140.324v9.787c1.064-1.104 2.27-1.656 3.617-1.656 1.552 0 2.844.58 3.877 1.738 1.032 1.15 1.548 2.584 1.548 4.303 0 1.771-.521 3.238-1.561 4.396-1.032 1.15-2.336 1.725-3.912 1.725-1.332 0-2.521-.512-3.569-1.535v1.205h-2.659v-19.963h2.659zm6.323 14.289c0-1.104-.299-2-.898-2.693-.607-.711-1.367-1.064-2.281-1.064-.977 0-1.773.342-2.387 1.027-.607.678-.91 1.561-.91 2.648 0 1.119.299 2.014.898 2.684.599.686 1.387 1.027 2.364 1.027.922 0 1.686-.342 2.293-1.027.614-.694.921-1.561.921-2.602zM209.135 148.775h2.671v11.512h-2.671v-1.205c-1.096 1.023-2.273 1.535-3.534 1.535-1.592 0-2.907-.574-3.947-1.725-1.033-1.174-1.548-2.641-1.548-4.396 0-1.727.516-3.164 1.548-4.314s2.324-1.727 3.876-1.727c1.339 0 2.541.553 3.605 1.656v-1.336zm-6.312 5.721c0 1.104.295 2 .886 2.693.607.703 1.371 1.053 2.293 1.053.985 0 1.781-.338 2.388-1.016.606-.701.91-1.592.91-2.672s-.304-1.971-.91-2.672c-.607-.686-1.395-1.027-2.364-1.027-.915 0-1.679.346-2.293 1.039-.607.704-.91 1.569-.91 2.602zM226.223 160.016c0 .543-.018 1.021-.053 1.436-.036.414-.085.777-.148 1.094-.189.865-.56 1.611-1.111 2.232-1.04 1.199-2.47 1.797-4.291 1.797-1.536 0-2.801-.416-3.794-1.246-1.024-.855-1.615-2.035-1.772-3.541h2.671c.102.568.272 1.006.508 1.312.551.717 1.355 1.076 2.411 1.076 1.946 0 2.919-1.189 2.919-3.57v-1.607c-1.056 1.08-2.273 1.619-3.652 1.619-1.568 0-2.853-.566-3.853-1.701-1.009-1.15-1.513-2.588-1.513-4.314 0-1.678.469-3.104 1.406-4.277 1.009-1.246 2.34-1.869 3.995-1.869 1.45 0 2.655.541 3.616 1.621v-1.301h2.66v11.239zm-2.553-5.455c0-1.117-.299-2.01-.898-2.678-.607-.686-1.383-1.027-2.329-1.027-1.009 0-1.804.373-2.387 1.121-.528.668-.792 1.533-.792 2.596 0 1.047.264 1.904.792 2.572.575.732 1.371 1.098 2.387 1.098 1.017 0 1.82-.369 2.411-1.109.544-.669.816-1.527.816-2.573zM239.966 155.158h-8.25c.071.945.378 1.697.922 2.256.543.553 1.241.828 2.092.828.662 0 1.209-.158 1.643-.473.425-.314.91-.898 1.454-1.75l2.246 1.254c-.347.59-.713 1.098-1.099 1.518-.386.422-.8.77-1.241 1.041-.441.271-.918.471-1.43.596-.512.127-1.068.189-1.667.189-1.718 0-3.097-.551-4.137-1.654-1.04-1.111-1.56-2.584-1.56-4.42 0-1.82.504-3.293 1.513-4.42 1.017-1.111 2.364-1.668 4.042-1.668 1.694 0 3.034.541 4.019 1.621.977 1.07 1.466 2.557 1.466 4.455l-.013.627zm-2.73-2.176c-.371-1.418-1.265-2.127-2.683-2.127-.323 0-.626.049-.91.148-.283.098-.542.24-.774.424-.232.186-.431.408-.597.668s-.292.557-.378.887h5.342z"/></g><g fill="#fff"><path d="M242.703 148.775h2.659v1.027c.488-.512.922-.861 1.301-1.051.385-.197.843-.297 1.371-.297.701 0 1.434.23 2.197.686l-1.217 2.436c-.504-.361-.997-.543-1.478-.543-1.45 0-2.175 1.094-2.175 3.285v5.969h-2.659v-11.512zM251.5 143.988c0-.465.169-.867.509-1.205.338-.34.744-.508 1.217-.508.48 0 .891.168 1.229.508.339.33.508.736.508 1.217s-.169.891-.508 1.229c-.331.34-.737.51-1.218.51s-.891-.17-1.229-.51c-.34-.338-.508-.752-.508-1.241zm3.061 4.787v11.512h-2.66v-11.512h2.66z"/></g><g fill="#fff"><path d="M268.266 155.158h-8.25c.07.945.379 1.697.922 2.256.543.553 1.241.828 2.092.828.662 0 1.209-.158 1.643-.473.426-.314.91-.898 1.454-1.75l2.245 1.254c-.346.59-.713 1.098-1.099 1.518-.386.422-.8.77-1.241 1.041s-.918.471-1.43.596c-.512.127-1.068.189-1.666.189-1.719 0-3.098-.551-4.137-1.654-1.041-1.111-1.561-2.584-1.561-4.42 0-1.82.504-3.293 1.513-4.42 1.017-1.111 2.364-1.668 4.042-1.668 1.694 0 3.033.541 4.019 1.621.978 1.07 1.466 2.557 1.466 4.455l-.012.627zm-2.73-2.176c-.371-1.418-1.265-2.127-2.684-2.127-.322 0-.626.049-.91.148-.283.098-.541.24-.773.424-.232.186-.432.408-.597.668s-.292.557-.378.887h5.342zM273.842 151.258v9.029h-2.658v-9.029h-1.135v-2.482h1.135v-4.219h2.658v4.219h2.068v2.482h-2.068zM291.781 150.736l-2.199 1.17c-.346-.701-.775-1.051-1.287-1.051-.245 0-.453.08-.627.242-.174.16-.26.367-.26.619 0 .441.512.877 1.536 1.311 1.411.605 2.36 1.164 2.848 1.676s.732 1.201.732 2.066c0 1.109-.41 2.039-1.229 2.785-.796.709-1.757 1.062-2.884 1.062-1.93 0-3.297-.941-4.101-2.824l2.269-1.053c.315.553.557.902.722 1.053.323.299.709.449 1.158.449.897 0 1.347-.41 1.347-1.229 0-.473-.346-.914-1.039-1.324l-.805-.391-.814-.389c-.773-.379-1.316-.758-1.631-1.135-.402-.48-.604-1.1-.604-1.855 0-1.002.343-1.828 1.028-2.482.701-.654 1.552-.982 2.553-.982 1.475.001 2.57.763 3.287 2.282zM305.348 155.158h-8.248c.07.945.377 1.697.922 2.256.543.553 1.24.828 2.092.828.662 0 1.209-.158 1.643-.473.426-.314.91-.898 1.453-1.75l2.246 1.254c-.348.59-.713 1.098-1.1 1.518-.387.422-.799.77-1.24 1.041s-.918.471-1.43.596c-.514.127-1.068.189-1.668.189-1.717 0-3.096-.551-4.137-1.654-1.039-1.111-1.559-2.584-1.559-4.42 0-1.82.504-3.293 1.512-4.42 1.018-1.111 2.363-1.668 4.043-1.668 1.693 0 3.033.541 4.018 1.621.977 1.07 1.467 2.557 1.467 4.455l-.014.627zm-2.729-2.176c-.371-1.418-1.266-2.127-2.684-2.127-.324 0-.627.049-.91.148-.283.098-.541.24-.773.424-.232.186-.432.408-.598.668s-.291.557-.379.887h5.344zM316.67 140.324h2.67v19.963h-2.67v-1.205c-1.049 1.023-2.234 1.535-3.559 1.535-1.576 0-2.883-.574-3.924-1.725-1.031-1.174-1.547-2.641-1.547-4.396 0-1.719.516-3.152 1.547-4.303 1.025-1.158 2.312-1.738 3.865-1.738 1.348 0 2.553.553 3.617 1.656v-9.787zm-6.313 14.172c0 1.104.297 2 .887 2.693.607.703 1.371 1.053 2.293 1.053.984 0 1.781-.338 2.389-1.016.605-.701.91-1.592.91-2.672s-.305-1.971-.91-2.672c-.607-.686-1.396-1.027-2.365-1.027-.914 0-1.678.346-2.293 1.039-.606.704-.911 1.569-.911 2.602zM331.135 148.775h2.672v11.512h-2.672v-1.205c-1.096 1.023-2.273 1.535-3.533 1.535-1.592 0-2.908-.574-3.947-1.725-1.033-1.174-1.549-2.641-1.549-4.396 0-1.727.516-3.164 1.549-4.314 1.031-1.15 2.324-1.727 3.875-1.727 1.34 0 2.541.553 3.605 1.656v-1.336zm-6.311 5.721c0 1.104.295 2 .885 2.693.607.703 1.371 1.053 2.293 1.053.986 0 1.781-.338 2.389-1.016.605-.701.91-1.592.91-2.672s-.305-1.971-.91-2.672c-.607-.686-1.395-1.027-2.363-1.027-.916 0-1.68.346-2.293 1.039-.608.704-.911 1.569-.911 2.602zM337.113 148.775h2.672v1.062c.93-.922 1.979-1.383 3.145-1.383 1.338 0 2.383.422 3.131 1.266.646.717.969 1.887.969 3.51v7.057h-2.67v-6.422c0-1.133-.158-1.916-.473-2.35-.307-.439-.867-.66-1.678-.66-.883 0-1.51.291-1.881.873-.361.574-.543 1.578-.543 3.01v5.549h-2.672v-11.512z"/></g><g fill="#fff"><path d="M362.607 144.627h-3.156l1.514-2.588h4.396v18.248h-2.754v-15.66zM374.295 160.914l-2.021-1.502 4.361-5.945-.604.072-.4.023c-1.475 0-2.75-.564-3.83-1.691-1.072-1.117-1.607-2.465-1.607-4.041 0-1.68.596-3.113 1.785-4.303 1.197-1.197 2.631-1.797 4.301-1.797 1.664 0 3.109.592 4.338 1.773 1.23 1.174 1.844 2.561 1.844 4.16 0 1.418-.598 2.951-1.795 4.598l-6.372 8.653zm-1.418-13.285c0 .984.334 1.812 1.004 2.482.678.678 1.494 1.016 2.447 1.016s1.764-.334 2.434-1.004c.678-.678 1.018-1.494 1.018-2.447s-.34-1.77-1.018-2.447c-.67-.668-1.484-1.004-2.445-1.004-.945 0-1.754.336-2.424 1.004-.678.677-1.016 1.478-1.016 2.4z"/></g><g fill="#fff"><path d="M395.258 144.627h-5.625l-.898 3.014.383-.035.338-.012c1.773 0 3.227.598 4.361 1.797 1.143 1.189 1.713 2.713 1.713 4.572 0 1.924-.646 3.508-1.938 4.752-1.293 1.246-2.92 1.867-4.881 1.867-2.42 0-4.326-1.135-5.721-3.404l2.08-1.76c.574.977 1.154 1.666 1.736 2.068.584.393 1.297.59 2.141.59 1.102 0 2.027-.385 2.777-1.158.748-.795 1.123-1.76 1.123-2.895 0-1.166-.371-2.121-1.111-2.861-.74-.764-1.666-1.146-2.777-1.146-1.238 0-2.305.541-3.203 1.619h-.91l2.871-9.596h7.541v2.588zM407.049 144.627h-9.006v-2.588h13.604l-11.512 18.875-2.186-1.383 9.1-14.904z"/></g><path fill="#fff" d="M409.455 158.963c0-.441.162-.822.484-1.146.324-.322.711-.484 1.158-.484.449 0 .836.162 1.16.484.322.324.484.709.484 1.158 0 .457-.162.848-.484 1.17-.316.316-.703.473-1.16.473-.465 0-.854-.156-1.17-.473-.314-.315-.472-.709-.472-1.182zM93.788 46.031l-.891-.446c-4.159 6.685-12.181 19.907-19.906 32.682 3.565 5.645 6.239 11.438 8.021 15.896 1.486-17.233 9.211-38.625 12.776-48.132zM576.385 126.643h-525.236c-2.2 1.811-4.454 3.303-6.764 4.391h532v-4.391zM70.465 82.575c4.606 5.646 8.022 12.925 10.399 21.244 2.823 10.4 5.942 17.232 15.301 17.232 9.656 0 18.124-12.182 23.621-20.797.297-.446.594-.893.594-1.486 0-.445-.446-.742-.891-.742-.594 0-.892.445-1.189.892-4.753 7.278-10.548 13.964-15.598 13.964-5.942 0-6.834-6.537-6.834-17.53 0-16.192 6.091-36.247 10.399-47.092 2.822-7.131 4.159-9.656 4.159-11.884 0-2.08-6.684-4.606-9.358-4.606-2.526 0-3.566.743-5.2 3.12-8.022 11.736-17.381 26.74-25.551 39.516-6.239-8.319-15.153-15.301-26.889-15.301-11.439 0-20.352 8.319-20.352 19.163 0 10.103 8.468 14.707 15.004 14.707 1.04 0 1.486-.297 1.486-.743 0-.445-.297-.594-.743-.594-3.862-.297-7.576-4.011-7.576-9.062 0-8.913 7.873-11.735 14.855-11.735 8.616 0 15.599 3.119 21.243 8.319-14.855 22.58-28.67 38.179-44.418 38.179-6.833 0-10.25-3.715-10.25-9.807 0-4.9 4.457-8.17 7.428-8.467.743-.147 1.04-.297 1.04-.742 0-.297-.297-.594-1.04-.594-7.873 0-16.49 6.834-16.49 17.084 0 9.061 6.537 18.271 19.907 18.271 3.022 0 5.96-.736 8.815-2.051 2.363-1.088 4.667-2.58 6.917-4.391 11.998-9.65 22.386-28.413 31.211-44.067zm22.432-36.99l.891.446c-3.565 9.507-11.29 30.899-12.776 48.131-1.782-4.457-4.456-10.25-8.021-15.896 7.725-12.774 15.747-25.996 19.906-32.681zM156.625 98.916c.297-.445.594-.892 1.188-.892.446 0 .891.298.891.743 0 .594-.297 1.04-.594 1.486-5.496 8.615-14.558 20.797-25.255 20.797-8.616 0-16.043-4.309-16.043-18.42 0-10.549 3.713-28.523 13.222-44.567 9.358-15.895 18.569-21.689 25.402-21.689 4.754 0 7.873 2.971 7.873 7.279 0 11.736-17.826 35.95-32.385 49.766 0 0-.445 3.861-.445 8.469 0 6.238 2.823 10.398 8.319 10.398 6.238.001 13.073-6.091 17.827-13.37m-15.451-34.911c-6.536 13.37-9.805 24.958-9.805 24.958 11.142-11.141 27.78-33.424 27.78-41.892 0-1.337-.891-2.674-2.377-2.674-2.822-.001-8.913 5.941-15.598 19.608M187.82 98.916c.296-.445.594-.891 1.188-.891.446 0 .891.297.891.742 0 .594-.297 1.04-.594 1.486-5.496 8.615-15.004 20.797-25.106 20.797-8.467 0-12.181-4.309-12.181-9.508 0-10.992 10.696-19.758 10.696-25.402 0-3.268-.595-3.714-.595-4.457 0-.743.595-1.188 1.337-1.188.743 0 2.526 1.039 3.269 1.634 2.673 2.079 4.308 4.456 4.308 8.319 0 4.308-4.606 10.547-4.606 18.568 0 2.971 1.932 4.457 4.754 4.457 5.348.002 11.885-7.278 16.639-14.557m-15.599-38.624c3.565 0 5.496 1.931 5.496 4.605 0 3.417-2.674 8.319-5.942 8.319-3.565 0-5.793-2.228-5.793-4.753 0-3.269 3.416-8.171 6.239-8.171M276.208 98.916c.297-.445.594-.891 1.188-.891.444 0 .892.296.892.742 0 .595-.297 1.039-.595 1.486-5.496 8.617-14.261 20.797-25.254 20.797-8.022 0-11.735-4.457-11.735-10.102 0-10.695 8.912-17.678 8.912-22.581 0-1.931-1.039-2.674-2.674-2.674-2.525 0-11.29 6.537-16.786 15.896-3.566 6.092-4.457 11.736-4.457 16.787 0 1.635-1.485 2.674-4.16 2.674-3.268 0-9.804-2.377-9.804-7.428 0-11.586 9.062-19.461 9.062-25.402 0-1.932-.595-2.971-2.526-2.971-2.971 0-12.033 6.387-16.935 16.34-2.971 5.943-5.199 11.885-5.199 16.193 0 2.229-1.486 3.268-3.269 3.268-4.159 0-9.508-2.377-9.508-7.873 0-10.547 9.36-19.906 9.36-29.266 0-1.783-.891-2.971-.891-4.011 0-.743.594-1.337 1.634-1.337 3.862 0 8.913 4.754 8.913 8.912 0 4.902-1.931 10.845-1.931 10.845 4.902-8.913 14.558-17.826 23.62-17.826 5.645 0 7.576 2.823 7.576 7.132 0 2.821-1.485 7.873-2.525 10.992 6.685-10.251 16.786-18.124 24.066-18.124 6.388 0 8.468 3.12 8.468 7.132 0 6.387-5.794 13.518-5.794 20.797 0 3.268 2.376 4.754 4.605 4.754 5.051.001 10.993-6.982 15.747-14.261M320.324 98.916c.297-.445.596-.892 1.189-.892.447 0 .891.298.891.743 0 .594-.297 1.04-.594 1.486-5.496 8.615-15.896 20.797-30.453 20.797-10.25 0-17.381-4.455-17.381-15.301 0-13.668 11.736-25.254 25.7-25.254 6.834 0 9.062 3.268 9.062 6.685 0 8.765-11.885 15.005-18.867 17.528 0 5.646 3.566 9.51 9.062 9.51 9.508.001 16.639-8.023 21.391-15.302m-14.855-10.547c0-2.08-1.188-3.565-3.416-3.565-5.793 0-12.181 8.765-12.181 17.231 6.239-1.931 15.597-8.17 15.597-13.666M379.895 98.916c.297-.445.596-.891 1.188-.891.445 0 .893.296.893.742 0 .595-.297 1.039-.594 1.486-5.496 8.617-14.561 20.797-25.256 20.797-7.279 0-11.438-4.01-11.438-9.953 0-9.656 9.506-17.976 9.506-22.58 0-1.783-.889-3.268-3.268-3.268-3.713 0-12.182 6.833-16.637 15.153-2.229 4.16-4.16 12.182-4.16 17.381 0 2.229-2.822 3.268-6.092 3.268-2.971 0-7.428-1.633-7.428-8.021 0-11.439 8.617-20.352 8.617-28.523 0-2.526-.744-3.417-.744-4.308 0-.892.744-1.634 1.783-1.634 3.566 0 8.764 4.902 8.764 8.467 0 3.27-.592 7.131-1.039 9.21 4.309-6.685 13.52-15.746 21.393-15.746 6.834 0 9.211 3.565 9.211 8.171 0 5.942-5.051 14.707-5.051 19.461 0 2.822 1.484 4.754 4.605 4.754 5.051-.001 10.993-6.687 15.747-13.966M417.031 98.916c.297-.445.594-.891 1.189-.891.443 0 .891.296.891.742 0 .595-.299 1.039-.596 1.486-5.496 8.617-15.152 20.797-26.293 20.797-8.914 0-13.816-5.348-13.816-13.369 0-10.696 9.211-22.284 13.072-34.021h-5.793c-.297 0-.594-.148-.594-.594 0-.742 1.486-2.822 2.525-2.822h4.902c.742-2.674 1.633-5.794 1.633-9.954 0-2.228-.594-3.268-.594-4.308 0-.891.445-1.485 1.189-1.485 2.971 0 9.061 4.159 9.061 7.13 0 2.675-.295 5.794-.742 8.617h12.777c.297 0 .592.148.592.594 0 .743-1.781 2.822-2.822 2.822h-11.438c-2.525 11.291-8.023 25.106-8.023 33.128 0 4.012 1.932 6.389 5.348 6.389 6.687.001 12.778-6.982 17.532-14.261M472.145 110.803c.742-.744 1.188-1.191 1.783-1.191.445 0 .742.299.742.744 0 .594-.297 1.188-1.338 2.377-3.713 4.309-7.277 8.318-14.111 8.318-6.982 0-10.994-4.605-12.182-10.398-2.674 3.713-8.467 10.398-16.342 10.398-8.469 0-15.152-4.309-15.152-15.004 0-14.112 11.885-25.551 26.889-25.551 5.496 0 8.17 2.079 10.25 5.051 2.229-2.526 5.051-4.308 8.17-4.308 4.309 0 6.24 2.674 6.24 5.792 0 5.2-3.715 11.885-7.725 16.045 0 7.727 2.672 11.143 6.09 11.143 2.527 0 4.754-1.487 6.686-3.416m-26.889-27.039c-7.279 0-13.965 10.548-13.965 22.58 0 5.795 2.08 8.914 5.496 8.914 3.418 0 6.686-3.418 9.658-7.428 0-6.537 1.188-15.451 4.605-20.649-1.337-2.229-2.972-3.417-5.794-3.417"/><g fill="#fff"><path d="M474.139 53.934l51.113-50.508v50.508zM482.088 62.26h15.611v15.612h-15.611zM501.863 62.26h15.611v15.612h-15.611zM482.088 81.775h15.611v15.611h-15.611zM501.863 81.775h15.611v15.611h-15.611zM525.252 53.934v67.13h51.027v-67.13h-51.027zm23.432 43.453h-15.611v-15.612h15.611v15.612zm0-19.515h-15.611v-15.612h15.611v15.612zm19.775 19.515h-15.611v-15.612h15.611v15.612zm0-19.515h-15.611v-15.612h15.611v15.612z"/></g><g fill="#fff"><path d="M482.807 141.736v15.9h5.404v2.65h-8.268v-18.551h2.864zM501.488 148.574v11.713h-2.703v-1.219c-.123.141-.283.305-.477.49-.195.186-.438.357-.729.516-.291.16-.633.297-1.021.412-.389.113-.83.172-1.324.172-.9 0-1.701-.178-2.398-.531-.697-.352-1.289-.82-1.775-1.404-.486-.582-.857-1.244-1.113-1.986s-.385-1.512-.385-2.307.125-1.562.371-2.305c.248-.742.615-1.4 1.1-1.975.486-.574 1.082-1.033 1.789-1.379.707-.344 1.52-.516 2.439-.516.211 0 .463.018.754.053.293.035.598.111.914.225.318.115.637.287.955.518s.617.529.9.9v-1.377h2.703zm-5.83 2.119c-.494 0-.945.098-1.352.291-.406.195-.75.465-1.033.809-.283.346-.504.746-.662 1.207-.16.459-.238.953-.238 1.482 0 .496.074.969.225 1.418.15.451.361.848.637 1.193.273.344.613.619 1.02.82.406.205.875.305 1.404.305 1.043 0 1.852-.357 2.426-1.072.572-.715.861-1.611.861-2.689 0-.637-.094-1.188-.279-1.656s-.428-.857-.729-1.166-.648-.543-1.047-.703c-.397-.159-.809-.239-1.233-.239zM524.939 146.082c-.494-.477-.984-.852-1.471-1.125s-.949-.482-1.391-.623-.848-.23-1.219-.266-.682-.053-.928-.053c-1.008 0-1.922.178-2.744.529-.82.354-1.52.844-2.092 1.471-.576.629-1.021 1.375-1.34 2.24-.316.865-.477 1.811-.477 2.836 0 .988.164 1.902.49 2.742s.781 1.568 1.365 2.186c.582.619 1.281 1.105 2.094 1.459s1.713.529 2.703.529c.211 0 .494-.018.848-.053s.75-.129 1.191-.279c.441-.148.916-.365 1.418-.648.504-.283 1.021-.672 1.551-1.166v3.393c-.141.088-.357.211-.648.371-.293.158-.65.312-1.074.463s-.918.283-1.484.398c-.564.113-1.191.172-1.881.172-.406 0-.861-.027-1.365-.08s-1.043-.172-1.615-.357c-.574-.186-1.166-.445-1.775-.781-.611-.336-1.215-.787-1.816-1.352-.9-.865-1.621-1.869-2.16-3.008-.539-1.141-.807-2.469-.807-3.988 0-.602.047-1.219.145-1.855s.266-1.264.504-1.881c.238-.619.543-1.229.914-1.83.371-.6.84-1.166 1.404-1.695.971-.936 2.014-1.58 3.127-1.934s2.307-.531 3.578-.531c1.201 0 2.186.133 2.955.398.768.264 1.434.592 2 .98v3.338zM539.012 148.574v11.713h-2.703v-1.219c-.125.141-.283.305-.479.49-.193.186-.436.357-.729.516-.291.16-.631.297-1.02.412-.389.113-.83.172-1.324.172-.902 0-1.701-.178-2.398-.531-.699-.352-1.291-.82-1.775-1.404-.486-.582-.857-1.244-1.113-1.986-.258-.742-.385-1.512-.385-2.307s.123-1.562.371-2.305c.246-.742.613-1.4 1.1-1.975s1.082-1.033 1.789-1.379c.707-.344 1.52-.516 2.438-.516.213 0 .465.018.756.053s.596.111.914.225c.318.115.637.287.953.518.318.23.619.529.902.9v-1.377h2.703zm-5.83 2.119c-.496 0-.945.098-1.352.291-.408.195-.752.465-1.035.809-.281.346-.502.746-.662 1.207-.158.459-.238.953-.238 1.482 0 .496.076.969.227 1.418.148.451.361.848.635 1.193.273.344.613.619 1.021.82.404.205.873.305 1.404.305 1.041 0 1.85-.357 2.424-1.072s.861-1.611.861-2.689c0-.637-.092-1.188-.277-1.656s-.43-.857-.73-1.166c-.299-.309-.648-.543-1.045-.703-.399-.159-.81-.239-1.233-.239zM546.748 151.754c-.088-.283-.242-.531-.463-.742-.221-.213-.5-.318-.836-.318l-.172.014s-.199.035-.305.08c-.105.043-.203.119-.291.225s-.133.256-.133.451c0 .336.133.592.398.768.264.178.652.389 1.166.637l1.086.516s.803.43 1.139.676c.602.441.984.889 1.154 1.338.166.451.25.881.25 1.287 0 .67-.131 1.254-.396 1.748s-.602.91-1.008 1.246-.865.582-1.377.742c-.514.158-1.008.238-1.484.238-.406 0-.812-.059-1.219-.172-.406-.115-.791-.293-1.152-.531-.363-.238-.689-.543-.98-.914-.293-.371-.527-.803-.703-1.299l2.279-1.033c.035.123.098.273.186.451.088.176.207.344.357.504.15.158.34.291.57.396.229.105.504.158.82.158.424 0 .746-.113.969-.344.221-.229.33-.539.33-.928 0-.336-.088-.609-.264-.82-.178-.213-.496-.434-.955-.664-.406-.193-.812-.379-1.219-.557-.406-.176-.777-.371-1.113-.582-.459-.301-.805-.637-1.033-1.008-.23-.371-.344-.891-.344-1.562 0-.459.074-.9.225-1.326.15-.424.375-.795.676-1.111.301-.318.68-.574 1.139-.77.459-.193.998-.291 1.617-.291.158 0 .379.018.662.053s.584.129.9.277c.318.15.637.381.955.689.318.311.592.738.822 1.285l-2.253 1.193zM551.545 143.75c0-.477.172-.887.518-1.232.344-.344.754-.516 1.23-.516.479 0 .889.172 1.232.516.346.346.518.756.518 1.232 0 .479-.172.889-.518 1.232-.344.346-.754.518-1.232.518-.477 0-.887-.172-1.23-.518-.346-.343-.518-.753-.518-1.232zm3.1 4.824v11.713h-2.703v-11.713h2.703zM560.66 151.012v9.275h-2.703v-9.275h-1.166v-2.438h1.166v-4.188h2.703v4.188h2.068v2.438h-2.068zM575.688 148.574v11.713h-2.703v-1.219c-.125.141-.283.305-.479.49-.193.186-.436.357-.729.516-.291.16-.631.297-1.02.412-.389.113-.83.172-1.324.172-.902 0-1.701-.178-2.398-.531-.699-.352-1.291-.82-1.775-1.404-.486-.582-.857-1.244-1.113-1.986-.258-.742-.385-1.512-.385-2.307s.123-1.562.371-2.305c.246-.742.613-1.4 1.1-1.975s1.082-1.033 1.789-1.379c.707-.344 1.52-.516 2.438-.516.213 0 .465.018.756.053s.596.111.914.225c.318.115.637.287.953.518.318.23.619.529.902.9v-1.377h2.703zm-5.831 2.119c-.496 0-.945.098-1.352.291-.408.195-.752.465-1.035.809-.281.346-.502.746-.662 1.207-.158.459-.238.953-.238 1.482 0 .496.076.969.227 1.418.148.451.361.848.635 1.193.273.344.613.619 1.021.82.404.205.873.305 1.404.305 1.041 0 1.85-.357 2.424-1.072s.861-1.611.861-2.689c0-.637-.092-1.188-.277-1.656s-.43-.857-.73-1.166c-.299-.309-.648-.543-1.045-.703-.399-.159-.809-.239-1.233-.239z"/></g></svg>