<svg baseProfile="tiny" xmlns="http://www.w3.org/2000/svg" width="2560" height="170" preserveAspectRatio="xMaxYMax meet" viewBox="0 0 2560 170" ><g fill="#58595B"><path d="M75.934 144.744l-2.233 1.324c-.418-.725-.815-1.197-1.193-1.418-.395-.252-.902-.379-1.525-.379-.764 0-1.398.217-1.902.65-.505.426-.757.963-.757 1.609 0 .891.662 1.609 1.986 2.152l1.819.746c1.481.598 2.565 1.33 3.251 2.193s1.028 1.922 1.028 3.176c0 1.68-.56 3.066-1.679 4.164-1.127 1.104-2.525 1.654-4.196 1.654-1.583 0-2.892-.471-3.924-1.412-1.016-.941-1.65-2.264-1.902-3.965l2.789-.615c.126 1.072.347 1.812.662 2.223.567.787 1.395 1.182 2.481 1.182.859 0 1.572-.287 2.14-.861.567-.576.851-1.303.851-2.186 0-.354-.049-.68-.147-.975s-.252-.566-.461-.814-.479-.48-.81-.697-.725-.424-1.182-.619l-1.762-.732c-2.497-1.055-3.746-2.6-3.746-4.631 0-1.369.523-2.516 1.572-3.436 1.048-.93 2.352-1.395 3.912-1.395 2.103.002 3.746 1.023 4.928 3.062zM81.865 151.258v9.029h-2.659v-9.029h-1.135v-2.482h1.135v-4.219h2.659v4.219h2.068v2.482h-2.068zM85.125 154.449c0-1.664.595-3.078 1.785-4.244 1.189-1.166 2.639-1.75 4.349-1.75 1.718 0 3.176.588 4.373 1.762 1.183 1.174 1.773 2.617 1.773 4.326 0 1.725-.595 3.172-1.785 4.338-1.197 1.158-2.667 1.736-4.408 1.736-1.726 0-3.172-.59-4.338-1.771-1.166-1.166-1.749-2.633-1.749-4.397zm2.719.047c0 1.15.307 2.061.922 2.73.63.678 1.461 1.016 2.493 1.016 1.04 0 1.872-.334 2.494-1.004s.934-1.564.934-2.684-.312-2.014-.934-2.684c-.631-.678-1.462-1.016-2.494-1.016-1.016 0-1.84.338-2.47 1.016-.631.679-.945 1.554-.945 2.626zM109.08 149.271v3.533c-.606-.74-1.15-1.248-1.631-1.523-.473-.283-1.028-.426-1.666-.426-1.001 0-1.832.35-2.494 1.051-.662.703-.993 1.58-.993 2.637 0 1.08.319 1.967.958 2.658.646.695 1.469 1.041 2.47 1.041.639 0 1.201-.139 1.69-.414.473-.268 1.028-.787 1.666-1.561v3.512c-1.079.559-2.159.838-3.238.838-1.78 0-3.27-.574-4.468-1.725-1.197-1.158-1.796-2.596-1.796-4.314 0-1.717.606-3.168 1.819-4.35 1.214-1.182 2.703-1.773 4.468-1.773 1.135 0 2.206.274 3.215.816z"/></g><g fill="#58595B"><path d="M114.58 140.324v12.174l3.747-3.723h3.569l-4.999 4.834 5.365 6.678h-3.451l-3.806-4.857-.426.426v4.432h-2.659v-19.963h2.66zM123.952 140.324h2.659v9.408c.946-.852 1.99-1.277 3.133-1.277 1.3 0 2.34.422 3.12 1.266.662.732.992 1.902.992 3.51v7.057h-2.659v-6.809c0-.922-.163-1.59-.49-2.002-.327-.414-.853-.621-1.578-.621-.93 0-1.583.287-1.962.863-.37.582-.556 1.584-.556 3.002v5.566h-2.659v-19.963zM136.657 154.449c0-1.664.595-3.078 1.785-4.244 1.189-1.166 2.639-1.75 4.349-1.75 1.718 0 3.176.588 4.373 1.762 1.183 1.174 1.773 2.617 1.773 4.326 0 1.725-.595 3.172-1.785 4.338-1.197 1.158-2.667 1.736-4.408 1.736-1.726 0-3.172-.59-4.338-1.771-1.166-1.166-1.749-2.633-1.749-4.397zm2.719.047c0 1.15.307 2.061.922 2.73.63.678 1.461 1.016 2.493 1.016 1.04 0 1.872-.334 2.494-1.004s.934-1.564.934-2.684-.312-2.014-.934-2.684c-.631-.678-1.462-1.016-2.494-1.016-1.016 0-1.84.338-2.47 1.016-.631.679-.945 1.554-.945 2.626zM154.385 140.324v19.963h-2.659v-19.963h2.659z"/></g><g fill="#58595B"><path d="M157.451 148.775h2.659v1.062c.513-.535.95-.896 1.312-1.086.386-.197.87-.297 1.453-.297 1.301 0 2.329.568 3.085 1.703.835-1.135 1.966-1.703 3.393-1.703 2.592 0 3.889 1.572 3.889 4.717v7.115h-2.672v-6.395c0-1.104-.134-1.883-.401-2.34-.276-.465-.729-.697-1.359-.697-.732 0-1.267.275-1.602.826-.335.553-.502 1.439-.502 2.66v5.945h-2.671v-6.359c0-2.049-.592-3.072-1.773-3.072-.748 0-1.294.279-1.637.84-.343.559-.515 1.441-.515 2.646v5.945h-2.659v-11.51zM183.07 150.736l-2.198 1.17c-.347-.701-.776-1.051-1.288-1.051-.245 0-.453.08-.627.242-.173.16-.26.367-.26.619 0 .441.512.877 1.536 1.311 1.411.605 2.36 1.164 2.849 1.676s.732 1.201.732 2.066c0 1.109-.409 2.039-1.229 2.785-.796.709-1.758 1.062-2.884 1.062-1.931 0-3.298-.941-4.102-2.824l2.27-1.053c.314.553.556.902.721 1.053.323.299.709.449 1.158.449.898 0 1.348-.41 1.348-1.229 0-.473-.347-.914-1.04-1.324l-.804-.391-.815-.389c-.772-.379-1.316-.758-1.631-1.135-.402-.48-.604-1.1-.604-1.855 0-1.002.343-1.828 1.028-2.482.701-.654 1.553-.982 2.553-.982 1.475.001 2.571.763 3.287 2.282z"/></g><g fill="#58595B"><path d="M188.866 140.324v9.787c1.064-1.104 2.27-1.656 3.617-1.656 1.552 0 2.844.58 3.877 1.738 1.031 1.15 1.548 2.584 1.548 4.303 0 1.771-.521 3.238-1.561 4.396-1.032 1.15-2.336 1.725-3.912 1.725-1.331 0-2.521-.512-3.569-1.535v1.205h-2.659v-19.963h2.659zm6.323 14.289c0-1.104-.299-2-.897-2.693-.607-.711-1.367-1.064-2.281-1.064-.978 0-1.773.342-2.388 1.027-.606.678-.91 1.561-.91 2.648 0 1.119.3 2.014.898 2.684.599.686 1.387 1.027 2.363 1.027.922 0 1.687-.342 2.293-1.027.616-.694.922-1.561.922-2.602zM209.135 148.775h2.671v11.512h-2.671v-1.205c-1.096 1.023-2.273 1.535-3.534 1.535-1.592 0-2.907-.574-3.947-1.725-1.032-1.174-1.548-2.641-1.548-4.396 0-1.727.516-3.164 1.548-4.314s2.324-1.727 3.877-1.727c1.339 0 2.541.553 3.604 1.656v-1.336zm-6.312 5.721c0 1.104.296 2 .887 2.693.606.703 1.371 1.053 2.293 1.053.984 0 1.78-.338 2.388-1.016.606-.701.91-1.592.91-2.672s-.304-1.971-.91-2.672c-.607-.686-1.396-1.027-2.364-1.027-.914 0-1.679.346-2.293 1.039-.607.704-.911 1.569-.911 2.602zM226.224 160.016c0 .543-.019 1.021-.054 1.436s-.085.777-.147 1.094c-.189.865-.56 1.611-1.111 2.232-1.04 1.199-2.47 1.797-4.29 1.797-1.536 0-2.801-.416-3.794-1.246-1.024-.855-1.615-2.035-1.772-3.541h2.671c.102.568.271 1.006.508 1.312.552.717 1.355 1.076 2.411 1.076 1.946 0 2.919-1.189 2.919-3.57v-1.607c-1.056 1.08-2.272 1.619-3.651 1.619-1.568 0-2.853-.566-3.854-1.701-1.009-1.15-1.513-2.588-1.513-4.314 0-1.678.469-3.104 1.406-4.277 1.009-1.246 2.341-1.869 3.995-1.869 1.45 0 2.655.541 3.616 1.621v-1.301h2.66v11.239zm-2.554-5.455c0-1.117-.299-2.01-.897-2.678-.607-.686-1.383-1.027-2.329-1.027-1.009 0-1.804.373-2.387 1.121-.528.668-.792 1.533-.792 2.596 0 1.047.264 1.904.792 2.572.574.732 1.371 1.098 2.387 1.098 1.017 0 1.82-.369 2.411-1.109.543-.669.815-1.527.815-2.573zM239.967 155.158h-8.25c.071.945.379 1.697.922 2.256.544.553 1.241.828 2.092.828.662 0 1.21-.158 1.644-.473.425-.314.91-.898 1.453-1.75l2.246 1.254c-.347.59-.713 1.098-1.1 1.518-.386.422-.8.77-1.24 1.041-.441.271-.919.471-1.431.596-.512.127-1.067.189-1.666.189-1.718 0-3.097-.551-4.137-1.654-1.04-1.111-1.561-2.584-1.561-4.42 0-1.82.504-3.293 1.513-4.42 1.017-1.111 2.364-1.668 4.042-1.668 1.694 0 3.034.541 4.019 1.621.978 1.07 1.467 2.557 1.467 4.455l-.013.627zm-2.731-2.176c-.37-1.418-1.265-2.127-2.683-2.127-.323 0-.627.049-.91.148-.283.098-.542.24-.774.424-.232.186-.431.408-.597.668-.165.26-.292.557-.378.887h5.342z"/></g><g fill="#58595B"><path d="M242.703 148.775h2.659v1.027c.488-.512.922-.861 1.301-1.051.385-.197.843-.297 1.371-.297.701 0 1.434.23 2.197.686l-1.217 2.436c-.504-.361-.997-.543-1.478-.543-1.45 0-2.175 1.094-2.175 3.285v5.969h-2.659v-11.512zM251.5 143.988c0-.465.169-.867.509-1.205.338-.34.744-.508 1.217-.508.48 0 .891.168 1.229.508.339.33.508.736.508 1.217s-.169.891-.508 1.229c-.331.34-.737.51-1.218.51s-.891-.17-1.229-.51c-.339-.338-.508-.752-.508-1.241zm3.062 4.787v11.512h-2.66v-11.512h2.66z"/></g><g fill="#58595B"><path d="M268.267 155.158h-8.25c.07.945.379 1.697.922 2.256.543.553 1.241.828 2.092.828.662 0 1.209-.158 1.643-.473.426-.314.91-.898 1.454-1.75l2.245 1.254c-.346.59-.713 1.098-1.099 1.518-.386.422-.8.77-1.241 1.041s-.918.471-1.43.596c-.512.127-1.068.189-1.666.189-1.719 0-3.098-.551-4.137-1.654-1.041-1.111-1.561-2.584-1.561-4.42 0-1.82.504-3.293 1.513-4.42 1.017-1.111 2.364-1.668 4.042-1.668 1.694 0 3.033.541 4.019 1.621.978 1.07 1.466 2.557 1.466 4.455l-.012.627zm-2.731-2.176c-.371-1.418-1.265-2.127-2.684-2.127-.322 0-.626.049-.91.148-.283.098-.541.24-.773.424-.232.186-.432.408-.597.668s-.292.557-.378.887h5.342zM273.843 151.258v9.029h-2.658v-9.029h-1.135v-2.482h1.135v-4.219h2.658v4.219h2.068v2.482h-2.068zM291.781 150.736l-2.199 1.17c-.346-.701-.775-1.051-1.287-1.051-.244 0-.453.08-.627.242-.174.16-.26.367-.26.619 0 .441.512.877 1.537 1.311 1.41.605 2.359 1.164 2.848 1.676s.732 1.201.732 2.066c0 1.109-.41 2.039-1.229 2.785-.797.709-1.758 1.062-2.885 1.062-1.93 0-3.297-.941-4.1-2.824l2.268-1.053c.316.553.557.902.723 1.053.322.299.709.449 1.158.449.896 0 1.346-.41 1.346-1.229 0-.473-.346-.914-1.039-1.324l-.805-.391-.814-.389c-.773-.379-1.316-.758-1.631-1.135-.402-.48-.604-1.1-.604-1.855 0-1.002.344-1.828 1.029-2.482.701-.654 1.551-.982 2.553-.982 1.474.001 2.569.763 3.286 2.282zM305.348 155.158h-8.248c.07.945.377 1.697.922 2.256.543.553 1.24.828 2.092.828.662 0 1.209-.158 1.643-.473.426-.314.91-.898 1.453-1.75l2.246 1.254c-.348.59-.713 1.098-1.1 1.518-.387.422-.799.77-1.24 1.041s-.918.471-1.43.596c-.514.127-1.068.189-1.668.189-1.717 0-3.096-.551-4.137-1.654-1.039-1.111-1.559-2.584-1.559-4.42 0-1.82.504-3.293 1.512-4.42 1.018-1.111 2.363-1.668 4.043-1.668 1.693 0 3.033.541 4.018 1.621.977 1.07 1.467 2.557 1.467 4.455l-.014.627zm-2.729-2.176c-.371-1.418-1.266-2.127-2.684-2.127-.324 0-.627.049-.91.148-.283.098-.541.24-.773.424-.232.186-.432.408-.598.668s-.291.557-.379.887h5.344zM316.67 140.324h2.67v19.963h-2.67v-1.205c-1.049 1.023-2.234 1.535-3.559 1.535-1.576 0-2.883-.574-3.924-1.725-1.031-1.174-1.547-2.641-1.547-4.396 0-1.719.516-3.152 1.547-4.303 1.025-1.158 2.312-1.738 3.865-1.738 1.348 0 2.553.553 3.617 1.656v-9.787zm-6.313 14.172c0 1.104.297 2 .887 2.693.607.703 1.371 1.053 2.293 1.053.984 0 1.781-.338 2.389-1.016.605-.701.91-1.592.91-2.672s-.305-1.971-.91-2.672c-.607-.686-1.396-1.027-2.365-1.027-.914 0-1.678.346-2.293 1.039-.606.704-.911 1.569-.911 2.602zM331.135 148.775h2.672v11.512h-2.672v-1.205c-1.096 1.023-2.273 1.535-3.533 1.535-1.592 0-2.908-.574-3.947-1.725-1.033-1.174-1.549-2.641-1.549-4.396 0-1.727.516-3.164 1.549-4.314 1.031-1.15 2.324-1.727 3.875-1.727 1.34 0 2.541.553 3.605 1.656v-1.336zm-6.311 5.721c0 1.104.295 2 .885 2.693.607.703 1.371 1.053 2.293 1.053.986 0 1.781-.338 2.389-1.016.605-.701.91-1.592.91-2.672s-.305-1.971-.91-2.672c-.607-.686-1.395-1.027-2.363-1.027-.916 0-1.68.346-2.293 1.039-.608.704-.911 1.569-.911 2.602zM337.113 148.775h2.672v1.062c.93-.922 1.979-1.383 3.145-1.383 1.338 0 2.383.422 3.131 1.266.646.717.969 1.887.969 3.51v7.057h-2.67v-6.422c0-1.133-.158-1.916-.473-2.35-.307-.439-.867-.66-1.678-.66-.883 0-1.51.291-1.881.873-.361.574-.543 1.578-.543 3.01v5.549h-2.672v-11.512z"/></g><g fill="#58595B"><path d="M362.607 144.627h-3.156l1.514-2.588h4.396v18.248h-2.754v-15.66zM374.295 160.914l-2.021-1.502 4.361-5.945-.604.072-.4.023c-1.475 0-2.75-.564-3.83-1.691-1.072-1.117-1.607-2.465-1.607-4.041 0-1.68.596-3.113 1.785-4.303 1.197-1.197 2.631-1.797 4.301-1.797 1.664 0 3.109.592 4.338 1.773 1.23 1.174 1.844 2.561 1.844 4.16 0 1.418-.598 2.951-1.795 4.598l-6.372 8.653zm-1.418-13.285c0 .984.334 1.812 1.004 2.482.678.678 1.494 1.016 2.447 1.016s1.764-.334 2.434-1.004c.678-.678 1.018-1.494 1.018-2.447s-.34-1.77-1.018-2.447c-.67-.668-1.484-1.004-2.445-1.004-.945 0-1.754.336-2.424 1.004-.678.677-1.016 1.478-1.016 2.4z"/></g><g fill="#58595B"><path d="M395.258 144.627h-5.625l-.898 3.014.383-.035.338-.012c1.773 0 3.227.598 4.361 1.797 1.143 1.189 1.713 2.713 1.713 4.572 0 1.924-.646 3.508-1.938 4.752-1.293 1.246-2.92 1.867-4.881 1.867-2.42 0-4.326-1.135-5.721-3.404l2.08-1.76c.574.977 1.154 1.666 1.736 2.068.584.393 1.297.59 2.141.59 1.102 0 2.027-.385 2.777-1.158.748-.795 1.123-1.76 1.123-2.895 0-1.166-.371-2.121-1.111-2.861-.74-.764-1.666-1.146-2.777-1.146-1.238 0-2.305.541-3.203 1.619h-.91l2.871-9.596h7.541v2.588zM407.049 144.627h-9.006v-2.588h13.604l-11.512 18.875-2.186-1.383 9.1-14.904z"/></g><path fill="#58595B" d="M409.455 158.963c0-.441.162-.822.484-1.146.324-.322.711-.484 1.158-.484.449 0 .836.162 1.16.484.322.324.484.709.484 1.158 0 .457-.162.848-.484 1.17-.316.316-.703.473-1.16.473-.465 0-.854-.156-1.17-.473-.314-.315-.472-.709-.472-1.182z"/><path d="M93.788 46.031l-.891-.446c-4.159 6.685-12.182 19.907-19.906 32.682 3.564 5.646 6.239 11.438 8.021 15.896 1.486-17.233 9.211-38.626 12.776-48.132z" fill="none"/><path fill="#58595B" d="M576.385 126.643h-525.236c-2.199 1.811-4.453 3.303-6.764 4.391h531.999v-4.391z"/><g fill="#ED1C24"><path d="M171.775 73.216c3.268 0 5.941-4.902 5.941-8.319 0-2.674-1.931-4.605-5.496-4.605-2.822 0-6.238 4.902-6.238 8.172 0 2.524 2.228 4.752 5.793 4.752zM473.928 109.611c-.596 0-1.041.447-1.783 1.191-1.932 1.93-4.158 3.416-6.686 3.416-3.418 0-6.09-3.416-6.09-11.143 4.01-4.16 7.725-10.845 7.725-16.045 0-3.119-1.932-5.793-6.24-5.793-3.119 0-5.941 1.782-8.17 4.309-2.08-2.973-4.754-5.051-10.25-5.051-12.795 0-23.315 8.321-26.138 19.522-4.64 6.865-10.449 13.159-16.796 13.159-3.416 0-5.348-2.377-5.348-6.389 0-8.021 5.498-21.837 8.023-33.128h11.438c1.041 0 2.822-2.079 2.822-2.821 0-.447-.295-.595-.592-.595h-12.777c.447-2.823.742-5.942.742-8.616 0-2.972-6.09-7.131-9.061-7.131-.744 0-1.189.594-1.189 1.485 0 1.04.594 2.08.594 4.308 0 4.16-.891 7.28-1.633 9.954h-4.902c-1.039 0-2.525 2.08-2.525 2.822 0 .446.297.594.594.594h5.793c-2.766 8.406-8.261 16.733-11.165 24.714-.155.158-.289.347-.419.541-4.754 7.279-10.695 13.965-15.746 13.965-3.121 0-4.605-1.932-4.605-4.754 0-4.754 5.051-13.519 5.051-19.461 0-4.605-2.377-8.171-9.211-8.171-7.873 0-17.084 9.062-21.393 15.746.447-2.079 1.039-5.94 1.039-9.21 0-3.564-5.197-8.467-8.764-8.467-1.039 0-1.783.742-1.783 1.634s.744 1.782.744 4.308c0 4.52-2.635 9.268-4.99 14.541-4.752 7.244-11.852 15.172-21.303 15.172-5.496 0-9.062-3.863-9.062-9.51 6.982-2.523 18.867-8.764 18.867-17.528 0-3.417-2.229-6.685-9.062-6.685-12.549 0-23.294 9.36-25.343 21.179-4.382 6.188-9.465 11.503-13.871 11.503-2.229 0-4.605-1.486-4.605-4.754 0-7.279 5.794-14.41 5.794-20.797 0-4.012-2.08-7.132-8.468-7.132-7.28 0-17.382 7.873-24.066 18.124 1.04-3.119 2.525-8.171 2.525-10.992 0-4.309-1.932-7.132-7.576-7.132-9.062 0-18.718 8.913-23.62 17.827 0 0 1.931-5.943 1.931-10.846 0-4.158-5.051-8.912-8.913-8.912-1.04 0-1.634.594-1.634 1.337 0 1.04.892 2.228.892 4.011 0 5.236-2.929 10.472-5.51 15.916-4.693 6.963-10.905 13.646-16.03 13.646-2.821 0-4.754-1.486-4.754-4.457 0-8.021 4.606-14.261 4.606-18.568 0-3.863-1.635-6.24-4.309-8.319-.742-.595-2.525-1.634-3.269-1.634-.742 0-1.337.445-1.337 1.188 0 .743.595 1.189.595 4.457 0 3.871-5.031 9.211-8.192 15.729-4.546 5.899-10.354 10.417-15.724 10.417-5.496 0-8.319-4.16-8.319-10.398 0-4.607.445-8.469.445-8.469 14.559-13.816 32.385-38.03 32.385-49.766 0-4.309-3.119-7.279-7.873-7.279-6.833 0-16.044 5.793-25.402 21.688-9.059 15.285-12.849 32.308-13.188 43.007-4.45 6.39-9.597 11.811-14.143 11.811-5.942 0-6.834-6.537-6.834-17.53 0-16.192 6.091-36.247 10.399-47.092 2.821-7.131 4.158-9.656 4.158-11.884 0-2.08-6.684-4.606-9.357-4.606-2.526 0-3.566.743-5.2 3.12-8.022 11.736-17.381 26.74-25.551 39.516-6.239-8.318-15.153-15.301-26.89-15.301-11.438 0-20.352 8.319-20.352 19.163 0 10.103 8.468 14.707 15.004 14.707 1.04 0 1.486-.297 1.486-.743 0-.445-.297-.594-.743-.594-3.862-.297-7.576-4.011-7.576-9.062 0-8.912 7.873-11.734 14.855-11.734 8.615 0 15.599 3.119 21.242 8.318-14.854 22.58-28.67 38.18-44.418 38.18-6.833 0-10.25-3.715-10.25-9.807 0-4.9 4.457-8.17 7.429-8.467.742-.146 1.04-.297 1.04-.742 0-.297-.298-.594-1.04-.594-7.873 0-16.49 6.834-16.49 17.084 0 9.061 6.537 18.271 19.907 18.271 3.022 0 5.96-.736 8.815-2.051 2.362-1.088 4.667-2.58 6.917-4.391 11.998-9.65 22.386-28.412 31.21-44.068 4.606 5.646 8.022 12.926 10.399 21.244 2.823 10.4 5.941 17.232 15.301 17.232 8.084 0 15.334-8.538 20.707-16.374.693 12.48 7.799 16.374 15.982 16.374 7.504 0 14.201-5.995 19.429-12.548-.171.993-.266 2.007-.266 3.04 0 5.199 3.715 9.508 12.182 9.508 7.441 0 14.558-6.61 19.988-13.535-.51 1.853-.827 3.737-.827 5.662 0 5.496 5.349 7.873 9.508 7.873 1.783 0 3.27-1.039 3.27-3.268 0-4.309 2.228-10.25 5.198-16.193 4.902-9.953 13.964-16.34 16.936-16.34 1.931 0 2.525 1.039 2.525 2.971 0 5.941-9.062 13.816-9.062 25.402 0 5.051 6.536 7.428 9.804 7.428 2.675 0 4.16-1.039 4.16-2.674 0-5.051.891-10.695 4.457-16.787 5.496-9.358 14.261-15.896 16.786-15.896 1.635 0 2.674.743 2.674 2.674 0 4.903-8.912 11.886-8.912 22.581 0 5.645 3.713 10.102 11.735 10.102 8.777 0 16.131-7.764 21.538-15.28.009 10.83 7.137 15.28 17.38 15.28 11.438 0 20.308-7.521 26.251-14.923-.604 2.201-.999 4.492-.999 6.901 0 6.389 4.457 8.021 7.428 8.021 3.27 0 6.092-1.039 6.092-3.268 0-5.199 1.932-13.221 4.16-17.381 4.455-8.32 12.924-15.152 16.637-15.152 2.379 0 3.268 1.484 3.268 3.268 0 4.604-9.506 12.924-9.506 22.58 0 5.943 4.158 9.953 11.438 9.953 9.116 0 17.046-8.849 22.593-16.798-.188 1.151-.312 2.296-.312 3.429 0 8.021 4.902 13.369 13.816 13.369 9.371 0 17.692-8.618 23.37-16.485-.029.49-.048.983-.048 1.481 0 10.695 6.684 15.004 15.152 15.004 7.875 0 13.668-6.686 16.342-10.398 1.188 5.793 5.199 10.398 12.182 10.398 6.834 0 10.398-4.01 14.111-8.318 1.041-1.189 1.338-1.783 1.338-2.377 0-.442-.297-.741-.742-.741zm-171.875-24.807c2.229 0 3.416 1.485 3.416 3.565 0 5.496-9.357 11.736-15.598 13.666 0-8.467 6.389-17.231 12.182-17.231zm-160.878-20.798c6.685-13.668 12.775-19.609 15.598-19.609 1.486 0 2.377 1.337 2.377 2.674 0 8.469-16.638 30.752-27.78 41.893-.001-.001 3.269-11.589 9.805-24.958zm-60.163 30.156c-1.781-4.457-4.456-10.25-8.021-15.896 7.725-12.774 15.747-25.997 19.906-32.682l.891.446c-3.565 9.507-11.29 30.9-12.776 48.132zm365.433 13.668c-2.973 4.01-6.24 7.428-9.658 7.428-3.416 0-5.496-3.119-5.496-8.914 0-12.032 6.686-22.58 13.965-22.58 2.822 0 4.457 1.188 5.795 3.417-3.418 5.198-4.606 14.112-4.606 20.649z"/></g><g fill="#ED1C24"><path d="M474.139 53.934l51.113-50.508v50.508zM482.088 62.26h15.611v15.612h-15.611zM501.863 62.26h15.611v15.612h-15.611zM482.088 81.775h15.611v15.611h-15.611zM501.863 81.775h15.611v15.611h-15.611zM525.252 53.934v67.131h51.027v-67.131h-51.027zm23.432 43.453h-15.611v-15.612h15.611v15.612zm0-19.515h-15.611v-15.612h15.611v15.612zm19.775 19.515h-15.611v-15.612h15.611v15.612zm0-19.515h-15.611v-15.612h15.611v15.612z"/></g><g fill="#ED1C24"><path d="M482.807 141.736v15.9h5.404v2.65h-8.268v-18.551h2.864zM501.488 148.574v11.713h-2.703v-1.219c-.123.141-.283.305-.477.49-.195.186-.438.357-.729.516-.291.16-.633.297-1.021.412-.389.113-.83.172-1.324.172-.9 0-1.701-.178-2.398-.531-.697-.352-1.289-.82-1.775-1.404-.486-.582-.857-1.244-1.113-1.986s-.385-1.512-.385-2.307.125-1.562.371-2.305c.248-.742.615-1.4 1.1-1.975.486-.574 1.082-1.033 1.789-1.379.707-.344 1.52-.516 2.439-.516.211 0 .463.018.754.053.293.035.598.111.914.225.318.115.637.287.955.518s.617.529.9.9v-1.377h2.703zm-5.83 2.119c-.494 0-.945.098-1.352.291-.406.195-.75.465-1.033.809-.283.346-.504.746-.662 1.207-.16.459-.238.953-.238 1.482 0 .496.074.969.225 1.418.15.451.361.848.637 1.193.273.344.613.619 1.02.82.406.205.875.305 1.404.305 1.043 0 1.852-.357 2.426-1.072.572-.715.861-1.611.861-2.689 0-.637-.094-1.188-.279-1.656s-.428-.857-.729-1.166-.648-.543-1.047-.703c-.397-.159-.809-.239-1.233-.239zM524.939 146.082c-.494-.477-.984-.852-1.471-1.125s-.949-.482-1.391-.623-.848-.23-1.219-.266-.682-.053-.928-.053c-1.008 0-1.922.178-2.744.529-.82.354-1.52.844-2.092 1.471-.576.629-1.021 1.375-1.34 2.24-.316.865-.477 1.811-.477 2.836 0 .988.164 1.902.49 2.742s.781 1.568 1.365 2.186c.582.619 1.281 1.105 2.094 1.459s1.713.529 2.703.529c.211 0 .494-.018.848-.053s.75-.129 1.191-.279c.441-.148.916-.365 1.418-.648.504-.283 1.021-.672 1.551-1.166v3.393c-.141.088-.357.211-.648.371-.293.158-.65.312-1.074.463s-.918.283-1.484.398c-.564.113-1.191.172-1.881.172-.406 0-.861-.027-1.365-.08s-1.043-.172-1.615-.357c-.574-.186-1.166-.445-1.775-.781-.611-.336-1.215-.787-1.816-1.352-.9-.865-1.621-1.869-2.16-3.008-.539-1.141-.807-2.469-.807-3.988 0-.602.047-1.219.145-1.855s.266-1.264.504-1.881c.238-.619.543-1.229.914-1.83.371-.6.84-1.166 1.404-1.695.971-.936 2.014-1.58 3.127-1.934s2.307-.531 3.578-.531c1.201 0 2.186.133 2.955.398.768.264 1.434.592 2 .98v3.338zM539.012 148.574v11.713h-2.703v-1.219c-.125.141-.283.305-.479.49-.193.186-.436.357-.729.516-.291.16-.631.297-1.02.412-.389.113-.83.172-1.324.172-.902 0-1.701-.178-2.398-.531-.699-.352-1.291-.82-1.775-1.404-.486-.582-.857-1.244-1.113-1.986-.258-.742-.385-1.512-.385-2.307s.123-1.562.371-2.305c.246-.742.613-1.4 1.1-1.975s1.082-1.033 1.789-1.379c.707-.344 1.52-.516 2.438-.516.213 0 .465.018.756.053s.596.111.914.225c.318.115.637.287.953.518.318.23.619.529.902.9v-1.377h2.703zm-5.83 2.119c-.496 0-.945.098-1.352.291-.408.195-.752.465-1.035.809-.281.346-.502.746-.662 1.207-.158.459-.238.953-.238 1.482 0 .496.076.969.227 1.418.148.451.361.848.635 1.193.273.344.613.619 1.021.82.404.205.873.305 1.404.305 1.041 0 1.85-.357 2.424-1.072s.861-1.611.861-2.689c0-.637-.092-1.188-.277-1.656s-.43-.857-.73-1.166c-.299-.309-.648-.543-1.045-.703-.399-.159-.81-.239-1.233-.239zM546.748 151.754c-.088-.283-.242-.531-.463-.742-.221-.213-.5-.318-.836-.318l-.172.014s-.199.035-.305.08c-.105.043-.203.119-.291.225s-.133.256-.133.451c0 .336.133.592.398.768.264.178.652.389 1.166.637l1.086.516s.803.43 1.139.676c.602.441.984.889 1.154 1.338.166.451.25.881.25 1.287 0 .67-.131 1.254-.396 1.748s-.602.91-1.008 1.246-.865.582-1.377.742c-.514.158-1.008.238-1.484.238-.406 0-.812-.059-1.219-.172-.406-.115-.791-.293-1.152-.531-.363-.238-.689-.543-.98-.914-.293-.371-.527-.803-.703-1.299l2.279-1.033c.035.123.098.273.186.451.088.176.207.344.357.504.15.158.34.291.57.396.229.105.504.158.82.158.424 0 .746-.113.969-.344.221-.229.33-.539.33-.928 0-.336-.088-.609-.264-.82-.178-.213-.496-.434-.955-.664-.406-.193-.812-.379-1.219-.557-.406-.176-.777-.371-1.113-.582-.459-.301-.805-.637-1.033-1.008-.23-.371-.344-.891-.344-1.562 0-.459.074-.9.225-1.326.15-.424.375-.795.676-1.111.301-.318.68-.574 1.139-.77.459-.193.998-.291 1.617-.291.158 0 .379.018.662.053s.584.129.9.277c.318.15.637.381.955.689.318.311.592.738.822 1.285l-2.253 1.193zM551.545 143.75c0-.477.172-.887.518-1.232.344-.344.754-.516 1.23-.516.479 0 .889.172 1.232.516.346.346.518.756.518 1.232 0 .479-.172.889-.518 1.232-.344.346-.754.518-1.232.518-.477 0-.887-.172-1.23-.518-.346-.343-.518-.753-.518-1.232zm3.1 4.824v11.713h-2.703v-11.713h2.703zM560.66 151.012v9.275h-2.703v-9.275h-1.166v-2.438h1.166v-4.188h2.703v4.188h2.068v2.438h-2.068zM575.688 148.574v11.713h-2.703v-1.219c-.125.141-.283.305-.479.49-.193.186-.436.357-.729.516-.291.16-.631.297-1.02.412-.389.113-.83.172-1.324.172-.902 0-1.701-.178-2.398-.531-.699-.352-1.291-.82-1.775-1.404-.486-.582-.857-1.244-1.113-1.986-.258-.742-.385-1.512-.385-2.307s.123-1.562.371-2.305c.246-.742.613-1.4 1.1-1.975s1.082-1.033 1.789-1.379c.707-.344 1.52-.516 2.438-.516.213 0 .465.018.756.053s.596.111.914.225c.318.115.637.287.953.518.318.23.619.529.902.9v-1.377h2.703zm-5.831 2.119c-.496 0-.945.098-1.352.291-.408.195-.752.465-1.035.809-.281.346-.502.746-.662 1.207-.158.459-.238.953-.238 1.482 0 .496.076.969.227 1.418.148.451.361.848.635 1.193.273.344.613.619 1.021.82.404.205.873.305 1.404.305 1.041 0 1.85-.357 2.424-1.072s.861-1.611.861-2.689c0-.637-.092-1.188-.277-1.656s-.43-.857-.73-1.166c-.299-.309-.648-.543-1.045-.703-.399-.159-.809-.239-1.233-.239z"/></g><g transform="translate(590)"><g fill-rule="evenodd" clip-rule="evenodd"><path d="M595.73 129.013c1.692-.248 3.547.706 3.158 2.461-.247 1.102-1.767 1.811-3.296 1.588-2.222-.324-2.534-2.874-.891-3.776.238-.132.657-.22 1.029-.273zM554.424 130.543v3.668c.011.197-.373-.038-.548-.11-1.273-.524-2.903-1.098-4.806-1.257-2.267-.193-4.424.091-6.104.819-3.08 1.333-5.047 3.763-5.078 7.551-.043 5.195 3.789 8.36 10.361 8.043 2.514-.121 4.495-.893 6.175-1.64v3.5c-2.188.919-4.64 1.369-7.479 1.369-3.014 0-5.546-.476-7.479-1.369-3.896-1.796-6.177-5.402-6.177-9.684 0-3.546 1.414-6.225 3.569-8.209 2.145-1.972 5.348-3.45 9.538-3.666 3.187-.163 5.811.258 8.028.985zM487.247 129.942h4.322v18.987h10.639c-.279 1.108-.668 2.132-.963 3.229h-14.066v-22.052c-.004-.078-.011-.155.068-.164zM609.798 131.364c.161 1.46.022 3.156.071 4.705h4.801v3.011h-4.735c-.123 1.446-.065 3.282-.065 5.308 0 2.514-.636 5.794 3.154 5.033.718-.143 1.194-.669 1.646-.766v3.174c-2.22 1.106-6.07.71-7.547-.437-1.566-1.216-1.577-3.226-1.577-5.527v-6.785h-3.296v-3.011h3.224c.163-1.092.023-2.425.072-3.611 1.428-.355 2.883-.691 4.252-1.094zM588.527 136.509v3.446c-.043.206-.349-.099-.479-.163-1.451-.712-4.458-1.669-6.726-.876-.767.269-1.666.912-1.235 2.023.392 1.017 3.379 1.717 4.597 2.137 2.439.835 5.049 1.92 4.805 4.869-.378 4.549-8.878 5.654-13.931 3.557v-3.667c-.033-.191.272.031.411.11 1.111.623 2.228 1.214 3.913 1.476 1.735.272 4.463.305 5.078-.873.126-.247.154-.938 0-1.262-.454-.937-2.503-1.445-3.98-1.914-1.415-.446-3.103-1.029-4.048-1.806-1.916-1.569-1.619-4.475-.067-5.855 2.291-2.04 7.834-2.666 11.662-1.202zM594.084 136.069h4.326v16.089h-4.394v-15.923c-.006-.079-.01-.156.068-.166zM519.017 152.158h-3.704c-.166-.451-.425-.828-.479-1.367-1.606.845-3.004 1.835-5.697 1.695-3.433-.177-5.478-2.177-5.215-5.089.119-1.307.803-2.337 1.647-3.01 2.145-1.709 5.923-1.265 8.92-2.243-.036-.916-.034-1.591-.48-2.136-.823-1-3.664-1.223-5.01-.382-.992.622-.941 1.47-1.303 2.354-1.202-.1-2.293-.287-3.429-.438.579-3.06 2.45-4.963 6.448-5.199 2.957-.172 5.335.488 6.448 1.861 1.188 1.466.825 4.644.825 7.059 0 2.642-.164 5.142 1.029 6.895zm-7.891-6.511c-1.536.229-2.925.448-3.362 1.312-.747 1.483.543 2.641 1.783 2.791 3.097.374 5.331-1.865 4.874-4.705l-.068-.054c-.896.3-2.004.474-3.227.656zM572.47 152.158h-3.705c-.164-.451-.425-.828-.479-1.367-1.614.843-3.037 1.86-5.766 1.695-3.571-.215-5.379-2.273-5.144-5.035.2-2.408 2.152-3.82 4.732-4.322 1.807-.351 3.935-.337 5.834-.984-.036-.916-.032-1.591-.481-2.136-.825-1-3.666-1.223-5.011-.382-.993.622-.941 1.47-1.303 2.354-1.199-.102-2.298-.284-3.431-.438.583-3.06 2.455-4.963 6.448-5.199 2.954-.172 5.338.488 6.45 1.861 1.188 1.466.825 4.644.825 7.059.002 2.641-.161 5.141 1.031 6.894zm-7.891-6.511c-1.536.229-2.925.448-3.363 1.312-.747 1.483.543 2.641 1.785 2.791 3.098.374 5.331-1.865 4.872-4.705l-.068-.054c-.895.3-2.003.474-3.226.656zM631.824 152.158h-3.704c-.168-.451-.425-.828-.481-1.367-1.613.843-3.034 1.86-5.764 1.695-1.879-.113-3.521-.864-4.322-1.915-1.306-1.707-.98-4.747.823-6.184 2.149-1.713 5.9-1.26 8.919-2.243-.035-.916-.033-1.591-.479-2.136-.824-1-3.665-1.223-5.012-.382-.992.622-.941 1.47-1.304 2.354-1.198-.102-2.294-.284-3.429-.438.583-3.06 2.451-4.963 6.452-5.199 2.948-.172 5.332.488 6.445 1.861 1.189 1.466.823 4.644.823 7.059.002 2.642-.16 5.142 1.033 6.895zm-7.89-6.511c-1.537.229-2.926.448-3.363 1.312-.746 1.483.543 2.641 1.785 2.791 3.096.374 5.331-1.865 4.873-4.705l-.069-.054c-.896.3-2.004.474-3.226.656z"/></g><g fill-rule="evenodd" clip-rule="evenodd"><path d="M529.81 69.212h13.647v13.909h-13.705v-13.732c-.004-.084-.008-.167.058-.177zM546.865 69.212h13.706v13.909h-13.764v-13.732c-.003-.084-.007-.167.058-.177zM529.81 86.527h13.647v13.907h-13.705v-13.733c-.004-.082-.008-.164.058-.174zM546.865 86.527h13.706v13.907h-13.764v-13.733c-.003-.082-.007-.164.058-.174zM26.577 121.214h540.702c.134-19.505.02-39.265.055-58.868h-42.842c-.497 0-1.153.078-1.329 0-.277-.125-.12-.135.059-.352.645-.784 1.9-1.87 2.485-2.464l2.832-2.877c2.911-2.954 6.173-6.236 8.962-9.095.719-.739 1.282-1.301 1.965-1.998 2.897-2.939 5.766-6.116 8.848-8.979l.175-.176c.446-.344 1.291-1.312 2.022-2.054 5.31-5.391 10.814-11.038 16.188-16.492l.349-.352c.03-.027.238-.343.344-.118v44.898h44.234c.065-.01.101.012.113.059v58.81c7.847.136 15.938.02 23.878.059v6.033h-609.039l-.001-6.034zm497.743-60.217c-.212.167-.918.877-1.217 1.232.212-.168.918-.879 1.217-1.232zm.346-.352c.039-.059-.077.032-.175.177-.073.107.148-.136.175-.177zm1.04-1.057c-.09.046-.69.649-.867.879.091-.048.691-.65.867-.879zm.927-.941c.031-.064-.41.354-.523.528-.03.065.41-.35.523-.528zm.577-.586c.068-.094-.331.27-.406.411-.069.095.333-.268.406-.411zm.463-.469c.106-.119-.256.18-.289.294-.108.119.252-.18.289-.294zm.692-.703c.034-.065-.408.352-.52.525-.03.066.41-.352.52-.525zm1.043-1.059c-.093.048-.692.65-.87.882.094-.048.692-.65.87-.882zm.694-.704c.069-.094-.332.268-.404.411-.073.096.328-.268.404-.411zm.461-.467c.107-.119-.253.178-.29.293-.106.116.252-.18.29-.293zm.347-.355c.041-.058-.076.034-.174.177-.075.111.147-.132.174-.177zm.694-.703c.032-.066-.41.354-.521.529-.034.065.409-.355.521-.529zm.81-.822c-.006-.031-.487.434-.638.646.006.031.488-.435.638-.646zm.809-.821c-.008-.031-.485.434-.637.645.007.029.485-.436.637-.645zm1.503-1.526c-.245.203-.996.959-1.329 1.351.243-.203.996-.962 1.329-1.351zm.345-.353c.041-.057-.076.033-.173.177-.074.11.147-.133.173-.177zm.466-.469c.105-.12-.255.18-.291.293-.106.121.254-.179.291-.293zm.925-.938c.032-.066-.41.352-.522.526-.031.065.409-.352.522-.526zm.461-.47c.107-.12-.253.179-.289.294-.107.117.254-.18.289-.294zm.463-.47c.105-.118-.252.179-.291.294-.107.118.255-.181.291-.294zm1.041-1.057c-.046.004-.619.577-.752.764.048-.006.619-.576.752-.764zm1.155-1.174c-.004-.029-.484.436-.636.645.007.032.487-.434.636-.645zm1.388-1.408c-.209.167-.916.88-1.213 1.232.208-.168.915-.88 1.213-1.232zm1.966-1.996c-.402.36-1.303 1.273-1.791 1.821.4-.362 1.304-1.274 1.791-1.821zm2.659-2.699c-.632.594-1.765 1.743-2.484 2.523.63-.593 1.765-1.743 2.484-2.523zm2.892-2.934c-.71.671-1.921 1.9-2.718 2.758.707-.671 1.919-1.9 2.718-2.758zm.46-.472c.041-.058-.075.036-.171.178-.076.11.143-.134.171-.178zm2.082-2.111c-.399.359-1.303 1.273-1.79 1.819.397-.361 1.303-1.275 1.79-1.819zm1.388-1.408c-.134.09-.761.724-.982.998.135-.091.761-.725.982-.998zm1.042-1.056c-.092.047-.692.65-.87.88.092-.049.695-.651.87-.88zm2.776-2.818c-.671.632-1.846 1.822-2.604 2.642.671-.633 1.845-1.825 2.604-2.642zm.577-.588c.069-.094-.331.27-.405.411-.068.096.331-.268.405-.411zm1.851-1.877c-.364.321-1.226 1.193-1.677 1.702.36-.322 1.224-1.195 1.677-1.702zm4.97-5.047c-1.401 1.373-3.306 3.307-4.797 4.871 1.402-1.376 3.307-3.309 4.797-4.871zm.81-.823c.071-.094-.33.269-.403.41-.072.097.33-.266.403-.41zm2.546-2.582c-.596.555-1.69 1.667-2.374 2.407.593-.554 1.692-1.667 2.374-2.407zm.171-.175zm6.996 51.883v13.732h13.704v-13.909h-13.646c-.066.009-.062.092-.058.177zm17.058 0v13.732h13.7v-13.909h-13.643c-.067.009-.063.092-.057.177zm-17.058 17.311v13.733h13.704v-13.907h-13.646c-.066.01-.062.092-.058.174zm17.058 0v13.733h13.7v-13.907h-13.643c-.067.01-.063.092-.057.174z"/></g><g fill="#58595B"><path d="M53.442 134.878l-2.139 1.395c-.401-.764-.781-1.261-1.142-1.493-.378-.264-.864-.397-1.461-.397-.73 0-1.338.227-1.82.684-.482.448-.724 1.012-.724 1.693 0 .936.633 1.694 1.901 2.266l1.741.786c1.42.629 2.456 1.4 3.112 2.31.656.908.985 2.021.985 3.344 0 1.765-.537 3.227-1.608 4.383-1.077 1.16-2.417 1.739-4.017 1.739-1.515 0-2.767-.495-3.756-1.485-.972-.992-1.58-2.384-1.821-4.174l2.671-.647c.121 1.13.333 1.907.633 2.34.543.828 1.334 1.245 2.377 1.245.82 0 1.504-.304 2.047-.909.543-.604.814-1.37.814-2.3 0-.372-.048-.715-.143-1.026-.092-.31-.24-.596-.44-.855-.2-.264-.458-.509-.774-.736s-.694-.444-1.132-.649l-1.685-.771c-2.393-1.112-3.588-2.737-3.588-4.875 0-1.441.503-2.646 1.506-3.616 1.003-.98 2.251-1.468 3.744-1.468 2.015-.005 3.588 1.068 4.719 3.216zM59.119 141.733v9.505h-2.545v-9.505h-1.086v-2.612h1.086v-4.44h2.545v4.44h1.981v2.612h-1.981zM62.24 145.094c0-1.751.569-3.24 1.708-4.468 1.139-1.229 2.527-1.841 4.163-1.841 1.646 0 3.041.618 4.187 1.854 1.131 1.236 1.697 2.755 1.697 4.554 0 1.817-.569 3.339-1.709 4.564-1.146 1.22-2.551 1.829-4.219 1.829-1.651 0-3.037-.622-4.153-1.864-1.116-1.229-1.674-2.773-1.674-4.628zm2.603.051c0 1.209.293 2.169.882 2.873.602.714 1.398 1.068 2.385 1.068.997 0 1.793-.352 2.388-1.057.598-.704.895-1.646.895-2.824 0-1.179-.297-2.119-.895-2.822-.603-.716-1.397-1.072-2.388-1.072-.972 0-1.76.356-2.364 1.072-.601.71-.903 1.631-.903 2.762zM85.173 139.644v3.721c-.582-.782-1.102-1.317-1.562-1.604-.453-.298-.985-.449-1.596-.449-.958 0-1.753.369-2.388 1.107-.632.74-.951 1.664-.951 2.774 0 1.137.306 2.068.917 2.799.619.731 1.408 1.095 2.365 1.095.611 0 1.15-.145 1.618-.436.453-.281.985-.829 1.596-1.641v3.695c-1.034.586-2.068.881-3.101.881-1.706 0-3.13-.605-4.277-1.813-1.146-1.22-1.719-2.733-1.719-4.543 0-1.808.58-3.335 1.742-4.58 1.161-1.242 2.587-1.864 4.278-1.864 1.087-.001 2.111.285 3.078.858z"/></g><g fill="#58595B"><path d="M90.438 130.226v12.813l3.586-3.918h3.419l-4.787 5.088 5.136 7.029h-3.304l-3.642-5.111-.407.446v4.665h-2.546v-21.013h2.545zM99.409 130.226h2.545v9.902c.905-.895 1.906-1.343 3-1.343 1.243 0 2.238.444 2.987 1.33.633.772.949 2.005.949 3.694v7.429h-2.544v-7.165c0-.972-.156-1.674-.469-2.109-.314-.435-.816-.653-1.51-.653-.89 0-1.516.304-1.879.91-.354.612-.532 1.665-.532 3.159v5.858h-2.545v-21.012zM111.571 145.094c0-1.751.571-3.24 1.709-4.468 1.139-1.229 2.526-1.841 4.164-1.841 1.644 0 3.04.618 4.187 1.854 1.13 1.236 1.697 2.755 1.697 4.554 0 1.817-.57 3.339-1.708 4.564-1.147 1.22-2.554 1.829-4.22 1.829-1.653 0-3.037-.622-4.152-1.864-1.119-1.229-1.677-2.773-1.677-4.628zm2.602.051c0 1.209.293 2.169.883 2.873.604.714 1.397 1.068 2.387 1.068.994 0 1.791-.352 2.388-1.057.595-.704.894-1.646.894-2.824 0-1.179-.299-2.119-.894-2.822-.605-.716-1.401-1.072-2.388-1.072-.973 0-1.761.356-2.364 1.072-.604.71-.906 1.631-.906 2.762zM128.542 130.226v21.013h-2.546v-21.013h2.546z"/></g><g fill="#58595B"><path d="M131.477 139.121h2.545v1.119c.491-.563.91-.942 1.257-1.144.371-.208.834-.312 1.391-.312 1.245 0 2.23.598 2.953 1.792.798-1.194 1.882-1.792 3.248-1.792 2.482 0 3.723 1.654 3.723 4.964v7.489h-2.558v-6.731c0-1.16-.127-1.98-.384-2.463-.263-.489-.697-.733-1.302-.733-.701 0-1.212.29-1.533.871-.319.581-.48 1.515-.48 2.798v6.259h-2.556v-6.692c0-2.156-.566-3.235-1.697-3.235-.717 0-1.241.294-1.568.884-.329.589-.493 1.518-.493 2.785v6.259h-2.545v-12.118zM156.002 141.187l-2.105 1.231c-.331-.738-.741-1.107-1.232-1.107-.235 0-.435.084-.599.255-.167.168-.251.387-.251.652 0 .465.492.925 1.471 1.379 1.352.639 2.26 1.226 2.728 1.765.468.538.702 1.264.702 2.175 0 1.169-.393 2.146-1.176 2.933-.762.745-1.683 1.117-2.761 1.117-1.848 0-3.156-.989-3.927-2.972l2.172-1.109c.302.582.532.95.691 1.109.309.314.678.472 1.108.472.86 0 1.29-.432 1.29-1.293 0-.496-.332-.963-.995-1.393l-.77-.413-.781-.408c-.739-.399-1.258-.798-1.56-1.194-.385-.508-.578-1.158-.578-1.952 0-1.056.328-1.925.983-2.614.672-.689 1.488-1.033 2.444-1.033 1.411-.002 2.458.799 3.146 2.4z"/></g><g fill="#58595B"><path d="M161.55 130.226v10.304c1.019-1.163 2.172-1.744 3.463-1.744 1.486 0 2.722.608 3.711 1.829.987 1.212 1.483 2.722 1.483 4.53 0 1.865-.499 3.408-1.493 4.628-.989 1.208-2.237 1.813-3.746 1.813-1.275 0-2.414-.538-3.418-1.616v1.269h-2.544v-21.013h2.544zm6.054 15.041c0-1.162-.289-2.104-.862-2.834-.58-.749-1.308-1.122-2.182-1.122-.935 0-1.698.36-2.286 1.084-.58.712-.87 1.641-.87 2.785 0 1.178.285 2.122.858 2.825.573.722 1.328 1.081 2.263 1.081.884 0 1.614-.359 2.197-1.081.587-.732.882-1.644.882-2.738zM180.954 139.121h2.555v12.117h-2.555v-1.269c-1.049 1.078-2.177 1.616-3.384 1.616-1.523 0-2.782-.605-3.779-1.813-.988-1.236-1.482-2.778-1.482-4.628 0-1.819.494-3.332 1.482-4.542.988-1.213 2.225-1.817 3.711-1.817 1.283 0 2.433.581 3.452 1.744v-1.408zm-6.044 6.024c0 1.159.284 2.105.851 2.835.581.739 1.311 1.106 2.194 1.106.943 0 1.706-.354 2.287-1.068.58-.74.871-1.677.871-2.812s-.292-2.074-.871-2.811c-.581-.724-1.336-1.084-2.264-1.084-.875 0-1.606.364-2.195 1.095-.582.739-.873 1.651-.873 2.739zM197.312 150.953c0 .571-.016 1.076-.051 1.511-.034.436-.082.819-.142 1.15-.181.913-.535 1.696-1.064 2.353-.994 1.261-2.364 1.891-4.106 1.891-1.471 0-2.681-.438-3.632-1.313-.981-.897-1.546-2.141-1.696-3.727h2.558c.096.598.259 1.06.485 1.381.528.756 1.297 1.135 2.309 1.135 1.862 0 2.793-1.254 2.793-3.758v-1.693c-1.01 1.139-2.175 1.704-3.496 1.704-1.5 0-2.73-.597-3.687-1.789-.967-1.212-1.45-2.726-1.45-4.543 0-1.767.448-3.267 1.346-4.502.967-1.312 2.241-1.967 3.825-1.967 1.388 0 2.541.569 3.461 1.703v-1.367h2.546v11.831zm-2.444-5.742c0-1.176-.288-2.115-.86-2.817-.581-.723-1.323-1.083-2.228-1.083-.967 0-1.727.393-2.286 1.181-.507.703-.759 1.613-.759 2.732 0 1.102.252 2.004.759 2.708.55.77 1.312 1.154 2.286 1.154.972 0 1.743-.388 2.306-1.166.522-.704.782-1.607.782-2.709zM210.467 145.841h-7.897c.068.993.363 1.787.883 2.373.52.582 1.188.872 2.003.872.634 0 1.157-.164 1.572-.497.407-.33.871-.945 1.392-1.841l2.149 1.318c-.332.622-.682 1.155-1.053 1.598-.37.445-.764.81-1.188 1.097-.423.285-.878.494-1.369.627-.49.134-1.022.198-1.595.198-1.646 0-2.965-.579-3.961-1.739-.996-1.17-1.492-2.723-1.492-4.654 0-1.918.482-3.467 1.447-4.651.974-1.17 2.263-1.756 3.871-1.756 1.62 0 2.902.569 3.845 1.703.936 1.13 1.404 2.693 1.404 4.691l-.011.661zm-2.612-2.29c-.356-1.494-1.212-2.24-2.569-2.24-.311 0-.601.051-.872.158-.271.101-.518.25-.74.446-.223.193-.413.427-.572.702-.158.273-.279.586-.362.934h5.115z"/></g><g fill="#58595B"><path d="M213.088 139.121h2.545v1.083c.467-.539.882-.906 1.245-1.107.367-.208.805-.312 1.312-.312.671 0 1.373.24 2.104.721l-1.165 2.565c-.482-.382-.954-.573-1.414-.573-1.388 0-2.082 1.15-2.082 3.456v6.284h-2.545v-12.117zM221.508 134.082c0-.488.161-.911.487-1.268.323-.358.712-.535 1.164-.535.46 0 .854.177 1.179.535.324.348.485.775.485 1.28 0 .506-.162.937-.485 1.293-.318.358-.707.536-1.167.536-.46 0-.853-.178-1.175-.536-.327-.356-.488-.79-.488-1.305zm2.931 5.039v12.117h-2.547v-12.117h2.547z"/></g><g fill="#58595B"><path d="M237.559 145.841h-7.897c.066.993.362 1.787.882 2.373.52.582 1.187.872 2.002.872.633 0 1.157-.164 1.572-.497.408-.33.873-.945 1.393-1.841l2.149 1.318c-.331.622-.683 1.155-1.05 1.598-.37.445-.767.81-1.189 1.097-.422.285-.879.494-1.368.627-.491.134-1.023.198-1.595.198-1.645 0-2.966-.579-3.959-1.739-.997-1.17-1.495-2.723-1.495-4.654 0-1.918.482-3.467 1.448-4.651.974-1.17 2.264-1.756 3.87-1.756 1.622 0 2.904.569 3.846 1.703.936 1.13 1.403 2.693 1.403 4.691l-.012.661zm-2.615-2.29c-.355-1.494-1.21-2.24-2.568-2.24-.308 0-.599.051-.872.158-.271.101-.517.25-.74.446-.222.193-.412.427-.569.702-.161.273-.281.586-.364.934h5.113zM242.897 141.733v9.505h-2.545v-9.505h-1.086v-2.612h1.086v-4.44h2.545v4.44h1.98v2.612h-1.98zM260.07 141.187l-2.106 1.231c-.329-.738-.742-1.107-1.231-1.107-.235 0-.435.084-.601.255-.166.168-.249.387-.249.652 0 .465.49.925 1.47 1.379 1.352.639 2.259 1.226 2.727 1.765.468.538.702 1.264.702 2.175 0 1.169-.393 2.146-1.175 2.933-.763.745-1.684 1.117-2.762 1.117-1.847 0-3.155-.989-3.926-2.972l2.172-1.109c.301.582.532.95.691 1.109.309.314.678.472 1.108.472.858 0 1.289-.432 1.289-1.293 0-.496-.332-.963-.995-1.393l-.77-.413-.778-.408c-.742-.399-1.262-.798-1.562-1.194-.384-.508-.578-1.158-.578-1.952 0-1.056.329-1.925.985-2.614.67-.689 1.485-1.033 2.442-1.033 1.412-.002 2.46.799 3.147 2.4zM273.057 145.841h-7.897c.07.993.362 1.787.883 2.373.52.582 1.188.872 2.002.872.634 0 1.158-.164 1.572-.497.408-.33.873-.945 1.392-1.841l2.149 1.318c-.331.622-.682 1.155-1.051 1.598-.37.445-.766.81-1.188 1.097-.422.285-.88.494-1.369.627-.49.134-1.022.198-1.596.198-1.644 0-2.963-.579-3.96-1.739-.995-1.17-1.493-2.723-1.493-4.654 0-1.918.481-3.467 1.447-4.651.973-1.17 2.263-1.756 3.871-1.756 1.622 0 2.902.569 3.845 1.703.936 1.13 1.403 2.693 1.403 4.691l-.01.661zm-2.614-2.29c-.355-1.494-1.21-2.24-2.567-2.24-.309 0-.599.051-.871.158-.271.101-.519.25-.743.446-.221.193-.412.427-.571.702-.159.273-.279.586-.362.934h5.114zM283.895 130.226h2.557v21.013h-2.557v-1.269c-1.003 1.078-2.139 1.616-3.406 1.616-1.509 0-2.76-.605-3.755-1.813-.988-1.236-1.482-2.778-1.482-4.628 0-1.809.494-3.318 1.482-4.53.979-1.221 2.212-1.829 3.699-1.829 1.291 0 2.445.581 3.463 1.744v-10.304zm-6.042 14.919c0 1.159.283 2.105.85 2.835.581.739 1.312 1.106 2.195 1.106.942 0 1.706-.354 2.285-1.068.581-.74.871-1.677.871-2.812s-.29-2.074-.871-2.811c-.58-.724-1.336-1.084-2.263-1.084-.875 0-1.606.364-2.195 1.095-.581.739-.872 1.651-.872 2.739zM297.741 139.121h2.557v12.117h-2.557v-1.269c-1.047 1.078-2.175 1.616-3.382 1.616-1.525 0-2.783-.605-3.78-1.813-.988-1.236-1.48-2.778-1.48-4.628 0-1.819.492-3.332 1.48-4.542.99-1.213 2.227-1.817 3.712-1.817 1.283 0 2.434.581 3.45 1.744v-1.408zm-6.04 6.024c0 1.159.282 2.105.848 2.835.58.739 1.312 1.106 2.194 1.106.942 0 1.705-.354 2.288-1.068.579-.74.87-1.677.87-2.812s-.291-2.074-.87-2.811c-.583-.724-1.338-1.084-2.264-1.084-.876 0-1.607.364-2.197 1.095-.58.739-.869 1.651-.869 2.739zM303.466 139.121h2.558v1.119c.891-.971 1.893-1.455 3.009-1.455 1.282 0 2.283.444 2.998 1.33.618.756.928 1.987.928 3.694v7.429h-2.556v-6.76c0-1.191-.151-2.016-.452-2.472-.295-.464-.831-.696-1.608-.696-.845 0-1.442.308-1.799.92-.345.605-.52 1.659-.52 3.168v5.84h-2.558v-12.117z"/></g><g fill="#58595B"><path d="M327.871 134.755h-3.022l1.449-2.725h4.209v19.208h-2.636v-16.483zM339.059 151.897l-1.935-1.58 4.175-6.259-.577.077-.386.024c-1.408 0-2.632-.594-3.665-1.777-1.025-1.179-1.539-2.598-1.539-4.257 0-1.768.571-3.276 1.71-4.528 1.146-1.26 2.519-1.891 4.117-1.891 1.592 0 2.977.62 4.153 1.865 1.174 1.236 1.764 2.697 1.764 4.379 0 1.493-.573 3.106-1.718 4.839l-6.099 9.108zm-1.357-13.981c0 1.034.319 1.905.962 2.613.647.712 1.428 1.067 2.34 1.067s1.69-.352 2.332-1.056c.648-.715.973-1.573.973-2.578 0-1.002-.324-1.861-.973-2.575-.642-.703-1.424-1.058-2.344-1.058-.903 0-1.678.354-2.317 1.058-.649.715-.973 1.556-.973 2.529z"/></g><g fill="#58595B"><path d="M359.127 134.755h-5.385l-.861 3.172.367-.037.323-.013c1.698 0 3.088.63 4.175 1.893 1.094 1.25 1.642 2.856 1.642 4.812 0 2.025-.618 3.692-1.857 5.001-1.234 1.312-2.794 1.966-4.673 1.966-2.315 0-4.14-1.195-5.476-3.582l1.99-1.853c.552 1.027 1.106 1.753 1.665 2.177.558.414 1.238.622 2.047.622 1.057 0 1.943-.408 2.659-1.221.715-.837 1.076-1.852 1.076-3.048 0-1.227-.356-2.23-1.065-3.012-.709-.803-1.595-1.205-2.66-1.205-1.182 0-2.204.57-3.064 1.705h-.872l2.75-10.103h7.22v2.726zM370.415 134.755h-8.622v-2.725h13.023l-11.021 19.867-2.095-1.454 8.715-15.688z"/></g><path fill="#58595B" d="M372.72 149.847c0-.467.153-.868.463-1.209.309-.339.678-.51 1.106-.51.433 0 .804.171 1.112.51.307.341.462.746.462 1.22 0 .481-.155.893-.462 1.232-.303.333-.674.496-1.112.496-.443 0-.817-.163-1.117-.496-.304-.332-.452-.748-.452-1.243z"/><g fill="#EA1F27"><path d="M189.18 65.966c3.608 0 6.558-5.261 6.558-8.929 0-2.872-2.131-4.944-6.064-4.944-3.117 0-6.886 5.263-6.886 8.771 0 2.709 2.458 5.102 6.392 5.102zM522.606 105.027c-.655 0-1.149.48-1.969 1.277-2.128 2.07-4.588 3.666-7.375 3.666-3.771 0-6.721-3.666-6.721-11.958 4.424-4.464 8.523-11.637 8.523-17.22 0-3.347-2.132-6.217-6.886-6.217-3.441 0-6.555 1.913-9.016 4.623-2.297-3.189-5.243-5.421-11.312-5.421-14.119 0-25.728 8.931-28.841 20.953-5.122 7.368-11.53 14.123-18.533 14.123-3.774 0-5.903-2.551-5.903-6.855 0-8.61 6.067-23.437 8.855-35.555h12.621c1.148 0 3.115-2.231 3.115-3.029 0-.479-.327-.638-.654-.638h-14.1c.492-3.029.819-6.377.819-9.247 0-3.189-6.722-7.655-9.999-7.655-.82 0-1.312.639-1.312 1.597 0 1.115.653 2.231.653 4.622 0 4.465-.983 7.815-1.801 10.684h-5.412c-1.146 0-2.787 2.233-2.787 3.029 0 .479.331.638.658.638h6.391c-3.051 9.022-9.117 17.959-12.32 26.523-.172.17-.318.371-.463.581-5.245 7.811-11.801 14.988-17.373 14.988-3.445 0-5.082-2.075-5.082-5.104 0-5.103 5.573-14.508 5.573-20.885 0-4.945-2.624-8.771-10.164-8.771-8.688 0-18.853 9.726-23.607 16.9.494-2.232 1.145-6.376 1.145-9.886 0-3.827-5.734-9.088-9.67-9.088-1.146 0-1.966.796-1.966 1.755 0 .956.819 1.912.819 4.623 0 4.851-2.908 9.947-5.508 15.61-5.243 7.774-13.076 16.278-23.506 16.278-6.067 0-10.001-4.145-10.001-10.206 7.704-2.709 20.822-9.404 20.822-18.811 0-3.668-2.462-7.175-10.003-7.175-13.849 0-25.707 10.047-27.965 22.73-4.838 6.642-10.446 12.346-15.308 12.346-2.462 0-5.083-1.594-5.083-5.102 0-7.812 6.395-15.466 6.395-22.321 0-4.306-2.295-7.653-9.344-7.653-8.034 0-19.179 8.45-26.558 19.451 1.148-3.347 2.786-8.769 2.786-11.798 0-4.624-2.131-7.653-8.359-7.653-10 0-20.657 9.564-26.065 19.132 0 0 2.132-6.377 2.132-11.639 0-4.464-5.575-9.566-9.836-9.566-1.147 0-1.804.636-1.804 1.437 0 1.114.984 2.39.984 4.303 0 5.621-3.234 11.243-6.082 17.087-5.178 7.472-12.033 14.641-17.688 14.641-3.114 0-5.246-1.593-5.246-4.784 0-8.607 5.083-15.302 5.083-19.928 0-4.146-1.804-6.698-4.753-8.928-.821-.638-2.788-1.755-3.607-1.755s-1.477.478-1.477 1.274c0 .8.657 1.277.657 4.784 0 4.155-5.551 9.886-9.04 16.882-5.016 6.332-11.426 11.181-17.352 11.181-6.065 0-9.18-4.466-9.18-11.162 0-4.944.49-9.09.49-9.09 16.067-14.827 35.737-40.813 35.737-53.409 0-4.625-3.441-7.813-8.688-7.813-7.541 0-17.705 6.219-28.032 23.278-9.997 16.406-14.18 34.675-14.553 46.158-4.91 6.858-10.59 12.674-15.607 12.674-6.557 0-7.541-7.016-7.541-18.813 0-17.379 6.721-38.901 11.476-50.541 3.114-7.654 4.59-10.364 4.59-12.756 0-2.231-7.377-4.942-10.328-4.942-2.788 0-3.934.797-5.738 3.348-8.853 12.596-19.18 28.699-28.195 42.41-6.88-8.926-16.717-16.418-29.667-16.418-12.624 0-22.46 8.928-22.46 20.566 0 10.841 9.345 15.784 16.558 15.784 1.147 0 1.64-.319 1.64-.796 0-.479-.328-.641-.82-.641-4.261-.318-8.359-4.303-8.359-9.725 0-9.565 8.687-12.595 16.392-12.595 9.506 0 17.212 3.348 23.441 8.927-16.392 24.234-31.638 40.977-49.016 40.977-7.54 0-11.311-3.987-11.311-10.524 0-5.26 4.918-8.769 8.198-9.086.82-.159 1.147-.32 1.147-.799 0-.319-.327-.637-1.147-.637-8.688 0-18.198 7.334-18.198 18.336 0 9.723 7.214 19.608 21.968 19.608 3.335 0 6.576-.788 9.728-2.199 2.607-1.166 5.15-2.771 7.632-4.711 13.241-10.358 24.703-30.496 34.441-47.298 5.083 6.059 8.853 13.873 11.476 22.799 3.117 11.162 6.556 18.496 16.884 18.496 8.926 0 16.931-9.172 22.86-17.586.766 13.396 8.599 17.586 17.627 17.586 8.28 0 15.672-6.436 21.441-13.469-.188 1.066-.293 2.153-.293 3.265 0 5.581 4.098 10.204 13.441 10.204 8.212 0 16.065-7.094 22.057-14.526-.561 1.988-.912 4.011-.912 6.076 0 5.899 5.903 8.45 10.491 8.45 1.968 0 3.607-1.115 3.607-3.507 0-4.625 2.459-11.002 5.738-17.381 5.408-10.682 15.409-17.537 18.687-17.537 2.132 0 2.789 1.116 2.789 3.188 0 6.378-10.001 14.827-10.001 27.264 0 5.422 7.213 7.973 10.821 7.973 2.95 0 4.588-1.115 4.588-2.871 0-5.42.984-11.479 4.919-18.017 6.064-10.041 15.736-17.059 18.522-17.059 1.805 0 2.952.797 2.952 2.87 0 5.26-9.835 12.755-9.835 24.234 0 6.062 4.098 10.843 12.951 10.843 9.686 0 17.801-8.334 23.768-16.402.011 11.626 7.875 16.402 19.179 16.402 12.622 0 22.411-8.073 28.968-16.019-.665 2.364-1.103 4.824-1.103 7.409 0 6.856 4.917 8.609 8.196 8.609 3.608 0 6.723-1.115 6.723-3.507 0-5.581 2.133-14.19 4.593-18.655 4.915-8.928 14.259-16.262 18.355-16.262 2.625 0 3.607 1.594 3.607 3.507 0 4.941-10.489 13.87-10.489 24.234 0 6.379 4.588 10.683 12.621 10.683 10.061 0 18.81-9.497 24.929-18.03-.206 1.236-.343 2.465-.343 3.681 0 8.61 5.411 14.35 15.247 14.35 10.341 0 19.522-9.251 25.789-17.694-.031.526-.052 1.056-.052 1.589 0 11.482 7.374 16.105 16.72 16.105 8.69 0 15.083-7.175 18.032-11.162 1.312 6.221 5.739 11.162 13.442 11.162 7.541 0 11.477-4.304 15.574-8.93 1.147-1.274 1.475-1.911 1.475-2.549.001-.475-.326-.797-.819-.797zm-189.664-26.624c2.461 0 3.769 1.593 3.769 3.825 0 5.902-10.323 12.595-17.211 14.667 0-9.086 7.049-18.492 13.442-18.492zm-177.529-22.321c7.378-14.668 14.097-21.047 17.211-21.047 1.642 0 2.624 1.436 2.624 2.871 0 9.088-18.36 33.003-30.655 44.96 0 0 3.608-12.435 10.82-26.784zm-66.389 32.364c-1.966-4.783-4.919-11.001-8.852-17.059 8.524-13.712 17.378-27.901 21.967-35.077l.982.479c-3.934 10.203-12.457 33.162-14.097 51.657zm403.256 14.67c-3.28 4.304-6.887 7.971-10.657 7.971-3.77 0-6.065-3.348-6.065-9.567 0-12.913 7.376-24.234 15.409-24.234 3.116 0 4.918 1.275 6.395 3.668-3.77 5.579-5.082 15.147-5.082 22.162z"/></g></g><g transform="translate(1240)"><g fill="#fff"><path d="M75.934 144.744l-2.233 1.324c-.418-.725-.815-1.197-1.193-1.418-.395-.252-.902-.379-1.525-.379-.764 0-1.398.217-1.902.65-.505.426-.757.963-.757 1.609 0 .891.662 1.609 1.986 2.152l1.819.746c1.481.598 2.565 1.33 3.251 2.193s1.028 1.922 1.028 3.176c0 1.68-.56 3.066-1.679 4.164-1.127 1.104-2.525 1.654-4.196 1.654-1.583 0-2.892-.471-3.924-1.412-1.016-.941-1.65-2.264-1.902-3.965l2.789-.615c.126 1.072.347 1.812.662 2.223.567.787 1.395 1.182 2.481 1.182.859 0 1.572-.287 2.14-.861.567-.576.851-1.303.851-2.186 0-.354-.049-.68-.147-.975s-.252-.566-.461-.814-.479-.48-.81-.697-.725-.424-1.182-.619l-1.762-.732c-2.497-1.055-3.746-2.6-3.746-4.631 0-1.369.523-2.516 1.572-3.436 1.048-.93 2.352-1.395 3.912-1.395 2.103.002 3.746 1.023 4.928 3.062zM81.865 151.258v9.029h-2.659v-9.029h-1.135v-2.482h1.135v-4.219h2.659v4.219h2.068v2.482h-2.068zM85.125 154.449c0-1.664.595-3.078 1.785-4.244 1.189-1.166 2.639-1.75 4.349-1.75 1.718 0 3.176.588 4.373 1.762 1.183 1.174 1.773 2.617 1.773 4.326 0 1.725-.595 3.172-1.785 4.338-1.197 1.158-2.667 1.736-4.408 1.736-1.726 0-3.172-.59-4.338-1.771-1.166-1.166-1.749-2.633-1.749-4.397zm2.719.047c0 1.15.307 2.061.922 2.73.63.678 1.461 1.016 2.493 1.016 1.04 0 1.872-.334 2.494-1.004s.934-1.564.934-2.684-.312-2.014-.934-2.684c-.631-.678-1.462-1.016-2.494-1.016-1.016 0-1.84.338-2.47 1.016-.631.679-.945 1.554-.945 2.626zM109.08 149.271v3.533c-.606-.74-1.15-1.248-1.631-1.523-.473-.283-1.028-.426-1.666-.426-1.001 0-1.832.35-2.494 1.051-.662.703-.993 1.58-.993 2.637 0 1.08.319 1.967.958 2.658.646.695 1.469 1.041 2.47 1.041.639 0 1.201-.139 1.69-.414.473-.268 1.028-.787 1.666-1.561v3.512c-1.079.559-2.159.838-3.238.838-1.78 0-3.27-.574-4.468-1.725-1.197-1.158-1.796-2.596-1.796-4.314 0-1.717.606-3.168 1.819-4.35 1.214-1.182 2.703-1.773 4.468-1.773 1.135 0 2.206.274 3.215.816z"/></g><g fill="#fff"><path d="M114.58 140.324v12.174l3.747-3.723h3.569l-4.999 4.834 5.365 6.678h-3.451l-3.806-4.857-.426.426v4.432h-2.659v-19.963h2.66zM123.952 140.324h2.659v9.408c.946-.852 1.99-1.277 3.133-1.277 1.3 0 2.34.422 3.12 1.266.662.732.992 1.902.992 3.51v7.057h-2.659v-6.809c0-.922-.163-1.59-.49-2.002-.327-.414-.853-.621-1.578-.621-.93 0-1.583.287-1.962.863-.37.582-.556 1.584-.556 3.002v5.566h-2.659v-19.963zM136.657 154.449c0-1.664.595-3.078 1.785-4.244 1.189-1.166 2.639-1.75 4.349-1.75 1.718 0 3.176.588 4.373 1.762 1.183 1.174 1.773 2.617 1.773 4.326 0 1.725-.595 3.172-1.785 4.338-1.197 1.158-2.667 1.736-4.408 1.736-1.726 0-3.172-.59-4.338-1.771-1.166-1.166-1.749-2.633-1.749-4.397zm2.719.047c0 1.15.307 2.061.922 2.73.63.678 1.461 1.016 2.493 1.016 1.04 0 1.872-.334 2.494-1.004s.934-1.564.934-2.684-.312-2.014-.934-2.684c-.631-.678-1.462-1.016-2.494-1.016-1.016 0-1.84.338-2.47 1.016-.631.679-.945 1.554-.945 2.626zM154.385 140.324v19.963h-2.659v-19.963h2.659z"/></g><g fill="#fff"><path d="M157.451 148.775h2.659v1.062c.513-.535.95-.896 1.312-1.086.386-.197.87-.297 1.453-.297 1.301 0 2.329.568 3.085 1.703.835-1.135 1.966-1.703 3.393-1.703 2.592 0 3.889 1.572 3.889 4.717v7.115h-2.672v-6.395c0-1.104-.134-1.883-.401-2.34-.276-.465-.729-.697-1.359-.697-.732 0-1.267.275-1.602.826-.335.553-.502 1.439-.502 2.66v5.945h-2.671v-6.359c0-2.049-.592-3.072-1.773-3.072-.748 0-1.294.279-1.637.84-.343.559-.515 1.441-.515 2.646v5.945h-2.659v-11.51zM183.07 150.736l-2.198 1.17c-.347-.701-.776-1.051-1.288-1.051-.245 0-.453.08-.627.242-.173.16-.26.367-.26.619 0 .441.512.877 1.536 1.311 1.411.605 2.36 1.164 2.849 1.676s.732 1.201.732 2.066c0 1.109-.409 2.039-1.229 2.785-.796.709-1.758 1.062-2.884 1.062-1.931 0-3.298-.941-4.102-2.824l2.27-1.053c.314.553.556.902.721 1.053.323.299.709.449 1.158.449.898 0 1.348-.41 1.348-1.229 0-.473-.347-.914-1.04-1.324l-.804-.391-.815-.389c-.772-.379-1.316-.758-1.631-1.135-.402-.48-.604-1.1-.604-1.855 0-1.002.343-1.828 1.028-2.482.701-.654 1.553-.982 2.553-.982 1.475.001 2.571.763 3.287 2.282z"/></g><g fill="#fff"><path d="M188.866 140.324v9.787c1.064-1.104 2.27-1.656 3.617-1.656 1.552 0 2.844.58 3.877 1.738 1.031 1.15 1.548 2.584 1.548 4.303 0 1.771-.521 3.238-1.561 4.396-1.032 1.15-2.336 1.725-3.912 1.725-1.331 0-2.521-.512-3.569-1.535v1.205h-2.659v-19.963h2.659zm6.323 14.289c0-1.104-.299-2-.897-2.693-.607-.711-1.367-1.064-2.281-1.064-.978 0-1.773.342-2.388 1.027-.606.678-.91 1.561-.91 2.648 0 1.119.3 2.014.898 2.684.599.686 1.387 1.027 2.363 1.027.922 0 1.687-.342 2.293-1.027.616-.694.922-1.561.922-2.602zM209.135 148.775h2.671v11.512h-2.671v-1.205c-1.096 1.023-2.273 1.535-3.534 1.535-1.592 0-2.907-.574-3.947-1.725-1.032-1.174-1.548-2.641-1.548-4.396 0-1.727.516-3.164 1.548-4.314s2.324-1.727 3.877-1.727c1.339 0 2.541.553 3.604 1.656v-1.336zm-6.312 5.721c0 1.104.296 2 .887 2.693.606.703 1.371 1.053 2.293 1.053.984 0 1.78-.338 2.388-1.016.606-.701.91-1.592.91-2.672s-.304-1.971-.91-2.672c-.607-.686-1.396-1.027-2.364-1.027-.914 0-1.679.346-2.293 1.039-.607.704-.911 1.569-.911 2.602zM226.224 160.016c0 .543-.019 1.021-.054 1.436s-.085.777-.147 1.094c-.189.865-.56 1.611-1.111 2.232-1.04 1.199-2.47 1.797-4.29 1.797-1.536 0-2.801-.416-3.794-1.246-1.024-.855-1.615-2.035-1.772-3.541h2.671c.102.568.271 1.006.508 1.312.552.717 1.355 1.076 2.411 1.076 1.946 0 2.919-1.189 2.919-3.57v-1.607c-1.056 1.08-2.272 1.619-3.651 1.619-1.568 0-2.853-.566-3.854-1.701-1.009-1.15-1.513-2.588-1.513-4.314 0-1.678.469-3.104 1.406-4.277 1.009-1.246 2.341-1.869 3.995-1.869 1.45 0 2.655.541 3.616 1.621v-1.301h2.66v11.239zm-2.554-5.455c0-1.117-.299-2.01-.897-2.678-.607-.686-1.383-1.027-2.329-1.027-1.009 0-1.804.373-2.387 1.121-.528.668-.792 1.533-.792 2.596 0 1.047.264 1.904.792 2.572.574.732 1.371 1.098 2.387 1.098 1.017 0 1.82-.369 2.411-1.109.543-.669.815-1.527.815-2.573zM239.967 155.158h-8.25c.071.945.379 1.697.922 2.256.544.553 1.241.828 2.092.828.662 0 1.21-.158 1.644-.473.425-.314.91-.898 1.453-1.75l2.246 1.254c-.347.59-.713 1.098-1.1 1.518-.386.422-.8.77-1.24 1.041-.441.271-.919.471-1.431.596-.512.127-1.067.189-1.666.189-1.718 0-3.097-.551-4.137-1.654-1.04-1.111-1.561-2.584-1.561-4.42 0-1.82.504-3.293 1.513-4.42 1.017-1.111 2.364-1.668 4.042-1.668 1.694 0 3.034.541 4.019 1.621.978 1.07 1.467 2.557 1.467 4.455l-.013.627zm-2.731-2.176c-.37-1.418-1.265-2.127-2.683-2.127-.323 0-.627.049-.91.148-.283.098-.542.24-.774.424-.232.186-.431.408-.597.668-.165.26-.292.557-.378.887h5.342z"/></g><g fill="#fff"><path d="M242.703 148.775h2.659v1.027c.488-.512.922-.861 1.301-1.051.385-.197.843-.297 1.371-.297.701 0 1.434.23 2.197.686l-1.217 2.436c-.504-.361-.997-.543-1.478-.543-1.45 0-2.175 1.094-2.175 3.285v5.969h-2.659v-11.512zM251.5 143.988c0-.465.169-.867.509-1.205.338-.34.744-.508 1.217-.508.48 0 .891.168 1.229.508.339.33.508.736.508 1.217s-.169.891-.508 1.229c-.331.34-.737.51-1.218.51s-.891-.17-1.229-.51c-.339-.338-.508-.752-.508-1.241zm3.062 4.787v11.512h-2.66v-11.512h2.66z"/></g><g fill="#fff"><path d="M268.267 155.158h-8.25c.07.945.379 1.697.922 2.256.543.553 1.241.828 2.092.828.662 0 1.209-.158 1.643-.473.426-.314.91-.898 1.454-1.75l2.245 1.254c-.346.59-.713 1.098-1.099 1.518-.386.422-.8.77-1.241 1.041s-.918.471-1.43.596c-.512.127-1.068.189-1.666.189-1.719 0-3.098-.551-4.137-1.654-1.041-1.111-1.561-2.584-1.561-4.42 0-1.82.504-3.293 1.513-4.42 1.017-1.111 2.364-1.668 4.042-1.668 1.694 0 3.033.541 4.019 1.621.978 1.07 1.466 2.557 1.466 4.455l-.012.627zm-2.731-2.176c-.371-1.418-1.265-2.127-2.684-2.127-.322 0-.626.049-.91.148-.283.098-.541.24-.773.424-.232.186-.432.408-.597.668s-.292.557-.378.887h5.342zM273.843 151.258v9.029h-2.658v-9.029h-1.135v-2.482h1.135v-4.219h2.658v4.219h2.068v2.482h-2.068zM291.781 150.736l-2.199 1.17c-.346-.701-.775-1.051-1.287-1.051-.244 0-.453.08-.627.242-.174.16-.26.367-.26.619 0 .441.512.877 1.537 1.311 1.41.605 2.359 1.164 2.848 1.676s.732 1.201.732 2.066c0 1.109-.41 2.039-1.229 2.785-.797.709-1.758 1.062-2.885 1.062-1.93 0-3.297-.941-4.1-2.824l2.268-1.053c.316.553.557.902.723 1.053.322.299.709.449 1.158.449.896 0 1.346-.41 1.346-1.229 0-.473-.346-.914-1.039-1.324l-.805-.391-.814-.389c-.773-.379-1.316-.758-1.631-1.135-.402-.48-.604-1.1-.604-1.855 0-1.002.344-1.828 1.029-2.482.701-.654 1.551-.982 2.553-.982 1.474.001 2.569.763 3.286 2.282zM305.348 155.158h-8.248c.07.945.377 1.697.922 2.256.543.553 1.24.828 2.092.828.662 0 1.209-.158 1.643-.473.426-.314.91-.898 1.453-1.75l2.246 1.254c-.348.59-.713 1.098-1.1 1.518-.387.422-.799.77-1.24 1.041s-.918.471-1.43.596c-.514.127-1.068.189-1.668.189-1.717 0-3.096-.551-4.137-1.654-1.039-1.111-1.559-2.584-1.559-4.42 0-1.82.504-3.293 1.512-4.42 1.018-1.111 2.363-1.668 4.043-1.668 1.693 0 3.033.541 4.018 1.621.977 1.07 1.467 2.557 1.467 4.455l-.014.627zm-2.729-2.176c-.371-1.418-1.266-2.127-2.684-2.127-.324 0-.627.049-.91.148-.283.098-.541.24-.773.424-.232.186-.432.408-.598.668s-.291.557-.379.887h5.344zM316.67 140.324h2.67v19.963h-2.67v-1.205c-1.049 1.023-2.234 1.535-3.559 1.535-1.576 0-2.883-.574-3.924-1.725-1.031-1.174-1.547-2.641-1.547-4.396 0-1.719.516-3.152 1.547-4.303 1.025-1.158 2.312-1.738 3.865-1.738 1.348 0 2.553.553 3.617 1.656v-9.787zm-6.313 14.172c0 1.104.297 2 .887 2.693.607.703 1.371 1.053 2.293 1.053.984 0 1.781-.338 2.389-1.016.605-.701.91-1.592.91-2.672s-.305-1.971-.91-2.672c-.607-.686-1.396-1.027-2.365-1.027-.914 0-1.678.346-2.293 1.039-.606.704-.911 1.569-.911 2.602zM331.135 148.775h2.672v11.512h-2.672v-1.205c-1.096 1.023-2.273 1.535-3.533 1.535-1.592 0-2.908-.574-3.947-1.725-1.033-1.174-1.549-2.641-1.549-4.396 0-1.727.516-3.164 1.549-4.314 1.031-1.15 2.324-1.727 3.875-1.727 1.34 0 2.541.553 3.605 1.656v-1.336zm-6.311 5.721c0 1.104.295 2 .885 2.693.607.703 1.371 1.053 2.293 1.053.986 0 1.781-.338 2.389-1.016.605-.701.91-1.592.91-2.672s-.305-1.971-.91-2.672c-.607-.686-1.395-1.027-2.363-1.027-.916 0-1.68.346-2.293 1.039-.608.704-.911 1.569-.911 2.602zM337.113 148.775h2.672v1.062c.93-.922 1.979-1.383 3.145-1.383 1.338 0 2.383.422 3.131 1.266.646.717.969 1.887.969 3.51v7.057h-2.67v-6.422c0-1.133-.158-1.916-.473-2.35-.307-.439-.867-.66-1.678-.66-.883 0-1.51.291-1.881.873-.361.574-.543 1.578-.543 3.01v5.549h-2.672v-11.512z"/></g><g fill="#fff"><path d="M362.607 144.627h-3.156l1.514-2.588h4.396v18.248h-2.754v-15.66zM374.295 160.914l-2.021-1.502 4.361-5.945-.604.072-.4.023c-1.475 0-2.75-.564-3.83-1.691-1.072-1.117-1.607-2.465-1.607-4.041 0-1.68.596-3.113 1.785-4.303 1.197-1.197 2.631-1.797 4.301-1.797 1.664 0 3.109.592 4.338 1.773 1.23 1.174 1.844 2.561 1.844 4.16 0 1.418-.598 2.951-1.795 4.598l-6.372 8.653zm-1.418-13.285c0 .984.334 1.812 1.004 2.482.678.678 1.494 1.016 2.447 1.016s1.764-.334 2.434-1.004c.678-.678 1.018-1.494 1.018-2.447s-.34-1.77-1.018-2.447c-.67-.668-1.484-1.004-2.445-1.004-.945 0-1.754.336-2.424 1.004-.678.677-1.016 1.478-1.016 2.4z"/></g><g fill="#fff"><path d="M395.258 144.627h-5.625l-.898 3.014.383-.035.338-.012c1.773 0 3.227.598 4.361 1.797 1.143 1.189 1.713 2.713 1.713 4.572 0 1.924-.646 3.508-1.938 4.752-1.293 1.246-2.92 1.867-4.881 1.867-2.42 0-4.326-1.135-5.721-3.404l2.08-1.76c.574.977 1.154 1.666 1.736 2.068.584.393 1.297.59 2.141.59 1.102 0 2.027-.385 2.777-1.158.748-.795 1.123-1.76 1.123-2.895 0-1.166-.371-2.121-1.111-2.861-.74-.764-1.666-1.146-2.777-1.146-1.238 0-2.305.541-3.203 1.619h-.91l2.871-9.596h7.541v2.588zM407.049 144.627h-9.006v-2.588h13.604l-11.512 18.875-2.186-1.383 9.1-14.904z"/></g><path fill="#fff" d="M409.455 158.963c0-.441.162-.822.484-1.146.324-.322.711-.484 1.158-.484.449 0 .836.162 1.16.484.322.324.484.709.484 1.158 0 .457-.162.848-.484 1.17-.316.316-.703.473-1.16.473-.465 0-.854-.156-1.17-.473-.314-.315-.472-.709-.472-1.182z"/><path d="M93.788 46.031l-.891-.446c-4.159 6.685-12.182 19.907-19.906 32.682 3.564 5.646 6.239 11.438 8.021 15.896 1.486-17.233 9.211-38.626 12.776-48.132z" fill="none"/><path fill="#fff" d="M576.385 126.643h-525.236c-2.199 1.811-4.453 3.303-6.764 4.391h531.999v-4.391z"/><g fill="#fff"><path d="M171.775 73.216c3.268 0 5.941-4.902 5.941-8.319 0-2.674-1.931-4.605-5.496-4.605-2.822 0-6.238 4.902-6.238 8.172 0 2.524 2.228 4.752 5.793 4.752zM473.928 109.611c-.596 0-1.041.447-1.783 1.191-1.932 1.93-4.158 3.416-6.686 3.416-3.418 0-6.09-3.416-6.09-11.143 4.01-4.16 7.725-10.845 7.725-16.045 0-3.119-1.932-5.793-6.24-5.793-3.119 0-5.941 1.782-8.17 4.309-2.08-2.973-4.754-5.051-10.25-5.051-12.795 0-23.315 8.321-26.138 19.522-4.64 6.865-10.449 13.159-16.796 13.159-3.416 0-5.348-2.377-5.348-6.389 0-8.021 5.498-21.837 8.023-33.128h11.438c1.041 0 2.822-2.079 2.822-2.821 0-.447-.295-.595-.592-.595h-12.777c.447-2.823.742-5.942.742-8.616 0-2.972-6.09-7.131-9.061-7.131-.744 0-1.189.594-1.189 1.485 0 1.04.594 2.08.594 4.308 0 4.16-.891 7.28-1.633 9.954h-4.902c-1.039 0-2.525 2.08-2.525 2.822 0 .446.297.594.594.594h5.793c-2.766 8.406-8.261 16.733-11.165 24.714-.155.158-.289.347-.419.541-4.754 7.279-10.695 13.965-15.746 13.965-3.121 0-4.605-1.932-4.605-4.754 0-4.754 5.051-13.519 5.051-19.461 0-4.605-2.377-8.171-9.211-8.171-7.873 0-17.084 9.062-21.393 15.746.447-2.079 1.039-5.94 1.039-9.21 0-3.564-5.197-8.467-8.764-8.467-1.039 0-1.783.742-1.783 1.634s.744 1.782.744 4.308c0 4.52-2.635 9.268-4.99 14.541-4.752 7.244-11.852 15.172-21.303 15.172-5.496 0-9.062-3.863-9.062-9.51 6.982-2.523 18.867-8.764 18.867-17.528 0-3.417-2.229-6.685-9.062-6.685-12.549 0-23.294 9.36-25.343 21.179-4.382 6.188-9.465 11.503-13.871 11.503-2.229 0-4.605-1.486-4.605-4.754 0-7.279 5.794-14.41 5.794-20.797 0-4.012-2.08-7.132-8.468-7.132-7.28 0-17.382 7.873-24.066 18.124 1.04-3.119 2.525-8.171 2.525-10.992 0-4.309-1.932-7.132-7.576-7.132-9.062 0-18.718 8.913-23.62 17.827 0 0 1.931-5.943 1.931-10.846 0-4.158-5.051-8.912-8.913-8.912-1.04 0-1.634.594-1.634 1.337 0 1.04.892 2.228.892 4.011 0 5.236-2.929 10.472-5.51 15.916-4.693 6.963-10.905 13.646-16.03 13.646-2.821 0-4.754-1.486-4.754-4.457 0-8.021 4.606-14.261 4.606-18.568 0-3.863-1.635-6.24-4.309-8.319-.742-.595-2.525-1.634-3.269-1.634-.742 0-1.337.445-1.337 1.188 0 .743.595 1.189.595 4.457 0 3.871-5.031 9.211-8.192 15.729-4.546 5.899-10.354 10.417-15.724 10.417-5.496 0-8.319-4.16-8.319-10.398 0-4.607.445-8.469.445-8.469 14.559-13.816 32.385-38.03 32.385-49.766 0-4.309-3.119-7.279-7.873-7.279-6.833 0-16.044 5.793-25.402 21.688-9.059 15.285-12.849 32.308-13.188 43.007-4.45 6.39-9.597 11.811-14.143 11.811-5.942 0-6.834-6.537-6.834-17.53 0-16.192 6.091-36.247 10.399-47.092 2.821-7.131 4.158-9.656 4.158-11.884 0-2.08-6.684-4.606-9.357-4.606-2.526 0-3.566.743-5.2 3.12-8.022 11.736-17.381 26.74-25.551 39.516-6.239-8.318-15.153-15.301-26.89-15.301-11.438 0-20.352 8.319-20.352 19.163 0 10.103 8.468 14.707 15.004 14.707 1.04 0 1.486-.297 1.486-.743 0-.445-.297-.594-.743-.594-3.862-.297-7.576-4.011-7.576-9.062 0-8.912 7.873-11.734 14.855-11.734 8.615 0 15.599 3.119 21.242 8.318-14.854 22.58-28.67 38.18-44.418 38.18-6.833 0-10.25-3.715-10.25-9.807 0-4.9 4.457-8.17 7.429-8.467.742-.146 1.04-.297 1.04-.742 0-.297-.298-.594-1.04-.594-7.873 0-16.49 6.834-16.49 17.084 0 9.061 6.537 18.271 19.907 18.271 3.022 0 5.96-.736 8.815-2.051 2.362-1.088 4.667-2.58 6.917-4.391 11.998-9.65 22.386-28.412 31.21-44.068 4.606 5.646 8.022 12.926 10.399 21.244 2.823 10.4 5.941 17.232 15.301 17.232 8.084 0 15.334-8.538 20.707-16.374.693 12.48 7.799 16.374 15.982 16.374 7.504 0 14.201-5.995 19.429-12.548-.171.993-.266 2.007-.266 3.04 0 5.199 3.715 9.508 12.182 9.508 7.441 0 14.558-6.61 19.988-13.535-.51 1.853-.827 3.737-.827 5.662 0 5.496 5.349 7.873 9.508 7.873 1.783 0 3.27-1.039 3.27-3.268 0-4.309 2.228-10.25 5.198-16.193 4.902-9.953 13.964-16.34 16.936-16.34 1.931 0 2.525 1.039 2.525 2.971 0 5.941-9.062 13.816-9.062 25.402 0 5.051 6.536 7.428 9.804 7.428 2.675 0 4.16-1.039 4.16-2.674 0-5.051.891-10.695 4.457-16.787 5.496-9.358 14.261-15.896 16.786-15.896 1.635 0 2.674.743 2.674 2.674 0 4.903-8.912 11.886-8.912 22.581 0 5.645 3.713 10.102 11.735 10.102 8.777 0 16.131-7.764 21.538-15.28.009 10.83 7.137 15.28 17.38 15.28 11.438 0 20.308-7.521 26.251-14.923-.604 2.201-.999 4.492-.999 6.901 0 6.389 4.457 8.021 7.428 8.021 3.27 0 6.092-1.039 6.092-3.268 0-5.199 1.932-13.221 4.16-17.381 4.455-8.32 12.924-15.152 16.637-15.152 2.379 0 3.268 1.484 3.268 3.268 0 4.604-9.506 12.924-9.506 22.58 0 5.943 4.158 9.953 11.438 9.953 9.116 0 17.046-8.849 22.593-16.798-.188 1.151-.312 2.296-.312 3.429 0 8.021 4.902 13.369 13.816 13.369 9.371 0 17.692-8.618 23.37-16.485-.029.49-.048.983-.048 1.481 0 10.695 6.684 15.004 15.152 15.004 7.875 0 13.668-6.686 16.342-10.398 1.188 5.793 5.199 10.398 12.182 10.398 6.834 0 10.398-4.01 14.111-8.318 1.041-1.189 1.338-1.783 1.338-2.377 0-.442-.297-.741-.742-.741zm-171.875-24.807c2.229 0 3.416 1.485 3.416 3.565 0 5.496-9.357 11.736-15.598 13.666 0-8.467 6.389-17.231 12.182-17.231zm-160.878-20.798c6.685-13.668 12.775-19.609 15.598-19.609 1.486 0 2.377 1.337 2.377 2.674 0 8.469-16.638 30.752-27.78 41.893-.001-.001 3.269-11.589 9.805-24.958zm-60.163 30.156c-1.781-4.457-4.456-10.25-8.021-15.896 7.725-12.774 15.747-25.997 19.906-32.682l.891.446c-3.565 9.507-11.29 30.9-12.776 48.132zm365.433 13.668c-2.973 4.01-6.24 7.428-9.658 7.428-3.416 0-5.496-3.119-5.496-8.914 0-12.032 6.686-22.58 13.965-22.58 2.822 0 4.457 1.188 5.795 3.417-3.418 5.198-4.606 14.112-4.606 20.649z"/></g><g fill="#fff"><path d="M474.139 53.934l51.113-50.508v50.508zM482.088 62.26h15.611v15.612h-15.611zM501.863 62.26h15.611v15.612h-15.611zM482.088 81.775h15.611v15.611h-15.611zM501.863 81.775h15.611v15.611h-15.611zM525.252 53.934v67.131h51.027v-67.131h-51.027zm23.432 43.453h-15.611v-15.612h15.611v15.612zm0-19.515h-15.611v-15.612h15.611v15.612zm19.775 19.515h-15.611v-15.612h15.611v15.612zm0-19.515h-15.611v-15.612h15.611v15.612z"/></g><g fill="#fff"><path d="M482.807 141.736v15.9h5.404v2.65h-8.268v-18.551h2.864zM501.488 148.574v11.713h-2.703v-1.219c-.123.141-.283.305-.477.49-.195.186-.438.357-.729.516-.291.16-.633.297-1.021.412-.389.113-.83.172-1.324.172-.9 0-1.701-.178-2.398-.531-.697-.352-1.289-.82-1.775-1.404-.486-.582-.857-1.244-1.113-1.986s-.385-1.512-.385-2.307.125-1.562.371-2.305c.248-.742.615-1.4 1.1-1.975.486-.574 1.082-1.033 1.789-1.379.707-.344 1.52-.516 2.439-.516.211 0 .463.018.754.053.293.035.598.111.914.225.318.115.637.287.955.518s.617.529.9.9v-1.377h2.703zm-5.83 2.119c-.494 0-.945.098-1.352.291-.406.195-.75.465-1.033.809-.283.346-.504.746-.662 1.207-.16.459-.238.953-.238 1.482 0 .496.074.969.225 1.418.15.451.361.848.637 1.193.273.344.613.619 1.02.82.406.205.875.305 1.404.305 1.043 0 1.852-.357 2.426-1.072.572-.715.861-1.611.861-2.689 0-.637-.094-1.188-.279-1.656s-.428-.857-.729-1.166-.648-.543-1.047-.703c-.397-.159-.809-.239-1.233-.239zM524.939 146.082c-.494-.477-.984-.852-1.471-1.125s-.949-.482-1.391-.623-.848-.23-1.219-.266-.682-.053-.928-.053c-1.008 0-1.922.178-2.744.529-.82.354-1.52.844-2.092 1.471-.576.629-1.021 1.375-1.34 2.24-.316.865-.477 1.811-.477 2.836 0 .988.164 1.902.49 2.742s.781 1.568 1.365 2.186c.582.619 1.281 1.105 2.094 1.459s1.713.529 2.703.529c.211 0 .494-.018.848-.053s.75-.129 1.191-.279c.441-.148.916-.365 1.418-.648.504-.283 1.021-.672 1.551-1.166v3.393c-.141.088-.357.211-.648.371-.293.158-.65.312-1.074.463s-.918.283-1.484.398c-.564.113-1.191.172-1.881.172-.406 0-.861-.027-1.365-.08s-1.043-.172-1.615-.357c-.574-.186-1.166-.445-1.775-.781-.611-.336-1.215-.787-1.816-1.352-.9-.865-1.621-1.869-2.16-3.008-.539-1.141-.807-2.469-.807-3.988 0-.602.047-1.219.145-1.855s.266-1.264.504-1.881c.238-.619.543-1.229.914-1.83.371-.6.84-1.166 1.404-1.695.971-.936 2.014-1.58 3.127-1.934s2.307-.531 3.578-.531c1.201 0 2.186.133 2.955.398.768.264 1.434.592 2 .98v3.338zM539.012 148.574v11.713h-2.703v-1.219c-.125.141-.283.305-.479.49-.193.186-.436.357-.729.516-.291.16-.631.297-1.02.412-.389.113-.83.172-1.324.172-.902 0-1.701-.178-2.398-.531-.699-.352-1.291-.82-1.775-1.404-.486-.582-.857-1.244-1.113-1.986-.258-.742-.385-1.512-.385-2.307s.123-1.562.371-2.305c.246-.742.613-1.4 1.1-1.975s1.082-1.033 1.789-1.379c.707-.344 1.52-.516 2.438-.516.213 0 .465.018.756.053s.596.111.914.225c.318.115.637.287.953.518.318.23.619.529.902.9v-1.377h2.703zm-5.83 2.119c-.496 0-.945.098-1.352.291-.408.195-.752.465-1.035.809-.281.346-.502.746-.662 1.207-.158.459-.238.953-.238 1.482 0 .496.076.969.227 1.418.148.451.361.848.635 1.193.273.344.613.619 1.021.82.404.205.873.305 1.404.305 1.041 0 1.85-.357 2.424-1.072s.861-1.611.861-2.689c0-.637-.092-1.188-.277-1.656s-.43-.857-.73-1.166c-.299-.309-.648-.543-1.045-.703-.399-.159-.81-.239-1.233-.239zM546.748 151.754c-.088-.283-.242-.531-.463-.742-.221-.213-.5-.318-.836-.318l-.172.014s-.199.035-.305.08c-.105.043-.203.119-.291.225s-.133.256-.133.451c0 .336.133.592.398.768.264.178.652.389 1.166.637l1.086.516s.803.43 1.139.676c.602.441.984.889 1.154 1.338.166.451.25.881.25 1.287 0 .67-.131 1.254-.396 1.748s-.602.91-1.008 1.246-.865.582-1.377.742c-.514.158-1.008.238-1.484.238-.406 0-.812-.059-1.219-.172-.406-.115-.791-.293-1.152-.531-.363-.238-.689-.543-.98-.914-.293-.371-.527-.803-.703-1.299l2.279-1.033c.035.123.098.273.186.451.088.176.207.344.357.504.15.158.34.291.57.396.229.105.504.158.82.158.424 0 .746-.113.969-.344.221-.229.33-.539.33-.928 0-.336-.088-.609-.264-.82-.178-.213-.496-.434-.955-.664-.406-.193-.812-.379-1.219-.557-.406-.176-.777-.371-1.113-.582-.459-.301-.805-.637-1.033-1.008-.23-.371-.344-.891-.344-1.562 0-.459.074-.9.225-1.326.15-.424.375-.795.676-1.111.301-.318.68-.574 1.139-.77.459-.193.998-.291 1.617-.291.158 0 .379.018.662.053s.584.129.9.277c.318.15.637.381.955.689.318.311.592.738.822 1.285l-2.253 1.193zM551.545 143.75c0-.477.172-.887.518-1.232.344-.344.754-.516 1.23-.516.479 0 .889.172 1.232.516.346.346.518.756.518 1.232 0 .479-.172.889-.518 1.232-.344.346-.754.518-1.232.518-.477 0-.887-.172-1.23-.518-.346-.343-.518-.753-.518-1.232zm3.1 4.824v11.713h-2.703v-11.713h2.703zM560.66 151.012v9.275h-2.703v-9.275h-1.166v-2.438h1.166v-4.188h2.703v4.188h2.068v2.438h-2.068zM575.688 148.574v11.713h-2.703v-1.219c-.125.141-.283.305-.479.49-.193.186-.436.357-.729.516-.291.16-.631.297-1.02.412-.389.113-.83.172-1.324.172-.902 0-1.701-.178-2.398-.531-.699-.352-1.291-.82-1.775-1.404-.486-.582-.857-1.244-1.113-1.986-.258-.742-.385-1.512-.385-2.307s.123-1.562.371-2.305c.246-.742.613-1.4 1.1-1.975s1.082-1.033 1.789-1.379c.707-.344 1.52-.516 2.438-.516.213 0 .465.018.756.053s.596.111.914.225c.318.115.637.287.953.518.318.23.619.529.902.9v-1.377h2.703zm-5.831 2.119c-.496 0-.945.098-1.352.291-.408.195-.752.465-1.035.809-.281.346-.502.746-.662 1.207-.158.459-.238.953-.238 1.482 0 .496.076.969.227 1.418.148.451.361.848.635 1.193.273.344.613.619 1.021.82.404.205.873.305 1.404.305 1.041 0 1.85-.357 2.424-1.072s.861-1.611.861-2.689c0-.637-.092-1.188-.277-1.656s-.43-.857-.73-1.166c-.299-.309-.648-.543-1.045-.703-.399-.159-.809-.239-1.233-.239z"/></g></g><g transform="translate(1830)"><g fill-rule="evenodd" clip-rule="evenodd" fill="#fff"><path d="M595.73 129.013c1.692-.248 3.547.706 3.158 2.461-.247 1.102-1.767 1.811-3.296 1.588-2.222-.324-2.534-2.874-.891-3.776.238-.132.657-.22 1.029-.273zM554.424 130.543v3.668c.011.197-.373-.038-.548-.11-1.273-.524-2.903-1.098-4.806-1.257-2.267-.193-4.424.091-6.104.819-3.08 1.333-5.047 3.763-5.078 7.551-.043 5.195 3.789 8.36 10.361 8.043 2.514-.121 4.495-.893 6.175-1.64v3.5c-2.188.919-4.64 1.369-7.479 1.369-3.014 0-5.546-.476-7.479-1.369-3.896-1.796-6.177-5.402-6.177-9.684 0-3.546 1.414-6.225 3.569-8.209 2.145-1.972 5.348-3.45 9.538-3.666 3.187-.163 5.811.258 8.028.985zM487.247 129.942h4.322v18.987h10.639c-.279 1.108-.668 2.132-.963 3.229h-14.066v-22.052c-.004-.078-.011-.155.068-.164zM609.798 131.364c.161 1.46.022 3.156.071 4.705h4.801v3.011h-4.735c-.123 1.446-.065 3.282-.065 5.308 0 2.514-.636 5.794 3.154 5.033.718-.143 1.194-.669 1.646-.766v3.174c-2.22 1.106-6.07.71-7.547-.437-1.566-1.216-1.577-3.226-1.577-5.527v-6.785h-3.296v-3.011h3.224c.163-1.092.023-2.425.072-3.611 1.428-.355 2.883-.691 4.252-1.094zM588.527 136.509v3.446c-.043.206-.349-.099-.479-.163-1.451-.712-4.458-1.669-6.726-.876-.767.269-1.666.912-1.235 2.023.392 1.017 3.379 1.717 4.597 2.137 2.439.835 5.049 1.92 4.805 4.869-.378 4.549-8.878 5.654-13.931 3.557v-3.667c-.033-.191.272.031.411.11 1.111.623 2.228 1.214 3.913 1.476 1.735.272 4.463.305 5.078-.873.126-.247.154-.938 0-1.262-.454-.937-2.503-1.445-3.98-1.914-1.415-.446-3.103-1.029-4.048-1.806-1.916-1.569-1.619-4.475-.067-5.855 2.291-2.04 7.834-2.666 11.662-1.202zM594.084 136.069h4.326v16.089h-4.394v-15.923c-.006-.079-.01-.156.068-.166zM519.017 152.158h-3.704c-.166-.451-.425-.828-.479-1.367-1.606.845-3.004 1.835-5.697 1.695-3.433-.177-5.478-2.177-5.215-5.089.119-1.307.803-2.337 1.647-3.01 2.145-1.709 5.923-1.265 8.92-2.243-.036-.916-.034-1.591-.48-2.136-.823-1-3.664-1.223-5.01-.382-.992.622-.941 1.47-1.303 2.354-1.202-.1-2.293-.287-3.429-.438.579-3.06 2.45-4.963 6.448-5.199 2.957-.172 5.335.488 6.448 1.861 1.188 1.466.825 4.644.825 7.059 0 2.642-.164 5.142 1.029 6.895zm-7.891-6.511c-1.536.229-2.925.448-3.362 1.312-.747 1.483.543 2.641 1.783 2.791 3.097.374 5.331-1.865 4.874-4.705l-.068-.054c-.896.3-2.004.474-3.227.656zM572.47 152.158h-3.705c-.164-.451-.425-.828-.479-1.367-1.614.843-3.037 1.86-5.766 1.695-3.571-.215-5.379-2.273-5.144-5.035.2-2.408 2.152-3.82 4.732-4.322 1.807-.351 3.935-.337 5.834-.984-.036-.916-.032-1.591-.481-2.136-.825-1-3.666-1.223-5.011-.382-.993.622-.941 1.47-1.303 2.354-1.199-.102-2.298-.284-3.431-.438.583-3.06 2.455-4.963 6.448-5.199 2.954-.172 5.338.488 6.45 1.861 1.188 1.466.825 4.644.825 7.059.002 2.641-.161 5.141 1.031 6.894zm-7.891-6.511c-1.536.229-2.925.448-3.363 1.312-.747 1.483.543 2.641 1.785 2.791 3.098.374 5.331-1.865 4.872-4.705l-.068-.054c-.895.3-2.003.474-3.226.656zM631.824 152.158h-3.704c-.168-.451-.425-.828-.481-1.367-1.613.843-3.034 1.86-5.764 1.695-1.879-.113-3.521-.864-4.322-1.915-1.306-1.707-.98-4.747.823-6.184 2.149-1.713 5.9-1.26 8.919-2.243-.035-.916-.033-1.591-.479-2.136-.824-1-3.665-1.223-5.012-.382-.992.622-.941 1.47-1.304 2.354-1.198-.102-2.294-.284-3.429-.438.583-3.06 2.451-4.963 6.452-5.199 2.948-.172 5.332.488 6.445 1.861 1.189 1.466.823 4.644.823 7.059.002 2.642-.16 5.142 1.033 6.895zm-7.89-6.511c-1.537.229-2.926.448-3.363 1.312-.746 1.483.543 2.641 1.785 2.791 3.096.374 5.331-1.865 4.873-4.705l-.069-.054c-.896.3-2.004.474-3.226.656z"/></g><g fill-rule="evenodd" clip-rule="evenodd" fill="#fff"><path d="M529.81 69.212h13.647v13.909h-13.705v-13.732c-.004-.084-.008-.167.058-.177zM546.865 69.212h13.706v13.909h-13.764v-13.732c-.003-.084-.007-.167.058-.177zM529.81 86.527h13.647v13.907h-13.705v-13.733c-.004-.082-.008-.164.058-.174zM546.865 86.527h13.706v13.907h-13.764v-13.733c-.003-.082-.007-.164.058-.174zM26.577 121.214h540.702c.134-19.505.02-39.265.055-58.868h-42.842c-.497 0-1.153.078-1.329 0-.277-.125-.12-.135.059-.352.645-.784 1.9-1.87 2.485-2.464l2.832-2.877c2.911-2.954 6.173-6.236 8.962-9.095.719-.739 1.282-1.301 1.965-1.998 2.897-2.939 5.766-6.116 8.848-8.979l.175-.176c.446-.344 1.291-1.312 2.022-2.054 5.31-5.391 10.814-11.038 16.188-16.492l.349-.352c.03-.027.238-.343.344-.118v44.898h44.234c.065-.01.101.012.113.059v58.81c7.847.136 15.938.02 23.878.059v6.033h-609.039l-.001-6.034zm497.743-60.217c-.212.167-.918.877-1.217 1.232.212-.168.918-.879 1.217-1.232zm.346-.352c.039-.059-.077.032-.175.177-.073.107.148-.136.175-.177zm1.04-1.057c-.09.046-.69.649-.867.879.091-.048.691-.65.867-.879zm.927-.941c.031-.064-.41.354-.523.528-.03.065.41-.35.523-.528zm.577-.586c.068-.094-.331.27-.406.411-.069.095.333-.268.406-.411zm.463-.469c.106-.119-.256.18-.289.294-.108.119.252-.18.289-.294zm.692-.703c.034-.065-.408.352-.52.525-.03.066.41-.352.52-.525zm1.043-1.059c-.093.048-.692.65-.87.882.094-.048.692-.65.87-.882zm.694-.704c.069-.094-.332.268-.404.411-.073.096.328-.268.404-.411zm.461-.467c.107-.119-.253.178-.29.293-.106.116.252-.18.29-.293zm.347-.355c.041-.058-.076.034-.174.177-.075.111.147-.132.174-.177zm.694-.703c.032-.066-.41.354-.521.529-.034.065.409-.355.521-.529zm.81-.822c-.006-.031-.487.434-.638.646.006.031.488-.435.638-.646zm.809-.821c-.008-.031-.485.434-.637.645.007.029.485-.436.637-.645zm1.503-1.526c-.245.203-.996.959-1.329 1.351.243-.203.996-.962 1.329-1.351zm.345-.353c.041-.057-.076.033-.173.177-.074.11.147-.133.173-.177zm.466-.469c.105-.12-.255.18-.291.293-.106.121.254-.179.291-.293zm.925-.938c.032-.066-.41.352-.522.526-.031.065.409-.352.522-.526zm.461-.47c.107-.12-.253.179-.289.294-.107.117.254-.18.289-.294zm.463-.47c.105-.118-.252.179-.291.294-.107.118.255-.181.291-.294zm1.041-1.057c-.046.004-.619.577-.752.764.048-.006.619-.576.752-.764zm1.155-1.174c-.004-.029-.484.436-.636.645.007.032.487-.434.636-.645zm1.388-1.408c-.209.167-.916.88-1.213 1.232.208-.168.915-.88 1.213-1.232zm1.966-1.996c-.402.36-1.303 1.273-1.791 1.821.4-.362 1.304-1.274 1.791-1.821zm2.659-2.699c-.632.594-1.765 1.743-2.484 2.523.63-.593 1.765-1.743 2.484-2.523zm2.892-2.934c-.71.671-1.921 1.9-2.718 2.758.707-.671 1.919-1.9 2.718-2.758zm.46-.472c.041-.058-.075.036-.171.178-.076.11.143-.134.171-.178zm2.082-2.111c-.399.359-1.303 1.273-1.79 1.819.397-.361 1.303-1.275 1.79-1.819zm1.388-1.408c-.134.09-.761.724-.982.998.135-.091.761-.725.982-.998zm1.042-1.056c-.092.047-.692.65-.87.88.092-.049.695-.651.87-.88zm2.776-2.818c-.671.632-1.846 1.822-2.604 2.642.671-.633 1.845-1.825 2.604-2.642zm.577-.588c.069-.094-.331.27-.405.411-.068.096.331-.268.405-.411zm1.851-1.877c-.364.321-1.226 1.193-1.677 1.702.36-.322 1.224-1.195 1.677-1.702zm4.97-5.047c-1.401 1.373-3.306 3.307-4.797 4.871 1.402-1.376 3.307-3.309 4.797-4.871zm.81-.823c.071-.094-.33.269-.403.41-.072.097.33-.266.403-.41zm2.546-2.582c-.596.555-1.69 1.667-2.374 2.407.593-.554 1.692-1.667 2.374-2.407zm.171-.175zm6.996 51.883v13.732h13.704v-13.909h-13.646c-.066.009-.062.092-.058.177zm17.058 0v13.732h13.7v-13.909h-13.643c-.067.009-.063.092-.057.177zm-17.058 17.311v13.733h13.704v-13.907h-13.646c-.066.01-.062.092-.058.174zm17.058 0v13.733h13.7v-13.907h-13.643c-.067.01-.063.092-.057.174z"/></g><g fill="#fff"><path d="M53.442 134.878l-2.139 1.395c-.401-.764-.781-1.261-1.142-1.493-.378-.264-.864-.397-1.461-.397-.73 0-1.338.227-1.82.684-.482.448-.724 1.012-.724 1.693 0 .936.633 1.694 1.901 2.266l1.741.786c1.42.629 2.456 1.4 3.112 2.31.656.908.985 2.021.985 3.344 0 1.765-.537 3.227-1.608 4.383-1.077 1.16-2.417 1.739-4.017 1.739-1.515 0-2.767-.495-3.756-1.485-.972-.992-1.58-2.384-1.821-4.174l2.671-.647c.121 1.13.333 1.907.633 2.34.543.828 1.334 1.245 2.377 1.245.82 0 1.504-.304 2.047-.909.543-.604.814-1.37.814-2.3 0-.372-.048-.715-.143-1.026-.092-.31-.24-.596-.44-.855-.2-.264-.458-.509-.774-.736s-.694-.444-1.132-.649l-1.685-.771c-2.393-1.112-3.588-2.737-3.588-4.875 0-1.441.503-2.646 1.506-3.616 1.003-.98 2.251-1.468 3.744-1.468 2.015-.005 3.588 1.068 4.719 3.216zM59.119 141.733v9.505h-2.545v-9.505h-1.086v-2.612h1.086v-4.44h2.545v4.44h1.981v2.612h-1.981zM62.24 145.094c0-1.751.569-3.24 1.708-4.468 1.139-1.229 2.527-1.841 4.163-1.841 1.646 0 3.041.618 4.187 1.854 1.131 1.236 1.697 2.755 1.697 4.554 0 1.817-.569 3.339-1.709 4.564-1.146 1.22-2.551 1.829-4.219 1.829-1.651 0-3.037-.622-4.153-1.864-1.116-1.229-1.674-2.773-1.674-4.628zm2.603.051c0 1.209.293 2.169.882 2.873.602.714 1.398 1.068 2.385 1.068.997 0 1.793-.352 2.388-1.057.598-.704.895-1.646.895-2.824 0-1.179-.297-2.119-.895-2.822-.603-.716-1.397-1.072-2.388-1.072-.972 0-1.76.356-2.364 1.072-.601.71-.903 1.631-.903 2.762zM85.173 139.644v3.721c-.582-.782-1.102-1.317-1.562-1.604-.453-.298-.985-.449-1.596-.449-.958 0-1.753.369-2.388 1.107-.632.74-.951 1.664-.951 2.774 0 1.137.306 2.068.917 2.799.619.731 1.408 1.095 2.365 1.095.611 0 1.15-.145 1.618-.436.453-.281.985-.829 1.596-1.641v3.695c-1.034.586-2.068.881-3.101.881-1.706 0-3.13-.605-4.277-1.813-1.146-1.22-1.719-2.733-1.719-4.543 0-1.808.58-3.335 1.742-4.58 1.161-1.242 2.587-1.864 4.278-1.864 1.087-.001 2.111.285 3.078.858z"/></g><g fill="#fff"><path d="M90.438 130.226v12.813l3.586-3.918h3.419l-4.787 5.088 5.136 7.029h-3.304l-3.642-5.111-.407.446v4.665h-2.546v-21.013h2.545zM99.409 130.226h2.545v9.902c.905-.895 1.906-1.343 3-1.343 1.243 0 2.238.444 2.987 1.33.633.772.949 2.005.949 3.694v7.429h-2.544v-7.165c0-.972-.156-1.674-.469-2.109-.314-.435-.816-.653-1.51-.653-.89 0-1.516.304-1.879.91-.354.612-.532 1.665-.532 3.159v5.858h-2.545v-21.012zM111.571 145.094c0-1.751.571-3.24 1.709-4.468 1.139-1.229 2.526-1.841 4.164-1.841 1.644 0 3.04.618 4.187 1.854 1.13 1.236 1.697 2.755 1.697 4.554 0 1.817-.57 3.339-1.708 4.564-1.147 1.22-2.554 1.829-4.22 1.829-1.653 0-3.037-.622-4.152-1.864-1.119-1.229-1.677-2.773-1.677-4.628zm2.602.051c0 1.209.293 2.169.883 2.873.604.714 1.397 1.068 2.387 1.068.994 0 1.791-.352 2.388-1.057.595-.704.894-1.646.894-2.824 0-1.179-.299-2.119-.894-2.822-.605-.716-1.401-1.072-2.388-1.072-.973 0-1.761.356-2.364 1.072-.604.71-.906 1.631-.906 2.762zM128.542 130.226v21.013h-2.546v-21.013h2.546z"/></g><g fill="#fff"><path d="M131.477 139.121h2.545v1.119c.491-.563.91-.942 1.257-1.144.371-.208.834-.312 1.391-.312 1.245 0 2.23.598 2.953 1.792.798-1.194 1.882-1.792 3.248-1.792 2.482 0 3.723 1.654 3.723 4.964v7.489h-2.558v-6.731c0-1.16-.127-1.98-.384-2.463-.263-.489-.697-.733-1.302-.733-.701 0-1.212.29-1.533.871-.319.581-.48 1.515-.48 2.798v6.259h-2.556v-6.692c0-2.156-.566-3.235-1.697-3.235-.717 0-1.241.294-1.568.884-.329.589-.493 1.518-.493 2.785v6.259h-2.545v-12.118zM156.002 141.187l-2.105 1.231c-.331-.738-.741-1.107-1.232-1.107-.235 0-.435.084-.599.255-.167.168-.251.387-.251.652 0 .465.492.925 1.471 1.379 1.352.639 2.26 1.226 2.728 1.765.468.538.702 1.264.702 2.175 0 1.169-.393 2.146-1.176 2.933-.762.745-1.683 1.117-2.761 1.117-1.848 0-3.156-.989-3.927-2.972l2.172-1.109c.302.582.532.95.691 1.109.309.314.678.472 1.108.472.86 0 1.29-.432 1.29-1.293 0-.496-.332-.963-.995-1.393l-.77-.413-.781-.408c-.739-.399-1.258-.798-1.56-1.194-.385-.508-.578-1.158-.578-1.952 0-1.056.328-1.925.983-2.614.672-.689 1.488-1.033 2.444-1.033 1.411-.002 2.458.799 3.146 2.4z"/></g><g fill="#fff"><path d="M161.55 130.226v10.304c1.019-1.163 2.172-1.744 3.463-1.744 1.486 0 2.722.608 3.711 1.829.987 1.212 1.483 2.722 1.483 4.53 0 1.865-.499 3.408-1.493 4.628-.989 1.208-2.237 1.813-3.746 1.813-1.275 0-2.414-.538-3.418-1.616v1.269h-2.544v-21.013h2.544zm6.054 15.041c0-1.162-.289-2.104-.862-2.834-.58-.749-1.308-1.122-2.182-1.122-.935 0-1.698.36-2.286 1.084-.58.712-.87 1.641-.87 2.785 0 1.178.285 2.122.858 2.825.573.722 1.328 1.081 2.263 1.081.884 0 1.614-.359 2.197-1.081.587-.732.882-1.644.882-2.738zM180.954 139.121h2.555v12.117h-2.555v-1.269c-1.049 1.078-2.177 1.616-3.384 1.616-1.523 0-2.782-.605-3.779-1.813-.988-1.236-1.482-2.778-1.482-4.628 0-1.819.494-3.332 1.482-4.542.988-1.213 2.225-1.817 3.711-1.817 1.283 0 2.433.581 3.452 1.744v-1.408zm-6.044 6.024c0 1.159.284 2.105.851 2.835.581.739 1.311 1.106 2.194 1.106.943 0 1.706-.354 2.287-1.068.58-.74.871-1.677.871-2.812s-.292-2.074-.871-2.811c-.581-.724-1.336-1.084-2.264-1.084-.875 0-1.606.364-2.195 1.095-.582.739-.873 1.651-.873 2.739zM197.312 150.953c0 .571-.016 1.076-.051 1.511-.034.436-.082.819-.142 1.15-.181.913-.535 1.696-1.064 2.353-.994 1.261-2.364 1.891-4.106 1.891-1.471 0-2.681-.438-3.632-1.313-.981-.897-1.546-2.141-1.696-3.727h2.558c.096.598.259 1.06.485 1.381.528.756 1.297 1.135 2.309 1.135 1.862 0 2.793-1.254 2.793-3.758v-1.693c-1.01 1.139-2.175 1.704-3.496 1.704-1.5 0-2.73-.597-3.687-1.789-.967-1.212-1.45-2.726-1.45-4.543 0-1.767.448-3.267 1.346-4.502.967-1.312 2.241-1.967 3.825-1.967 1.388 0 2.541.569 3.461 1.703v-1.367h2.546v11.831zm-2.444-5.742c0-1.176-.288-2.115-.86-2.817-.581-.723-1.323-1.083-2.228-1.083-.967 0-1.727.393-2.286 1.181-.507.703-.759 1.613-.759 2.732 0 1.102.252 2.004.759 2.708.55.77 1.312 1.154 2.286 1.154.972 0 1.743-.388 2.306-1.166.522-.704.782-1.607.782-2.709zM210.467 145.841h-7.897c.068.993.363 1.787.883 2.373.52.582 1.188.872 2.003.872.634 0 1.157-.164 1.572-.497.407-.33.871-.945 1.392-1.841l2.149 1.318c-.332.622-.682 1.155-1.053 1.598-.37.445-.764.81-1.188 1.097-.423.285-.878.494-1.369.627-.49.134-1.022.198-1.595.198-1.646 0-2.965-.579-3.961-1.739-.996-1.17-1.492-2.723-1.492-4.654 0-1.918.482-3.467 1.447-4.651.974-1.17 2.263-1.756 3.871-1.756 1.62 0 2.902.569 3.845 1.703.936 1.13 1.404 2.693 1.404 4.691l-.011.661zm-2.612-2.29c-.356-1.494-1.212-2.24-2.569-2.24-.311 0-.601.051-.872.158-.271.101-.518.25-.74.446-.223.193-.413.427-.572.702-.158.273-.279.586-.362.934h5.115z"/></g><g fill="#fff"><path d="M213.088 139.121h2.545v1.083c.467-.539.882-.906 1.245-1.107.367-.208.805-.312 1.312-.312.671 0 1.373.24 2.104.721l-1.165 2.565c-.482-.382-.954-.573-1.414-.573-1.388 0-2.082 1.15-2.082 3.456v6.284h-2.545v-12.117zM221.508 134.082c0-.488.161-.911.487-1.268.323-.358.712-.535 1.164-.535.46 0 .854.177 1.179.535.324.348.485.775.485 1.28 0 .506-.162.937-.485 1.293-.318.358-.707.536-1.167.536-.46 0-.853-.178-1.175-.536-.327-.356-.488-.79-.488-1.305zm2.931 5.039v12.117h-2.547v-12.117h2.547z"/></g><g fill="#fff"><path d="M237.559 145.841h-7.897c.066.993.362 1.787.882 2.373.52.582 1.187.872 2.002.872.633 0 1.157-.164 1.572-.497.408-.33.873-.945 1.393-1.841l2.149 1.318c-.331.622-.683 1.155-1.05 1.598-.37.445-.767.81-1.189 1.097-.422.285-.879.494-1.368.627-.491.134-1.023.198-1.595.198-1.645 0-2.966-.579-3.959-1.739-.997-1.17-1.495-2.723-1.495-4.654 0-1.918.482-3.467 1.448-4.651.974-1.17 2.264-1.756 3.87-1.756 1.622 0 2.904.569 3.846 1.703.936 1.13 1.403 2.693 1.403 4.691l-.012.661zm-2.615-2.29c-.355-1.494-1.21-2.24-2.568-2.24-.308 0-.599.051-.872.158-.271.101-.517.25-.74.446-.222.193-.412.427-.569.702-.161.273-.281.586-.364.934h5.113zM242.897 141.733v9.505h-2.545v-9.505h-1.086v-2.612h1.086v-4.44h2.545v4.44h1.98v2.612h-1.98zM260.07 141.187l-2.106 1.231c-.329-.738-.742-1.107-1.231-1.107-.235 0-.435.084-.601.255-.166.168-.249.387-.249.652 0 .465.49.925 1.47 1.379 1.352.639 2.259 1.226 2.727 1.765.468.538.702 1.264.702 2.175 0 1.169-.393 2.146-1.175 2.933-.763.745-1.684 1.117-2.762 1.117-1.847 0-3.155-.989-3.926-2.972l2.172-1.109c.301.582.532.95.691 1.109.309.314.678.472 1.108.472.858 0 1.289-.432 1.289-1.293 0-.496-.332-.963-.995-1.393l-.77-.413-.778-.408c-.742-.399-1.262-.798-1.562-1.194-.384-.508-.578-1.158-.578-1.952 0-1.056.329-1.925.985-2.614.67-.689 1.485-1.033 2.442-1.033 1.412-.002 2.46.799 3.147 2.4zM273.057 145.841h-7.897c.07.993.362 1.787.883 2.373.52.582 1.188.872 2.002.872.634 0 1.158-.164 1.572-.497.408-.33.873-.945 1.392-1.841l2.149 1.318c-.331.622-.682 1.155-1.051 1.598-.37.445-.766.81-1.188 1.097-.422.285-.88.494-1.369.627-.49.134-1.022.198-1.596.198-1.644 0-2.963-.579-3.96-1.739-.995-1.17-1.493-2.723-1.493-4.654 0-1.918.481-3.467 1.447-4.651.973-1.17 2.263-1.756 3.871-1.756 1.622 0 2.902.569 3.845 1.703.936 1.13 1.403 2.693 1.403 4.691l-.01.661zm-2.614-2.29c-.355-1.494-1.21-2.24-2.567-2.24-.309 0-.599.051-.871.158-.271.101-.519.25-.743.446-.221.193-.412.427-.571.702-.159.273-.279.586-.362.934h5.114zM283.895 130.226h2.557v21.013h-2.557v-1.269c-1.003 1.078-2.139 1.616-3.406 1.616-1.509 0-2.76-.605-3.755-1.813-.988-1.236-1.482-2.778-1.482-4.628 0-1.809.494-3.318 1.482-4.53.979-1.221 2.212-1.829 3.699-1.829 1.291 0 2.445.581 3.463 1.744v-10.304zm-6.042 14.919c0 1.159.283 2.105.85 2.835.581.739 1.312 1.106 2.195 1.106.942 0 1.706-.354 2.285-1.068.581-.74.871-1.677.871-2.812s-.29-2.074-.871-2.811c-.58-.724-1.336-1.084-2.263-1.084-.875 0-1.606.364-2.195 1.095-.581.739-.872 1.651-.872 2.739zM297.741 139.121h2.557v12.117h-2.557v-1.269c-1.047 1.078-2.175 1.616-3.382 1.616-1.525 0-2.783-.605-3.78-1.813-.988-1.236-1.48-2.778-1.48-4.628 0-1.819.492-3.332 1.48-4.542.99-1.213 2.227-1.817 3.712-1.817 1.283 0 2.434.581 3.45 1.744v-1.408zm-6.04 6.024c0 1.159.282 2.105.848 2.835.58.739 1.312 1.106 2.194 1.106.942 0 1.705-.354 2.288-1.068.579-.74.87-1.677.87-2.812s-.291-2.074-.87-2.811c-.583-.724-1.338-1.084-2.264-1.084-.876 0-1.607.364-2.197 1.095-.58.739-.869 1.651-.869 2.739zM303.466 139.121h2.558v1.119c.891-.971 1.893-1.455 3.009-1.455 1.282 0 2.283.444 2.998 1.33.618.756.928 1.987.928 3.694v7.429h-2.556v-6.76c0-1.191-.151-2.016-.452-2.472-.295-.464-.831-.696-1.608-.696-.845 0-1.442.308-1.799.92-.345.605-.52 1.659-.52 3.168v5.84h-2.558v-12.117z"/></g><g fill="#fff"><path d="M327.871 134.755h-3.022l1.449-2.725h4.209v19.208h-2.636v-16.483zM339.059 151.897l-1.935-1.58 4.175-6.259-.577.077-.386.024c-1.408 0-2.632-.594-3.665-1.777-1.025-1.179-1.539-2.598-1.539-4.257 0-1.768.571-3.276 1.71-4.528 1.146-1.26 2.519-1.891 4.117-1.891 1.592 0 2.977.62 4.153 1.865 1.174 1.236 1.764 2.697 1.764 4.379 0 1.493-.573 3.106-1.718 4.839l-6.099 9.108zm-1.357-13.981c0 1.034.319 1.905.962 2.613.647.712 1.428 1.067 2.34 1.067s1.69-.352 2.332-1.056c.648-.715.973-1.573.973-2.578 0-1.002-.324-1.861-.973-2.575-.642-.703-1.424-1.058-2.344-1.058-.903 0-1.678.354-2.317 1.058-.649.715-.973 1.556-.973 2.529z"/></g><g fill="#fff"><path d="M359.127 134.755h-5.385l-.861 3.172.367-.037.323-.013c1.698 0 3.088.63 4.175 1.893 1.094 1.25 1.642 2.856 1.642 4.812 0 2.025-.618 3.692-1.857 5.001-1.234 1.312-2.794 1.966-4.673 1.966-2.315 0-4.14-1.195-5.476-3.582l1.99-1.853c.552 1.027 1.106 1.753 1.665 2.177.558.414 1.238.622 2.047.622 1.057 0 1.943-.408 2.659-1.221.715-.837 1.076-1.852 1.076-3.048 0-1.227-.356-2.23-1.065-3.012-.709-.803-1.595-1.205-2.66-1.205-1.182 0-2.204.57-3.064 1.705h-.872l2.75-10.103h7.22v2.726zM370.415 134.755h-8.622v-2.725h13.023l-11.021 19.867-2.095-1.454 8.715-15.688z"/></g><path fill="#fff" d="M372.72 149.847c0-.467.153-.868.463-1.209.309-.339.678-.51 1.106-.51.433 0 .804.171 1.112.51.307.341.462.746.462 1.22 0 .481-.155.893-.462 1.232-.303.333-.674.496-1.112.496-.443 0-.817-.163-1.117-.496-.304-.332-.452-.748-.452-1.243z"/><g fill="#fff"><path d="M189.18 65.966c3.608 0 6.558-5.261 6.558-8.929 0-2.872-2.131-4.944-6.064-4.944-3.117 0-6.886 5.263-6.886 8.771 0 2.709 2.458 5.102 6.392 5.102zM522.606 105.027c-.655 0-1.149.48-1.969 1.277-2.128 2.07-4.588 3.666-7.375 3.666-3.771 0-6.721-3.666-6.721-11.958 4.424-4.464 8.523-11.637 8.523-17.22 0-3.347-2.132-6.217-6.886-6.217-3.441 0-6.555 1.913-9.016 4.623-2.297-3.189-5.243-5.421-11.312-5.421-14.119 0-25.728 8.931-28.841 20.953-5.122 7.368-11.53 14.123-18.533 14.123-3.774 0-5.903-2.551-5.903-6.855 0-8.61 6.067-23.437 8.855-35.555h12.621c1.148 0 3.115-2.231 3.115-3.029 0-.479-.327-.638-.654-.638h-14.1c.492-3.029.819-6.377.819-9.247 0-3.189-6.722-7.655-9.999-7.655-.82 0-1.312.639-1.312 1.597 0 1.115.653 2.231.653 4.622 0 4.465-.983 7.815-1.801 10.684h-5.412c-1.146 0-2.787 2.233-2.787 3.029 0 .479.331.638.658.638h6.391c-3.051 9.022-9.117 17.959-12.32 26.523-.172.17-.318.371-.463.581-5.245 7.811-11.801 14.988-17.373 14.988-3.445 0-5.082-2.075-5.082-5.104 0-5.103 5.573-14.508 5.573-20.885 0-4.945-2.624-8.771-10.164-8.771-8.688 0-18.853 9.726-23.607 16.9.494-2.232 1.145-6.376 1.145-9.886 0-3.827-5.734-9.088-9.67-9.088-1.146 0-1.966.796-1.966 1.755 0 .956.819 1.912.819 4.623 0 4.851-2.908 9.947-5.508 15.61-5.243 7.774-13.076 16.278-23.506 16.278-6.067 0-10.001-4.145-10.001-10.206 7.704-2.709 20.822-9.404 20.822-18.811 0-3.668-2.462-7.175-10.003-7.175-13.849 0-25.707 10.047-27.965 22.73-4.838 6.642-10.446 12.346-15.308 12.346-2.462 0-5.083-1.594-5.083-5.102 0-7.812 6.395-15.466 6.395-22.321 0-4.306-2.295-7.653-9.344-7.653-8.034 0-19.179 8.45-26.558 19.451 1.148-3.347 2.786-8.769 2.786-11.798 0-4.624-2.131-7.653-8.359-7.653-10 0-20.657 9.564-26.065 19.132 0 0 2.132-6.377 2.132-11.639 0-4.464-5.575-9.566-9.836-9.566-1.147 0-1.804.636-1.804 1.437 0 1.114.984 2.39.984 4.303 0 5.621-3.234 11.243-6.082 17.087-5.178 7.472-12.033 14.641-17.688 14.641-3.114 0-5.246-1.593-5.246-4.784 0-8.607 5.083-15.302 5.083-19.928 0-4.146-1.804-6.698-4.753-8.928-.821-.638-2.788-1.755-3.607-1.755s-1.477.478-1.477 1.274c0 .8.657 1.277.657 4.784 0 4.155-5.551 9.886-9.04 16.882-5.016 6.332-11.426 11.181-17.352 11.181-6.065 0-9.18-4.466-9.18-11.162 0-4.944.49-9.09.49-9.09 16.067-14.827 35.737-40.813 35.737-53.409 0-4.625-3.441-7.813-8.688-7.813-7.541 0-17.705 6.219-28.032 23.278-9.997 16.406-14.18 34.675-14.553 46.158-4.91 6.858-10.59 12.674-15.607 12.674-6.557 0-7.541-7.016-7.541-18.813 0-17.379 6.721-38.901 11.476-50.541 3.114-7.654 4.59-10.364 4.59-12.756 0-2.231-7.377-4.942-10.328-4.942-2.788 0-3.934.797-5.738 3.348-8.853 12.596-19.18 28.699-28.195 42.41-6.88-8.926-16.717-16.418-29.667-16.418-12.624 0-22.46 8.928-22.46 20.566 0 10.841 9.345 15.784 16.558 15.784 1.147 0 1.64-.319 1.64-.796 0-.479-.328-.641-.82-.641-4.261-.318-8.359-4.303-8.359-9.725 0-9.565 8.687-12.595 16.392-12.595 9.506 0 17.212 3.348 23.441 8.927-16.392 24.234-31.638 40.977-49.016 40.977-7.54 0-11.311-3.987-11.311-10.524 0-5.26 4.918-8.769 8.198-9.086.82-.159 1.147-.32 1.147-.799 0-.319-.327-.637-1.147-.637-8.688 0-18.198 7.334-18.198 18.336 0 9.723 7.214 19.608 21.968 19.608 3.335 0 6.576-.788 9.728-2.199 2.607-1.166 5.15-2.771 7.632-4.711 13.241-10.358 24.703-30.496 34.441-47.298 5.083 6.059 8.853 13.873 11.476 22.799 3.117 11.162 6.556 18.496 16.884 18.496 8.926 0 16.931-9.172 22.86-17.586.766 13.396 8.599 17.586 17.627 17.586 8.28 0 15.672-6.436 21.441-13.469-.188 1.066-.293 2.153-.293 3.265 0 5.581 4.098 10.204 13.441 10.204 8.212 0 16.065-7.094 22.057-14.526-.561 1.988-.912 4.011-.912 6.076 0 5.899 5.903 8.45 10.491 8.45 1.968 0 3.607-1.115 3.607-3.507 0-4.625 2.459-11.002 5.738-17.381 5.408-10.682 15.409-17.537 18.687-17.537 2.132 0 2.789 1.116 2.789 3.188 0 6.378-10.001 14.827-10.001 27.264 0 5.422 7.213 7.973 10.821 7.973 2.95 0 4.588-1.115 4.588-2.871 0-5.42.984-11.479 4.919-18.017 6.064-10.041 15.736-17.059 18.522-17.059 1.805 0 2.952.797 2.952 2.87 0 5.26-9.835 12.755-9.835 24.234 0 6.062 4.098 10.843 12.951 10.843 9.686 0 17.801-8.334 23.768-16.402.011 11.626 7.875 16.402 19.179 16.402 12.622 0 22.411-8.073 28.968-16.019-.665 2.364-1.103 4.824-1.103 7.409 0 6.856 4.917 8.609 8.196 8.609 3.608 0 6.723-1.115 6.723-3.507 0-5.581 2.133-14.19 4.593-18.655 4.915-8.928 14.259-16.262 18.355-16.262 2.625 0 3.607 1.594 3.607 3.507 0 4.941-10.489 13.87-10.489 24.234 0 6.379 4.588 10.683 12.621 10.683 10.061 0 18.81-9.497 24.929-18.03-.206 1.236-.343 2.465-.343 3.681 0 8.61 5.411 14.35 15.247 14.35 10.341 0 19.522-9.251 25.789-17.694-.031.526-.052 1.056-.052 1.589 0 11.482 7.374 16.105 16.72 16.105 8.69 0 15.083-7.175 18.032-11.162 1.312 6.221 5.739 11.162 13.442 11.162 7.541 0 11.477-4.304 15.574-8.93 1.147-1.274 1.475-1.911 1.475-2.549.001-.475-.326-.797-.819-.797zm-189.664-26.624c2.461 0 3.769 1.593 3.769 3.825 0 5.902-10.323 12.595-17.211 14.667 0-9.086 7.049-18.492 13.442-18.492zm-177.529-22.321c7.378-14.668 14.097-21.047 17.211-21.047 1.642 0 2.624 1.436 2.624 2.871 0 9.088-18.36 33.003-30.655 44.96 0 0 3.608-12.435 10.82-26.784zm-66.389 32.364c-1.966-4.783-4.919-11.001-8.852-17.059 8.524-13.712 17.378-27.901 21.967-35.077l.982.479c-3.934 10.203-12.457 33.162-14.097 51.657zm403.256 14.67c-3.28 4.304-6.887 7.971-10.657 7.971-3.77 0-6.065-3.348-6.065-9.567 0-12.913 7.376-24.234 15.409-24.234 3.116 0 4.918 1.275 6.395 3.668-3.77 5.579-5.082 15.147-5.082 22.162z"/></g></g><g transform="translate(2480)"><path fill="#fff" d="M.143 30.857v-14.286c0-.387.142-.722.424-1.004.283-.283.617-.424 1.005-.424h6.428c.387 0 .722.142 1.004.424.283.283.425.618.425 1.004v14.286c0 .387-.142.721-.425 1.004-.282.284-.617.424-1.004.424h-6.428c-.388 0-.722-.141-1.005-.424-.282-.283-.424-.617-.424-1.004zm2.857-2.857c0 .402.137.74.413 1.016.274.275.613.413 1.016.413.387 0 .722-.138 1.004-.413s.424-.614.424-1.016c0-.387-.142-.722-.424-1.004-.282-.283-.617-.425-1.004-.425-.402 0-.741.142-1.016.425-.276.282-.413.617-.413 1.004zm7.857 2.857v-14.308c0-.372.135-.695.402-.971s.588-.428.96-.458c.356-.03.922-.469 1.696-1.317.773-.849 1.525-1.749 2.254-2.701 1.013-1.294 1.764-2.188 2.255-2.679.268-.268.498-.625.693-1.071.191-.446.322-.807.391-1.083.066-.275.166-.726.301-1.351.104-.58.197-1.034.279-1.361.08-.327.227-.714.436-1.161.207-.447.461-.818.758-1.116.283-.283.617-.424 1.004-.424.686 0 1.299.078 1.842.234s.99.35 1.34.581c.35.231.646.532.893.904.246.372.424.707.535 1.004.113.298.201.67.27 1.116.066.446.104.781.111 1.004l.01.871c0 .566-.07 1.131-.211 1.696-.143.566-.283 1.012-.424 1.339-.143.328-.346.745-.615 1.25l-.223.402s-.186.343-.246.491c-.059.149-.119.328-.178.536h6.184c1.16 0 2.164.424 3.014 1.272.848.848 1.271 1.853 1.271 3.013 0 1.28-.41 2.389-1.229 3.326.225.655.336 1.22.336 1.696.045 1.131-.275 2.15-.961 3.059.254.833.254 1.703 0 2.611-.223.848-.625 1.547-1.205 2.098.135 1.667-.23 3.014-1.094 4.041-.951 1.131-2.418 1.711-4.396 1.74h-2.88c-.982 0-2.055-.115-3.215-.346s-2.064-.447-2.712-.646c-.647-.201-1.544-.496-2.689-.883-1.831-.641-3.006-.967-3.527-.982-.387-.014-.722-.16-1.004-.436-.284-.273-.426-.603-.426-.99z"/></g><g transform="translate(2530)"><path fill="#fff" d="M17.425 14.072c0 .151-.134.285-.286.285h-1.999v1.428c0 .474-.384.857-.856.857h-8.57c-.473 0-.857-.384-.857-.857v-1.428h-2c-.152 0-.286-.134-.286-.285v-3.714c0-.938.776-1.714 1.714-1.714h.571v-4.855c0-.473.384-.857.857-.857h5.999c.474 0 1.124.268 1.464.607l1.357 1.357c.339.339.606.991.606 1.464v2.285h.571c.938 0 1.714.776 1.714 1.714v3.713zm-3.428-4.285v-3.428h-1.429c-.473 0-.856-.384-.856-.857v-1.428h-5.713v5.713h7.998zm0 5.713v-2.285h-7.998v2.285h7.998zm1.714-5.713c-.312 0-.571.259-.571.571s.259.571.571.571.571-.259.571-.571-.259-.571-.571-.571z"/></g></svg>