<?xml version="1.0" encoding="utf-8"?>
<!-- Generator: Adobe Illustrator 15.1.0, SVG Export Plug-In . SVG Version: 6.00 Build 0)  -->
<!DOCTYPE svg PUBLIC "-//W3C//DTD SVG 1.1//EN" "http://www.w3.org/Graphics/SVG/1.1/DTD/svg11.dtd">
<svg version="1.1" id="Layer_1" xmlns="http://www.w3.org/2000/svg" xmlns:xlink="http://www.w3.org/1999/xlink" x="0px" y="0px"
	 width="640px" height="170px" viewBox="0 0 640 170" enable-background="new 0 0 640 170" xml:space="preserve">
<g>
	<path fill-rule="evenodd" clip-rule="evenodd" fill="#FFFFFF" d="M595.73,129.013c1.692-0.248,3.547,0.706,3.158,2.461
		c-0.247,1.102-1.767,1.811-3.296,1.588c-2.222-0.324-2.534-2.874-0.891-3.776C594.939,129.154,595.358,129.066,595.73,129.013z"/>
	<path fill-rule="evenodd" clip-rule="evenodd" fill="#FFFFFF" d="M554.424,130.543c0,1.223,0,2.445,0,3.668
		c0.011,0.197-0.373-0.038-0.548-0.11c-1.273-0.524-2.903-1.098-4.806-1.257c-2.267-0.193-4.424,0.091-6.104,0.819
		c-3.08,1.333-5.047,3.763-5.078,7.551c-0.043,5.195,3.789,8.36,10.361,8.043c2.514-0.121,4.495-0.893,6.175-1.64
		c0,1.167,0,2.334,0,3.5c-2.188,0.919-4.64,1.369-7.479,1.369c-3.014,0-5.546-0.476-7.479-1.369
		c-3.896-1.796-6.177-5.402-6.177-9.684c0-3.546,1.414-6.225,3.569-8.209c2.145-1.972,5.348-3.45,9.538-3.666
		C549.583,129.395,552.207,129.816,554.424,130.543z"/>
	<path fill-rule="evenodd" clip-rule="evenodd" fill="#FFFFFF" d="M487.247,129.942c1.442,0,2.882,0,4.322,0
		c0,6.33,0,12.657,0,18.987c3.546,0,7.091,0,10.639,0c-0.279,1.108-0.668,2.132-0.963,3.229c-4.688,0-9.381,0-14.066,0
		c0-7.353,0-14.7,0-22.052C487.175,130.028,487.168,129.951,487.247,129.942z"/>
	<path fill-rule="evenodd" clip-rule="evenodd" fill="#FFFFFF" d="M609.798,131.364c0.161,1.46,0.022,3.156,0.071,4.705
		c1.598,0,3.199,0,4.801,0c0,1.004,0,2.008,0,3.011c-1.578,0-3.157,0-4.735,0c-0.123,1.446-0.065,3.282-0.065,5.308
		c0,2.514-0.636,5.794,3.154,5.033c0.718-0.143,1.194-0.669,1.646-0.766c0,1.059,0,2.115,0,3.174c-2.22,1.106-6.07,0.71-7.547-0.437
		c-1.566-1.216-1.577-3.226-1.577-5.527c0-2.257,0-4.698,0-6.785c-0.833-0.005-2.24,0.004-3.296,0c0-1.003,0-2.007,0-3.011
		c1.076,0,2.15,0,3.224,0c0.163-1.092,0.023-2.425,0.072-3.611C606.974,132.103,608.429,131.767,609.798,131.364z"/>
	<path fill-rule="evenodd" clip-rule="evenodd" fill="#FFFFFF" d="M588.527,136.509c0,1.148,0,2.297,0,3.446
		c-0.043,0.206-0.349-0.099-0.479-0.163c-1.451-0.712-4.458-1.669-6.726-0.876c-0.767,0.269-1.666,0.912-1.235,2.023
		c0.392,1.017,3.379,1.717,4.597,2.137c2.439,0.835,5.049,1.92,4.805,4.869c-0.378,4.549-8.878,5.654-13.931,3.557
		c0-1.223,0-2.444,0-3.667c-0.033-0.191,0.272,0.031,0.411,0.11c1.111,0.623,2.228,1.214,3.913,1.476
		c1.735,0.272,4.463,0.305,5.078-0.873c0.126-0.247,0.154-0.938,0-1.262c-0.454-0.937-2.503-1.445-3.98-1.914
		c-1.415-0.446-3.103-1.029-4.048-1.806c-1.916-1.569-1.619-4.475-0.067-5.855C579.156,135.671,584.699,135.045,588.527,136.509z"/>
	<path fill-rule="evenodd" clip-rule="evenodd" fill="#FFFFFF" d="M594.084,136.069c1.44,0,2.883,0,4.326,0
		c0,5.364,0,10.727,0,16.089c-1.466,0-2.932,0-4.394,0c0-5.307,0-10.615,0-15.923C594.01,136.156,594.006,136.079,594.084,136.069z"
		/>
	<path fill-rule="evenodd" clip-rule="evenodd" fill="#FFFFFF" d="M519.017,152.158c-1.234,0-2.472,0-3.704,0
		c-0.166-0.451-0.425-0.828-0.479-1.367c-1.606,0.845-3.004,1.835-5.697,1.695c-3.433-0.177-5.478-2.177-5.215-5.089
		c0.119-1.307,0.803-2.337,1.647-3.01c2.145-1.709,5.923-1.265,8.92-2.243c-0.036-0.916-0.034-1.591-0.48-2.136
		c-0.823-1-3.664-1.223-5.01-0.382c-0.992,0.622-0.941,1.47-1.303,2.354c-1.202-0.1-2.293-0.287-3.429-0.438
		c0.579-3.06,2.45-4.963,6.448-5.199c2.957-0.172,5.335,0.488,6.448,1.861c1.188,1.466,0.825,4.644,0.825,7.059
		C517.988,147.905,517.824,150.405,519.017,152.158z M511.126,145.647c-1.536,0.229-2.925,0.448-3.362,1.312
		c-0.747,1.483,0.543,2.641,1.783,2.791c3.097,0.374,5.331-1.865,4.874-4.705c-0.004-0.032-0.01-0.066-0.068-0.054
		C513.457,145.291,512.349,145.465,511.126,145.647z"/>
	<path fill-rule="evenodd" clip-rule="evenodd" fill="#FFFFFF" d="M572.47,152.158c-1.236,0-2.471,0-3.705,0
		c-0.164-0.451-0.425-0.828-0.479-1.367c-1.614,0.843-3.037,1.86-5.766,1.695c-3.571-0.215-5.379-2.273-5.144-5.035
		c0.2-2.408,2.152-3.82,4.732-4.322c1.807-0.351,3.935-0.337,5.834-0.984c-0.036-0.916-0.032-1.591-0.481-2.136
		c-0.825-1-3.666-1.223-5.011-0.382c-0.993,0.622-0.941,1.47-1.303,2.354c-1.199-0.102-2.298-0.284-3.431-0.438
		c0.583-3.06,2.455-4.963,6.448-5.199c2.954-0.172,5.338,0.488,6.45,1.861c1.188,1.466,0.825,4.644,0.825,7.059
		C571.441,147.905,571.278,150.405,572.47,152.158z M564.579,145.647c-1.536,0.229-2.925,0.448-3.363,1.312
		c-0.747,1.483,0.543,2.641,1.785,2.791c3.098,0.374,5.331-1.865,4.872-4.705c-0.004-0.032-0.014-0.066-0.068-0.054
		C566.91,145.291,565.802,145.465,564.579,145.647z"/>
	<path fill-rule="evenodd" clip-rule="evenodd" fill="#FFFFFF" d="M631.824,152.158c-1.234,0-2.47,0-3.704,0
		c-0.168-0.451-0.425-0.828-0.481-1.367c-1.613,0.843-3.034,1.86-5.764,1.695c-1.879-0.113-3.521-0.864-4.322-1.915
		c-1.306-1.707-0.98-4.747,0.823-6.184c2.149-1.713,5.9-1.26,8.919-2.243c-0.035-0.916-0.033-1.591-0.479-2.136
		c-0.824-1-3.665-1.223-5.012-0.382c-0.992,0.622-0.941,1.47-1.304,2.354c-1.198-0.102-2.294-0.284-3.429-0.438
		c0.583-3.06,2.451-4.963,6.452-5.199c2.948-0.172,5.332,0.488,6.445,1.861c1.189,1.466,0.823,4.644,0.823,7.059
		C630.793,147.905,630.631,150.405,631.824,152.158z M623.934,145.647c-1.537,0.229-2.926,0.448-3.363,1.312
		c-0.746,1.483,0.543,2.641,1.785,2.791c3.096,0.374,5.331-1.865,4.873-4.705c-0.005-0.032-0.011-0.066-0.069-0.054
		C626.264,145.291,625.156,145.465,623.934,145.647z"/>
</g>
<g>
	<path fill-rule="evenodd" clip-rule="evenodd" fill="#FFFFFF" d="M529.81,69.212c4.55,0,9.1,0,13.647,0c0,4.637,0,9.274,0,13.909
		c-4.568,0-9.136,0-13.705,0c0-4.577,0-9.154,0-13.732C529.748,69.305,529.744,69.222,529.81,69.212z"/>
	<path fill-rule="evenodd" clip-rule="evenodd" fill="#FFFFFF" d="M546.865,69.212c4.569,0,9.136,0,13.706,0
		c0,4.637,0,9.274,0,13.909c-4.59,0-9.174,0-13.764,0c0-4.577,0-9.154,0-13.732C546.804,69.305,546.8,69.222,546.865,69.212z"/>
	<path fill-rule="evenodd" clip-rule="evenodd" fill="#FFFFFF" d="M529.81,86.527c4.55,0,9.1,0,13.647,0c0,4.636,0,9.272,0,13.907
		c-4.568,0-9.136,0-13.705,0c0-4.575,0-9.152,0-13.733C529.748,86.619,529.744,86.537,529.81,86.527z"/>
	<path fill-rule="evenodd" clip-rule="evenodd" fill="#FFFFFF" d="M546.865,86.527c4.569,0,9.136,0,13.706,0
		c0,4.636,0,9.272,0,13.907c-4.59,0-9.174,0-13.764,0c0-4.575,0-9.152,0-13.733C546.804,86.619,546.8,86.537,546.865,86.527z"/>
	<path fill-rule="evenodd" clip-rule="evenodd" fill="#FFFFFF" d="M26.577,121.214c25.015,0,515.685,0,540.702,0
		c0.134-19.505,0.02-39.265,0.055-58.868c-10.992,0-21.906,0-33.129,0c-2.82,0-6.522,0-9.713,0c-0.497,0-1.153,0.078-1.329,0
		c-0.277-0.125-0.12-0.135,0.059-0.352c0.645-0.784,1.9-1.87,2.485-2.464c0.96-0.977,1.935-1.964,2.832-2.877
		c2.911-2.954,6.173-6.236,8.962-9.095c0.719-0.739,1.282-1.301,1.965-1.998c2.897-2.939,5.766-6.116,8.848-8.979
		c0.064-0.059,0.096-0.117,0.175-0.176c0.446-0.344,1.291-1.312,2.022-2.054c5.31-5.391,10.814-11.038,16.188-16.492
		c0.095-0.096,0.226-0.246,0.349-0.352c0.03-0.027,0.238-0.343,0.344-0.118c0,14.967,0,29.931,0,44.898c14.744,0,29.489,0,44.234,0
		c0.065-0.01,0.101,0.012,0.113,0.059c0,19.603,0,39.205,0,58.81c7.847,0.136,15.938,0.02,23.878,0.059c0,2.307,0,3.724,0,6.033
		c-47.794,0-561.244,0-609.039,0C26.577,124.938,26.577,123.521,26.577,121.214z M524.32,60.997
		c-0.212,0.167-0.918,0.877-1.217,1.232C523.315,62.061,524.021,61.35,524.32,60.997z M524.666,60.645
		c0.039-0.059-0.077,0.032-0.175,0.177C524.418,60.929,524.639,60.686,524.666,60.645z M525.706,59.588
		c-0.09,0.046-0.69,0.649-0.867,0.879C524.93,60.419,525.53,59.817,525.706,59.588z M526.633,58.647
		c0.031-0.064-0.41,0.354-0.523,0.528C526.08,59.24,526.52,58.825,526.633,58.647z M527.21,58.061
		c0.068-0.094-0.331,0.27-0.406,0.411C526.735,58.567,527.137,58.204,527.21,58.061z M527.673,57.592
		c0.106-0.119-0.256,0.18-0.289,0.294C527.276,58.005,527.636,57.706,527.673,57.592z M528.365,56.889
		c0.034-0.065-0.408,0.352-0.52,0.525C527.815,57.48,528.255,57.062,528.365,56.889z M529.408,55.83
		c-0.093,0.048-0.692,0.65-0.87,0.882C528.632,56.664,529.23,56.062,529.408,55.83z M530.102,55.126
		c0.069-0.094-0.332,0.268-0.404,0.411C529.625,55.633,530.026,55.269,530.102,55.126z M530.563,54.659
		c0.107-0.119-0.253,0.178-0.29,0.293C530.167,55.068,530.525,54.772,530.563,54.659z M530.91,54.304
		c0.041-0.058-0.076,0.034-0.174,0.177C530.661,54.592,530.883,54.349,530.91,54.304z M531.604,53.601
		c0.032-0.066-0.41,0.354-0.521,0.529C531.049,54.195,531.492,53.775,531.604,53.601z M532.414,52.779
		c-0.006-0.031-0.487,0.434-0.638,0.646C531.782,53.456,532.264,52.99,532.414,52.779z M533.223,51.958
		c-0.008-0.031-0.485,0.434-0.637,0.645C532.593,52.632,533.071,52.167,533.223,51.958z M534.726,50.432
		c-0.245,0.203-0.996,0.959-1.329,1.351C533.64,51.58,534.393,50.821,534.726,50.432z M535.071,50.079
		c0.041-0.057-0.076,0.033-0.173,0.177C534.824,50.366,535.045,50.123,535.071,50.079z M535.537,49.61
		c0.105-0.12-0.255,0.18-0.291,0.293C535.14,50.024,535.5,49.724,535.537,49.61z M536.462,48.672
		c0.032-0.066-0.41,0.352-0.522,0.526C535.909,49.263,536.349,48.846,536.462,48.672z M536.923,48.202
		c0.107-0.12-0.253,0.179-0.289,0.294C536.527,48.613,536.888,48.316,536.923,48.202z M537.386,47.732
		c0.105-0.118-0.252,0.179-0.291,0.294C536.988,48.144,537.35,47.845,537.386,47.732z M538.427,46.675
		c-0.046,0.004-0.619,0.577-0.752,0.764C537.723,47.433,538.294,46.863,538.427,46.675z M539.582,45.501
		c-0.004-0.029-0.484,0.436-0.636,0.645C538.953,46.178,539.433,45.712,539.582,45.501z M540.97,44.093
		c-0.209,0.167-0.916,0.88-1.213,1.232C539.965,45.157,540.672,44.445,540.97,44.093z M542.936,42.097
		c-0.402,0.36-1.303,1.273-1.791,1.821C541.545,43.556,542.449,42.644,542.936,42.097z M545.595,39.398
		c-0.632,0.594-1.765,1.743-2.484,2.523C543.741,41.328,544.876,40.178,545.595,39.398z M548.487,36.464
		c-0.71,0.671-1.921,1.9-2.718,2.758C546.476,38.551,547.688,37.322,548.487,36.464z M548.947,35.992
		c0.041-0.058-0.075,0.036-0.171,0.178C548.7,36.28,548.919,36.036,548.947,35.992z M551.029,33.881
		c-0.399,0.359-1.303,1.273-1.79,1.819C549.636,35.339,550.542,34.425,551.029,33.881z M552.417,32.473
		c-0.134,0.09-0.761,0.724-0.982,0.998C551.57,33.38,552.196,32.746,552.417,32.473z M553.459,31.417
		c-0.092,0.047-0.692,0.65-0.87,0.88C552.681,32.248,553.284,31.646,553.459,31.417z M556.235,28.599
		c-0.671,0.632-1.846,1.822-2.604,2.642C554.302,30.608,555.476,29.416,556.235,28.599z M556.812,28.011
		c0.069-0.094-0.331,0.27-0.405,0.411C556.339,28.518,556.738,28.154,556.812,28.011z M558.663,26.134
		c-0.364,0.321-1.226,1.193-1.677,1.702C557.346,27.514,558.21,26.641,558.663,26.134z M563.633,21.087
		c-1.401,1.373-3.306,3.307-4.797,4.871C560.238,24.582,562.143,22.649,563.633,21.087z M564.443,20.264
		c0.071-0.094-0.33,0.269-0.403,0.41C563.968,20.771,564.37,20.408,564.443,20.264z M566.989,17.682
		c-0.596,0.555-1.69,1.667-2.374,2.407C565.208,19.535,566.307,18.422,566.989,17.682z M567.16,17.507
		C567.074,17.629,567.456,17.086,567.16,17.507L567.16,17.507z M574.156,69.39c0,4.578,0,9.155,0,13.732c4.566,0,9.137,0,13.704,0
		c0-4.635,0-9.272,0-13.909c-4.548,0-9.099,0-13.646,0C574.148,69.222,574.152,69.305,574.156,69.39z M591.214,69.39
		c0,4.578,0,9.155,0,13.732c4.566,0,9.134,0,13.7,0c0-4.635,0-9.272,0-13.909c-4.548,0-9.095,0-13.643,0
		C591.204,69.222,591.208,69.305,591.214,69.39z M574.156,86.701c0,4.581,0,9.158,0,13.733c4.566,0,9.137,0,13.704,0
		c0-4.635,0-9.271,0-13.907c-4.548,0-9.099,0-13.646,0C574.148,86.537,574.152,86.619,574.156,86.701z M591.214,86.701
		c0,4.581,0,9.158,0,13.733c4.566,0,9.134,0,13.7,0c0-4.635,0-9.271,0-13.907c-4.548,0-9.095,0-13.643,0
		C591.204,86.537,591.208,86.619,591.214,86.701z"/>
</g>
<g>
	<path fill="#FFFFFF" d="M53.442,134.878l-2.139,1.395c-0.401-0.764-0.781-1.261-1.142-1.493c-0.378-0.264-0.864-0.397-1.461-0.397
		c-0.73,0-1.338,0.227-1.82,0.684c-0.482,0.448-0.724,1.012-0.724,1.693c0,0.936,0.633,1.694,1.901,2.266l1.741,0.786
		c1.42,0.629,2.456,1.4,3.112,2.31c0.656,0.908,0.985,2.021,0.985,3.344c0,1.765-0.537,3.227-1.608,4.383
		c-1.077,1.16-2.417,1.739-4.017,1.739c-1.515,0-2.767-0.495-3.756-1.485c-0.972-0.992-1.58-2.384-1.821-4.174l2.671-0.647
		c0.121,1.13,0.333,1.907,0.633,2.34c0.543,0.828,1.334,1.245,2.377,1.245c0.82,0,1.504-0.304,2.047-0.909
		c0.543-0.604,0.814-1.37,0.814-2.3c0-0.372-0.048-0.715-0.143-1.026c-0.092-0.31-0.24-0.596-0.44-0.855
		c-0.2-0.264-0.458-0.509-0.774-0.736s-0.694-0.444-1.132-0.649l-1.685-0.771c-2.393-1.112-3.588-2.737-3.588-4.875
		c0-1.441,0.503-2.646,1.506-3.616c1.003-0.98,2.251-1.468,3.744-1.468C50.738,131.657,52.311,132.73,53.442,134.878z"/>
	<path fill="#FFFFFF" d="M59.119,141.733v9.505h-2.545v-9.505h-1.086v-2.612h1.086v-4.44h2.545v4.44H61.1v2.612H59.119z"/>
	<path fill="#FFFFFF" d="M62.24,145.094c0-1.751,0.569-3.24,1.708-4.468c1.139-1.229,2.527-1.841,4.163-1.841
		c1.646,0,3.041,0.618,4.187,1.854c1.131,1.236,1.697,2.755,1.697,4.554c0,1.817-0.569,3.339-1.709,4.564
		c-1.146,1.22-2.551,1.829-4.219,1.829c-1.651,0-3.037-0.622-4.153-1.864C62.798,148.493,62.24,146.949,62.24,145.094z
		 M64.843,145.145c0,1.209,0.293,2.169,0.882,2.873c0.602,0.714,1.398,1.068,2.385,1.068c0.997,0,1.793-0.352,2.388-1.057
		c0.598-0.704,0.895-1.646,0.895-2.824c0-1.179-0.297-2.119-0.895-2.822c-0.603-0.716-1.397-1.072-2.388-1.072
		c-0.972,0-1.76,0.356-2.364,1.072C65.145,143.093,64.843,144.014,64.843,145.145z"/>
	<path fill="#FFFFFF" d="M85.173,139.644v3.721c-0.582-0.782-1.102-1.317-1.562-1.604c-0.453-0.298-0.985-0.449-1.596-0.449
		c-0.958,0-1.753,0.369-2.388,1.107c-0.632,0.74-0.951,1.664-0.951,2.774c0,1.137,0.306,2.068,0.917,2.799
		c0.619,0.731,1.408,1.095,2.365,1.095c0.611,0,1.15-0.145,1.618-0.436c0.453-0.281,0.985-0.829,1.596-1.641v3.695
		c-1.034,0.586-2.068,0.881-3.101,0.881c-1.706,0-3.13-0.605-4.277-1.813c-1.146-1.22-1.719-2.733-1.719-4.543
		c0-1.808,0.58-3.335,1.742-4.58c1.161-1.242,2.587-1.864,4.278-1.864C83.182,138.785,84.206,139.071,85.173,139.644z"/>
</g>
<g>
	<path fill="#FFFFFF" d="M90.438,130.226v12.813l3.586-3.918h3.419l-4.787,5.088l5.136,7.029h-3.304l-3.642-5.111l-0.407,0.446
		v4.665h-2.546v-21.013H90.438z"/>
	<path fill="#FFFFFF" d="M99.409,130.226h2.545v9.902c0.905-0.895,1.906-1.343,3-1.343c1.243,0,2.238,0.444,2.987,1.33
		c0.633,0.772,0.949,2.005,0.949,3.694v7.429h-2.544v-7.165c0-0.972-0.156-1.674-0.469-2.109c-0.314-0.435-0.816-0.653-1.51-0.653
		c-0.89,0-1.516,0.304-1.879,0.91c-0.354,0.612-0.532,1.665-0.532,3.159v5.858h-2.545V130.226z"/>
	<path fill="#FFFFFF" d="M111.571,145.094c0-1.751,0.571-3.24,1.709-4.468c1.139-1.229,2.526-1.841,4.164-1.841
		c1.644,0,3.04,0.618,4.187,1.854c1.13,1.236,1.697,2.755,1.697,4.554c0,1.817-0.57,3.339-1.708,4.564
		c-1.147,1.22-2.554,1.829-4.22,1.829c-1.653,0-3.037-0.622-4.152-1.864C112.129,148.493,111.571,146.949,111.571,145.094z
		 M114.173,145.145c0,1.209,0.293,2.169,0.883,2.873c0.604,0.714,1.397,1.068,2.387,1.068c0.994,0,1.791-0.352,2.388-1.057
		c0.595-0.704,0.894-1.646,0.894-2.824c0-1.179-0.299-2.119-0.894-2.822c-0.605-0.716-1.401-1.072-2.388-1.072
		c-0.973,0-1.761,0.356-2.364,1.072C114.475,143.093,114.173,144.014,114.173,145.145z"/>
	<path fill="#FFFFFF" d="M128.542,130.226v21.013h-2.546v-21.013H128.542z"/>
</g>
<g>
	<path fill="#FFFFFF" d="M131.477,139.121h2.545v1.119c0.491-0.563,0.91-0.942,1.257-1.144c0.371-0.208,0.834-0.312,1.391-0.312
		c1.245,0,2.23,0.598,2.953,1.792c0.798-1.194,1.882-1.792,3.248-1.792c2.482,0,3.723,1.654,3.723,4.964v7.489h-2.558v-6.731
		c0-1.16-0.127-1.98-0.384-2.463c-0.263-0.489-0.697-0.733-1.302-0.733c-0.701,0-1.212,0.29-1.533,0.871
		c-0.319,0.581-0.48,1.515-0.48,2.798v6.259h-2.556v-6.692c0-2.156-0.566-3.235-1.697-3.235c-0.717,0-1.241,0.294-1.568,0.884
		c-0.329,0.589-0.493,1.518-0.493,2.785v6.259h-2.545V139.121z"/>
	<path fill="#FFFFFF" d="M156.002,141.187l-2.105,1.231c-0.331-0.738-0.741-1.107-1.232-1.107c-0.235,0-0.435,0.084-0.599,0.255
		c-0.167,0.168-0.251,0.387-0.251,0.652c0,0.465,0.492,0.925,1.471,1.379c1.352,0.639,2.26,1.226,2.728,1.765
		c0.468,0.538,0.702,1.264,0.702,2.175c0,1.169-0.393,2.146-1.176,2.933c-0.762,0.745-1.683,1.117-2.761,1.117
		c-1.848,0-3.156-0.989-3.927-2.972l2.172-1.109c0.302,0.582,0.532,0.95,0.691,1.109c0.309,0.314,0.678,0.472,1.108,0.472
		c0.86,0,1.29-0.432,1.29-1.293c0-0.496-0.332-0.963-0.995-1.393c-0.258-0.142-0.513-0.279-0.77-0.413
		c-0.256-0.131-0.516-0.271-0.781-0.408c-0.739-0.399-1.258-0.798-1.56-1.194c-0.385-0.508-0.578-1.158-0.578-1.952
		c0-1.056,0.328-1.925,0.983-2.614c0.672-0.689,1.488-1.033,2.444-1.033C154.267,138.785,155.314,139.586,156.002,141.187z"/>
</g>
<g>
	<path fill="#FFFFFF" d="M161.55,130.226v10.304c1.019-1.163,2.172-1.744,3.463-1.744c1.486,0,2.722,0.608,3.711,1.829
		c0.987,1.212,1.483,2.722,1.483,4.53c0,1.865-0.499,3.408-1.493,4.628c-0.989,1.208-2.237,1.813-3.746,1.813
		c-1.275,0-2.414-0.538-3.418-1.616v1.269h-2.544v-21.013H161.55z M167.604,145.267c0-1.162-0.289-2.104-0.862-2.834
		c-0.58-0.749-1.308-1.122-2.182-1.122c-0.935,0-1.698,0.36-2.286,1.084c-0.58,0.712-0.87,1.641-0.87,2.785
		c0,1.178,0.285,2.122,0.858,2.825c0.573,0.722,1.328,1.081,2.263,1.081c0.884,0,1.614-0.359,2.197-1.081
		C167.309,147.273,167.604,146.361,167.604,145.267z"/>
	<path fill="#FFFFFF" d="M180.954,139.121h2.555v12.117h-2.555v-1.269c-1.049,1.078-2.177,1.616-3.384,1.616
		c-1.523,0-2.782-0.605-3.779-1.813c-0.988-1.236-1.482-2.778-1.482-4.628c0-1.819,0.494-3.332,1.482-4.542
		c0.988-1.213,2.225-1.817,3.711-1.817c1.283,0,2.433,0.581,3.452,1.744V139.121z M174.91,145.145c0,1.159,0.284,2.105,0.851,2.835
		c0.581,0.739,1.311,1.106,2.194,1.106c0.943,0,1.706-0.354,2.287-1.068c0.58-0.74,0.871-1.677,0.871-2.812
		s-0.292-2.074-0.871-2.811c-0.581-0.724-1.336-1.084-2.264-1.084c-0.875,0-1.606,0.364-2.195,1.095
		C175.201,143.145,174.91,144.057,174.91,145.145z"/>
	<path fill="#FFFFFF" d="M197.312,150.953c0,0.571-0.016,1.076-0.051,1.511c-0.034,0.436-0.082,0.819-0.142,1.15
		c-0.181,0.913-0.535,1.696-1.064,2.353c-0.994,1.261-2.364,1.891-4.106,1.891c-1.471,0-2.681-0.438-3.632-1.313
		c-0.981-0.897-1.546-2.141-1.696-3.727h2.558c0.096,0.598,0.259,1.06,0.485,1.381c0.528,0.756,1.297,1.135,2.309,1.135
		c1.862,0,2.793-1.254,2.793-3.758v-1.693c-1.01,1.139-2.175,1.704-3.496,1.704c-1.5,0-2.73-0.597-3.687-1.789
		c-0.967-1.212-1.45-2.726-1.45-4.543c0-1.767,0.448-3.267,1.346-4.502c0.967-1.312,2.241-1.967,3.825-1.967
		c1.388,0,2.541,0.569,3.461,1.703v-1.367h2.546V150.953z M194.868,145.211c0-1.176-0.288-2.115-0.86-2.817
		c-0.581-0.723-1.323-1.083-2.228-1.083c-0.967,0-1.727,0.393-2.286,1.181c-0.507,0.703-0.759,1.613-0.759,2.732
		c0,1.102,0.252,2.004,0.759,2.708c0.55,0.77,1.312,1.154,2.286,1.154c0.972,0,1.743-0.388,2.306-1.166
		C194.608,147.216,194.868,146.313,194.868,145.211z"/>
	<path fill="#FFFFFF" d="M210.467,145.841h-7.897c0.068,0.993,0.363,1.787,0.883,2.373c0.52,0.582,1.188,0.872,2.003,0.872
		c0.634,0,1.157-0.164,1.572-0.497c0.407-0.33,0.871-0.945,1.392-1.841l2.149,1.318c-0.332,0.622-0.682,1.155-1.053,1.598
		c-0.37,0.445-0.764,0.81-1.188,1.097c-0.423,0.285-0.878,0.494-1.369,0.627c-0.49,0.134-1.022,0.198-1.595,0.198
		c-1.646,0-2.965-0.579-3.961-1.739c-0.996-1.17-1.492-2.723-1.492-4.654c0-1.918,0.482-3.467,1.447-4.651
		c0.974-1.17,2.263-1.756,3.871-1.756c1.62,0,2.902,0.569,3.845,1.703c0.936,1.13,1.404,2.693,1.404,4.691L210.467,145.841z
		 M207.855,143.551c-0.356-1.494-1.212-2.24-2.569-2.24c-0.311,0-0.601,0.051-0.872,0.158c-0.271,0.101-0.518,0.25-0.74,0.446
		c-0.223,0.193-0.413,0.427-0.572,0.702c-0.158,0.273-0.279,0.586-0.362,0.934H207.855z"/>
</g>
<g>
	<path fill="#FFFFFF" d="M213.088,139.121h2.545v1.083c0.467-0.539,0.882-0.906,1.245-1.107c0.367-0.208,0.805-0.312,1.312-0.312
		c0.671,0,1.373,0.24,2.104,0.721l-1.165,2.565c-0.482-0.382-0.954-0.573-1.414-0.573c-1.388,0-2.082,1.15-2.082,3.456v6.284h-2.545
		V139.121z"/>
	<path fill="#FFFFFF" d="M221.508,134.082c0-0.488,0.161-0.911,0.487-1.268c0.323-0.358,0.712-0.535,1.164-0.535
		c0.46,0,0.854,0.177,1.179,0.535c0.324,0.348,0.485,0.775,0.485,1.28c0,0.506-0.162,0.937-0.485,1.293
		c-0.318,0.358-0.707,0.536-1.167,0.536c-0.46,0-0.853-0.178-1.175-0.536C221.669,135.031,221.508,134.597,221.508,134.082z
		 M224.439,139.121v12.117h-2.547v-12.117H224.439z"/>
</g>
<g>
	<path fill="#FFFFFF" d="M237.559,145.841h-7.897c0.066,0.993,0.362,1.787,0.882,2.373c0.52,0.582,1.187,0.872,2.002,0.872
		c0.633,0,1.157-0.164,1.572-0.497c0.408-0.33,0.873-0.945,1.393-1.841l2.149,1.318c-0.331,0.622-0.683,1.155-1.05,1.598
		c-0.37,0.445-0.767,0.81-1.189,1.097c-0.422,0.285-0.879,0.494-1.368,0.627c-0.491,0.134-1.023,0.198-1.595,0.198
		c-1.645,0-2.966-0.579-3.959-1.739c-0.997-1.17-1.495-2.723-1.495-4.654c0-1.918,0.482-3.467,1.448-4.651
		c0.974-1.17,2.264-1.756,3.87-1.756c1.622,0,2.904,0.569,3.846,1.703c0.936,1.13,1.403,2.693,1.403,4.691L237.559,145.841z
		 M234.944,143.551c-0.355-1.494-1.21-2.24-2.568-2.24c-0.308,0-0.599,0.051-0.872,0.158c-0.271,0.101-0.517,0.25-0.74,0.446
		c-0.222,0.193-0.412,0.427-0.569,0.702c-0.161,0.273-0.281,0.586-0.364,0.934H234.944z"/>
	<path fill="#FFFFFF" d="M242.897,141.733v9.505h-2.545v-9.505h-1.086v-2.612h1.086v-4.44h2.545v4.44h1.98v2.612H242.897z"/>
	<path fill="#FFFFFF" d="M260.07,141.187l-2.106,1.231c-0.329-0.738-0.742-1.107-1.231-1.107c-0.235,0-0.435,0.084-0.601,0.255
		c-0.166,0.168-0.249,0.387-0.249,0.652c0,0.465,0.49,0.925,1.47,1.379c1.352,0.639,2.259,1.226,2.727,1.765
		c0.468,0.538,0.702,1.264,0.702,2.175c0,1.169-0.393,2.146-1.175,2.933c-0.763,0.745-1.684,1.117-2.762,1.117
		c-1.847,0-3.155-0.989-3.926-2.972l2.172-1.109c0.301,0.582,0.532,0.95,0.691,1.109c0.309,0.314,0.678,0.472,1.108,0.472
		c0.858,0,1.289-0.432,1.289-1.293c0-0.496-0.332-0.963-0.995-1.393c-0.257-0.142-0.513-0.279-0.77-0.413
		c-0.256-0.131-0.516-0.271-0.778-0.408c-0.742-0.399-1.262-0.798-1.562-1.194c-0.384-0.508-0.578-1.158-0.578-1.952
		c0-1.056,0.329-1.925,0.985-2.614c0.67-0.689,1.485-1.033,2.442-1.033C258.335,138.785,259.383,139.586,260.07,141.187z"/>
	<path fill="#FFFFFF" d="M273.057,145.841h-7.897c0.07,0.993,0.362,1.787,0.883,2.373c0.52,0.582,1.188,0.872,2.002,0.872
		c0.634,0,1.158-0.164,1.572-0.497c0.408-0.33,0.873-0.945,1.392-1.841l2.149,1.318c-0.331,0.622-0.682,1.155-1.051,1.598
		c-0.37,0.445-0.766,0.81-1.188,1.097c-0.422,0.285-0.88,0.494-1.369,0.627c-0.49,0.134-1.022,0.198-1.596,0.198
		c-1.644,0-2.963-0.579-3.96-1.739c-0.995-1.17-1.493-2.723-1.493-4.654c0-1.918,0.481-3.467,1.447-4.651
		c0.973-1.17,2.263-1.756,3.871-1.756c1.622,0,2.902,0.569,3.845,1.703c0.936,1.13,1.403,2.693,1.403,4.691L273.057,145.841z
		 M270.443,143.551c-0.355-1.494-1.21-2.24-2.567-2.24c-0.309,0-0.599,0.051-0.871,0.158c-0.271,0.101-0.519,0.25-0.743,0.446
		c-0.221,0.193-0.412,0.427-0.571,0.702c-0.159,0.273-0.279,0.586-0.362,0.934H270.443z"/>
	<path fill="#FFFFFF" d="M283.895,130.226h2.557v21.013h-2.557v-1.269c-1.003,1.078-2.139,1.616-3.406,1.616
		c-1.509,0-2.76-0.605-3.755-1.813c-0.988-1.236-1.482-2.778-1.482-4.628c0-1.809,0.494-3.318,1.482-4.53
		c0.979-1.221,2.212-1.829,3.699-1.829c1.291,0,2.445,0.581,3.463,1.744V130.226z M277.853,145.145c0,1.159,0.283,2.105,0.85,2.835
		c0.581,0.739,1.312,1.106,2.195,1.106c0.942,0,1.706-0.354,2.285-1.068c0.581-0.74,0.871-1.677,0.871-2.812
		s-0.29-2.074-0.871-2.811c-0.58-0.724-1.336-1.084-2.263-1.084c-0.875,0-1.606,0.364-2.195,1.095
		C278.144,143.145,277.853,144.057,277.853,145.145z"/>
	<path fill="#FFFFFF" d="M297.741,139.121h2.557v12.117h-2.557v-1.269c-1.047,1.078-2.175,1.616-3.382,1.616
		c-1.525,0-2.783-0.605-3.78-1.813c-0.988-1.236-1.48-2.778-1.48-4.628c0-1.819,0.492-3.332,1.48-4.542
		c0.99-1.213,2.227-1.817,3.712-1.817c1.283,0,2.434,0.581,3.45,1.744V139.121z M291.701,145.145c0,1.159,0.282,2.105,0.848,2.835
		c0.58,0.739,1.312,1.106,2.194,1.106c0.942,0,1.705-0.354,2.288-1.068c0.579-0.74,0.87-1.677,0.87-2.812s-0.291-2.074-0.87-2.811
		c-0.583-0.724-1.338-1.084-2.264-1.084c-0.876,0-1.607,0.364-2.197,1.095C291.99,143.145,291.701,144.057,291.701,145.145z"/>
	<path fill="#FFFFFF" d="M303.466,139.121h2.558v1.119c0.891-0.971,1.893-1.455,3.009-1.455c1.282,0,2.283,0.444,2.998,1.33
		c0.618,0.756,0.928,1.987,0.928,3.694v7.429h-2.556v-6.76c0-1.191-0.151-2.016-0.452-2.472c-0.295-0.464-0.831-0.696-1.608-0.696
		c-0.845,0-1.442,0.308-1.799,0.92c-0.345,0.605-0.52,1.659-0.52,3.168v5.84h-2.558V139.121z"/>
</g>
<g>
	<path fill="#FFFFFF" d="M327.871,134.755h-3.022l1.449-2.725h4.209v19.208h-2.636V134.755z"/>
	<path fill="#FFFFFF" d="M339.059,151.897l-1.935-1.58l4.175-6.259c-0.225,0.034-0.418,0.061-0.577,0.077s-0.286,0.024-0.386,0.024
		c-1.408,0-2.632-0.594-3.665-1.777c-1.025-1.179-1.539-2.598-1.539-4.257c0-1.768,0.571-3.276,1.71-4.528
		c1.146-1.26,2.519-1.891,4.117-1.891c1.592,0,2.977,0.62,4.153,1.865c1.174,1.236,1.764,2.697,1.764,4.379
		c0,1.493-0.573,3.106-1.718,4.839L339.059,151.897z M337.702,137.916c0,1.034,0.319,1.905,0.962,2.613
		c0.647,0.712,1.428,1.067,2.34,1.067s1.69-0.352,2.332-1.056c0.648-0.715,0.973-1.573,0.973-2.578c0-1.002-0.324-1.861-0.973-2.575
		c-0.642-0.703-1.424-1.058-2.344-1.058c-0.903,0-1.678,0.354-2.317,1.058C338.026,136.102,337.702,136.943,337.702,137.916z"/>
</g>
<g>
	<path fill="#FFFFFF" d="M359.127,134.755h-5.385l-0.861,3.172c0.127-0.016,0.252-0.027,0.367-0.037
		c0.115-0.009,0.227-0.013,0.323-0.013c1.698,0,3.088,0.63,4.175,1.893c1.094,1.25,1.642,2.856,1.642,4.812
		c0,2.025-0.618,3.692-1.857,5.001c-1.234,1.312-2.794,1.966-4.673,1.966c-2.315,0-4.14-1.195-5.476-3.582l1.99-1.853
		c0.552,1.027,1.106,1.753,1.665,2.177c0.558,0.414,1.238,0.622,2.047,0.622c1.057,0,1.943-0.408,2.659-1.221
		c0.715-0.837,1.076-1.852,1.076-3.048c0-1.227-0.356-2.23-1.065-3.012c-0.709-0.803-1.595-1.205-2.66-1.205
		c-1.182,0-2.204,0.57-3.064,1.705h-0.872l2.75-10.103h7.22V134.755z"/>
	<path fill="#FFFFFF" d="M370.415,134.755h-8.622v-2.725h13.023l-11.021,19.867l-2.095-1.454L370.415,134.755z"/>
</g>
<g>
	<path fill="#FFFFFF" d="M372.72,149.847c0-0.467,0.153-0.868,0.463-1.209c0.309-0.339,0.678-0.51,1.106-0.51
		c0.433,0,0.804,0.171,1.112,0.51c0.307,0.341,0.462,0.746,0.462,1.22c0,0.481-0.155,0.893-0.462,1.232
		c-0.303,0.333-0.674,0.496-1.112,0.496c-0.443,0-0.817-0.163-1.117-0.496C372.868,150.758,372.72,150.342,372.72,149.847z"/>
</g>
<g>
	<path fill="#FFFFFF" d="M189.18,65.966c3.608,0,6.558-5.261,6.558-8.929c0-2.872-2.131-4.944-6.064-4.944
		c-3.117,0-6.886,5.263-6.886,8.771C182.788,63.573,185.246,65.966,189.18,65.966z"/>
	<path fill="#FFFFFF" d="M522.606,105.027c-0.655,0-1.149,0.48-1.969,1.277c-2.128,2.07-4.588,3.666-7.375,3.666
		c-3.771,0-6.721-3.666-6.721-11.958c4.424-4.464,8.523-11.637,8.523-17.22c0-3.347-2.132-6.217-6.886-6.217
		c-3.441,0-6.555,1.913-9.016,4.623c-2.297-3.189-5.243-5.421-11.312-5.421c-14.119,0-25.728,8.931-28.841,20.953
		c-5.122,7.368-11.53,14.123-18.533,14.123c-3.774,0-5.903-2.551-5.903-6.855c0-8.61,6.067-23.437,8.855-35.555h12.621
		c1.148,0,3.115-2.231,3.115-3.029c0-0.479-0.327-0.638-0.654-0.638h-14.1c0.492-3.029,0.819-6.377,0.819-9.247
		c0-3.189-6.722-7.655-9.999-7.655c-0.82,0-1.312,0.639-1.312,1.597c0,1.115,0.653,2.231,0.653,4.622
		c0,4.465-0.983,7.815-1.801,10.684h-5.412c-1.146,0-2.787,2.233-2.787,3.029c0,0.479,0.331,0.638,0.658,0.638h6.391
		c-3.051,9.022-9.117,17.959-12.32,26.523c-0.172,0.17-0.318,0.371-0.463,0.581c-5.245,7.811-11.801,14.988-17.373,14.988
		c-3.445,0-5.082-2.075-5.082-5.104c0-5.103,5.573-14.508,5.573-20.885c0-4.945-2.624-8.771-10.164-8.771
		c-8.688,0-18.853,9.726-23.607,16.9c0.494-2.232,1.145-6.376,1.145-9.886c0-3.827-5.734-9.088-9.67-9.088
		c-1.146,0-1.966,0.796-1.966,1.755c0,0.956,0.819,1.912,0.819,4.623c0,4.851-2.908,9.947-5.508,15.61
		c-5.243,7.774-13.076,16.278-23.506,16.278c-6.067,0-10.001-4.145-10.001-10.206c7.704-2.709,20.822-9.404,20.822-18.811
		c0-3.668-2.462-7.175-10.003-7.175c-13.849,0-25.707,10.047-27.965,22.73c-4.838,6.642-10.446,12.346-15.308,12.346
		c-2.462,0-5.083-1.594-5.083-5.102c0-7.812,6.395-15.466,6.395-22.321c0-4.306-2.295-7.653-9.344-7.653
		c-8.034,0-19.179,8.45-26.558,19.451c1.148-3.347,2.786-8.769,2.786-11.798c0-4.624-2.131-7.653-8.359-7.653
		c-10,0-20.657,9.564-26.065,19.132c0,0,2.132-6.377,2.132-11.639c0-4.464-5.575-9.566-9.836-9.566
		c-1.147,0-1.804,0.636-1.804,1.437c0,1.114,0.984,2.39,0.984,4.303c0,5.621-3.234,11.243-6.082,17.087
		c-5.178,7.472-12.033,14.641-17.688,14.641c-3.114,0-5.246-1.593-5.246-4.784c0-8.607,5.083-15.302,5.083-19.928
		c0-4.146-1.804-6.698-4.753-8.928c-0.821-0.638-2.788-1.755-3.607-1.755s-1.477,0.478-1.477,1.274c0,0.8,0.657,1.277,0.657,4.784
		c0,4.155-5.551,9.886-9.04,16.882c-5.016,6.332-11.426,11.181-17.352,11.181c-6.065,0-9.18-4.466-9.18-11.162
		c0-4.944,0.49-9.09,0.49-9.09c16.067-14.827,35.737-40.813,35.737-53.409c0-4.625-3.441-7.813-8.688-7.813
		c-7.541,0-17.705,6.219-28.032,23.278c-9.997,16.406-14.18,34.675-14.553,46.158c-4.91,6.858-10.59,12.674-15.607,12.674
		c-6.557,0-7.541-7.016-7.541-18.813c0-17.379,6.721-38.901,11.476-50.541c3.114-7.654,4.59-10.364,4.59-12.756
		c0-2.231-7.377-4.942-10.328-4.942c-2.788,0-3.934,0.797-5.738,3.348c-8.853,12.596-19.18,28.699-28.195,42.41
		C70.337,58.313,60.5,50.821,47.55,50.821c-12.624,0-22.46,8.928-22.46,20.566c0,10.841,9.345,15.784,16.558,15.784
		c1.147,0,1.64-0.319,1.64-0.796c0-0.479-0.328-0.641-0.82-0.641c-4.261-0.318-8.359-4.303-8.359-9.725
		c0-9.565,8.687-12.595,16.392-12.595c9.506,0,17.212,3.348,23.441,8.927c-16.392,24.234-31.638,40.977-49.016,40.977
		c-7.54,0-11.311-3.987-11.311-10.524c0-5.26,4.918-8.769,8.198-9.086c0.82-0.159,1.147-0.32,1.147-0.799
		c0-0.319-0.327-0.637-1.147-0.637c-8.688,0-18.198,7.334-18.198,18.336c0,9.723,7.214,19.608,21.968,19.608
		c3.335,0,6.576-0.788,9.728-2.199c2.607-1.166,5.15-2.771,7.632-4.711c13.241-10.358,24.703-30.496,34.441-47.298
		c5.083,6.059,8.853,13.873,11.476,22.799c3.117,11.162,6.556,18.496,16.884,18.496c8.926,0,16.931-9.172,22.86-17.586
		c0.766,13.396,8.599,17.586,17.627,17.586c8.28,0,15.672-6.436,21.441-13.469c-0.188,1.066-0.293,2.153-0.293,3.265
		c0,5.581,4.098,10.204,13.441,10.204c8.212,0,16.065-7.094,22.057-14.526c-0.561,1.988-0.912,4.011-0.912,6.076
		c0,5.899,5.903,8.45,10.491,8.45c1.968,0,3.607-1.115,3.607-3.507c0-4.625,2.459-11.002,5.738-17.381
		c5.408-10.682,15.409-17.537,18.687-17.537c2.132,0,2.789,1.116,2.789,3.188c0,6.378-10.001,14.827-10.001,27.264
		c0,5.422,7.213,7.973,10.821,7.973c2.95,0,4.588-1.115,4.588-2.871c0-5.42,0.984-11.479,4.919-18.017
		c6.064-10.041,15.736-17.059,18.522-17.059c1.805,0,2.952,0.797,2.952,2.87c0,5.26-9.835,12.755-9.835,24.234
		c0,6.062,4.098,10.843,12.951,10.843c9.686,0,17.801-8.334,23.768-16.402c0.011,11.626,7.875,16.402,19.179,16.402
		c12.622,0,22.411-8.073,28.968-16.019c-0.665,2.364-1.103,4.824-1.103,7.409c0,6.856,4.917,8.609,8.196,8.609
		c3.608,0,6.723-1.115,6.723-3.507c0-5.581,2.133-14.19,4.593-18.655c4.915-8.928,14.259-16.262,18.355-16.262
		c2.625,0,3.607,1.594,3.607,3.507c0,4.941-10.489,13.87-10.489,24.234c0,6.379,4.588,10.683,12.621,10.683
		c10.061,0,18.81-9.497,24.929-18.03c-0.206,1.236-0.343,2.465-0.343,3.681c0,8.61,5.411,14.35,15.247,14.35
		c10.341,0,19.522-9.251,25.789-17.694c-0.031,0.526-0.052,1.056-0.052,1.589c0,11.482,7.374,16.105,16.72,16.105
		c8.69,0,15.083-7.175,18.032-11.162c1.312,6.221,5.739,11.162,13.442,11.162c7.541,0,11.477-4.304,15.574-8.93
		c1.147-1.274,1.475-1.911,1.475-2.549C523.426,105.349,523.099,105.027,522.606,105.027z M332.942,78.403
		c2.461,0,3.769,1.593,3.769,3.825c0,5.902-10.323,12.595-17.211,14.667C319.5,87.809,326.549,78.403,332.942,78.403z
		 M155.413,56.082c7.378-14.668,14.097-21.047,17.211-21.047c1.642,0,2.624,1.436,2.624,2.871c0,9.088-18.36,33.003-30.655,44.96
		C144.593,82.866,148.201,70.431,155.413,56.082z M89.024,88.446c-1.966-4.783-4.919-11.001-8.852-17.059
		c8.524-13.712,17.378-27.901,21.967-35.077l0.982,0.479C99.187,46.992,90.664,69.951,89.024,88.446z M492.28,103.116
		c-3.28,4.304-6.887,7.971-10.657,7.971c-3.77,0-6.065-3.348-6.065-9.567c0-12.913,7.376-24.234,15.409-24.234
		c3.116,0,4.918,1.275,6.395,3.668C493.592,86.533,492.28,96.101,492.28,103.116z"/>
</g>
</svg>
