<?xml version="1.0" encoding="utf-8"?>
<!-- Generator: Adobe Illustrator 15.1.0, SVG Export Plug-In . SVG Version: 6.00 Build 0)  -->
<!DOCTYPE svg PUBLIC "-//W3C//DTD SVG 1.1//EN" "http://www.w3.org/Graphics/SVG/1.1/DTD/svg11.dtd">
<svg version="1.1" id="Layer_1" xmlns="http://www.w3.org/2000/svg" xmlns:xlink="http://www.w3.org/1999/xlink" x="0px" y="0px"
	 width="580px" height="170px" viewBox="0 0 580 170" enable-background="new 0 0 580 170" xml:space="preserve">
<g>
	<path fill="#FFFFFF" d="M75.934,144.744l-2.233,1.324c-0.418-0.725-0.815-1.197-1.193-1.418c-0.395-0.252-0.902-0.379-1.525-0.379
		c-0.764,0-1.398,0.217-1.902,0.65c-0.505,0.426-0.757,0.963-0.757,1.609c0,0.891,0.662,1.609,1.986,2.152l1.819,0.746
		c1.481,0.598,2.565,1.33,3.251,2.193s1.028,1.922,1.028,3.176c0,1.68-0.56,3.066-1.679,4.164c-1.127,1.104-2.525,1.654-4.196,1.654
		c-1.583,0-2.892-0.471-3.924-1.412c-1.016-0.941-1.65-2.264-1.902-3.965l2.789-0.615c0.126,1.072,0.347,1.812,0.662,2.223
		c0.567,0.787,1.395,1.182,2.481,1.182c0.859,0,1.572-0.287,2.14-0.861c0.567-0.576,0.851-1.303,0.851-2.186
		c0-0.354-0.049-0.68-0.147-0.975s-0.252-0.566-0.461-0.814s-0.479-0.48-0.81-0.697s-0.725-0.424-1.182-0.619l-1.762-0.732
		c-2.497-1.055-3.746-2.6-3.746-4.631c0-1.369,0.523-2.516,1.572-3.436c1.048-0.93,2.352-1.395,3.912-1.395
		C73.109,141.684,74.752,142.705,75.934,144.744z"/>
	<path fill="#FFFFFF" d="M81.865,151.258v9.029h-2.659v-9.029h-1.135v-2.482h1.135v-4.219h2.659v4.219h2.068v2.482H81.865z"/>
	<path fill="#FFFFFF" d="M85.125,154.449c0-1.664,0.595-3.078,1.785-4.244c1.189-1.166,2.639-1.75,4.349-1.75
		c1.718,0,3.176,0.588,4.373,1.762c1.183,1.174,1.773,2.617,1.773,4.326c0,1.725-0.595,3.172-1.785,4.338
		c-1.197,1.158-2.667,1.736-4.408,1.736c-1.726,0-3.172-0.59-4.338-1.771C85.708,157.68,85.125,156.213,85.125,154.449z
		 M87.844,154.496c0,1.15,0.307,2.061,0.922,2.73c0.63,0.678,1.461,1.016,2.493,1.016c1.04,0,1.872-0.334,2.494-1.004
		s0.934-1.564,0.934-2.684s-0.312-2.014-0.934-2.684c-0.631-0.678-1.462-1.016-2.494-1.016c-1.016,0-1.84,0.338-2.47,1.016
		C88.158,152.549,87.844,153.424,87.844,154.496z"/>
	<path fill="#FFFFFF" d="M109.08,149.271v3.533c-0.606-0.74-1.15-1.248-1.631-1.523c-0.473-0.283-1.028-0.426-1.666-0.426
		c-1.001,0-1.832,0.35-2.494,1.051c-0.662,0.703-0.993,1.58-0.993,2.637c0,1.08,0.319,1.967,0.958,2.658
		c0.646,0.695,1.469,1.041,2.47,1.041c0.639,0,1.201-0.139,1.69-0.414c0.473-0.268,1.028-0.787,1.666-1.561v3.512
		c-1.079,0.559-2.159,0.838-3.238,0.838c-1.78,0-3.27-0.574-4.468-1.725c-1.197-1.158-1.796-2.596-1.796-4.314
		c0-1.717,0.606-3.168,1.819-4.35c1.214-1.182,2.703-1.773,4.468-1.773C107,148.455,108.071,148.729,109.08,149.271z"/>
</g>
<g>
	<path fill="#FFFFFF" d="M114.58,140.324v12.174l3.747-3.723h3.569l-4.999,4.834l5.365,6.678h-3.451l-3.806-4.857l-0.426,0.426
		v4.432h-2.659v-19.963H114.58z"/>
	<path fill="#FFFFFF" d="M123.952,140.324h2.659v9.408c0.946-0.852,1.99-1.277,3.133-1.277c1.3,0,2.34,0.422,3.12,1.266
		c0.662,0.732,0.992,1.902,0.992,3.51v7.057h-2.659v-6.809c0-0.922-0.163-1.59-0.49-2.002c-0.327-0.414-0.853-0.621-1.578-0.621
		c-0.93,0-1.583,0.287-1.962,0.863c-0.37,0.582-0.556,1.584-0.556,3.002v5.566h-2.659V140.324z"/>
	<path fill="#FFFFFF" d="M136.657,154.449c0-1.664,0.595-3.078,1.785-4.244c1.189-1.166,2.639-1.75,4.349-1.75
		c1.718,0,3.176,0.588,4.373,1.762c1.183,1.174,1.773,2.617,1.773,4.326c0,1.725-0.595,3.172-1.785,4.338
		c-1.197,1.158-2.667,1.736-4.408,1.736c-1.726,0-3.172-0.59-4.338-1.771C137.24,157.68,136.657,156.213,136.657,154.449z
		 M139.376,154.496c0,1.15,0.307,2.061,0.922,2.73c0.63,0.678,1.461,1.016,2.493,1.016c1.04,0,1.872-0.334,2.494-1.004
		s0.934-1.564,0.934-2.684s-0.312-2.014-0.934-2.684c-0.631-0.678-1.462-1.016-2.494-1.016c-1.016,0-1.84,0.338-2.47,1.016
		C139.69,152.549,139.376,153.424,139.376,154.496z"/>
	<path fill="#FFFFFF" d="M154.385,140.324v19.963h-2.659v-19.963H154.385z"/>
</g>
<g>
	<path fill="#FFFFFF" d="M157.451,148.775h2.659v1.062c0.513-0.535,0.95-0.896,1.312-1.086c0.386-0.197,0.87-0.297,1.453-0.297
		c1.301,0,2.329,0.568,3.085,1.703c0.835-1.135,1.966-1.703,3.393-1.703c2.592,0,3.889,1.572,3.889,4.717v7.115h-2.672v-6.395
		c0-1.104-0.134-1.883-0.401-2.34c-0.276-0.465-0.729-0.697-1.359-0.697c-0.732,0-1.267,0.275-1.602,0.826
		c-0.335,0.553-0.502,1.439-0.502,2.66v5.945h-2.671v-6.359c0-2.049-0.592-3.072-1.773-3.072c-0.748,0-1.294,0.279-1.637,0.84
		c-0.343,0.559-0.515,1.441-0.515,2.646v5.945h-2.659V148.775z"/>
	<path fill="#FFFFFF" d="M183.07,150.736l-2.198,1.17c-0.347-0.701-0.776-1.051-1.288-1.051c-0.245,0-0.453,0.08-0.627,0.242
		c-0.173,0.16-0.26,0.367-0.26,0.619c0,0.441,0.512,0.877,1.536,1.311c1.411,0.605,2.36,1.164,2.849,1.676s0.732,1.201,0.732,2.066
		c0,1.109-0.409,2.039-1.229,2.785c-0.796,0.709-1.758,1.062-2.884,1.062c-1.931,0-3.298-0.941-4.102-2.824l2.27-1.053
		c0.314,0.553,0.556,0.902,0.721,1.053c0.323,0.299,0.709,0.449,1.158,0.449c0.898,0,1.348-0.41,1.348-1.229
		c0-0.473-0.347-0.914-1.04-1.324c-0.269-0.135-0.536-0.264-0.804-0.391c-0.269-0.125-0.54-0.256-0.815-0.389
		c-0.772-0.379-1.316-0.758-1.631-1.135c-0.402-0.48-0.604-1.1-0.604-1.855c0-1.002,0.343-1.828,1.028-2.482
		c0.701-0.654,1.553-0.982,2.553-0.982C181.258,148.455,182.354,149.217,183.07,150.736z"/>
</g>
<g>
	<path fill="#FFFFFF" d="M188.866,140.324v9.787c1.064-1.104,2.27-1.656,3.617-1.656c1.552,0,2.844,0.58,3.877,1.738
		c1.031,1.15,1.548,2.584,1.548,4.303c0,1.771-0.521,3.238-1.561,4.396c-1.032,1.15-2.336,1.725-3.912,1.725
		c-1.331,0-2.521-0.512-3.569-1.535v1.205h-2.659v-19.963H188.866z M195.189,154.613c0-1.104-0.299-2-0.897-2.693
		c-0.607-0.711-1.367-1.064-2.281-1.064c-0.978,0-1.773,0.342-2.388,1.027c-0.606,0.678-0.91,1.561-0.91,2.648
		c0,1.119,0.3,2.014,0.898,2.684c0.599,0.686,1.387,1.027,2.363,1.027c0.922,0,1.687-0.342,2.293-1.027
		C194.883,156.521,195.189,155.654,195.189,154.613z"/>
	<path fill="#FFFFFF" d="M209.135,148.775h2.671v11.512h-2.671v-1.205c-1.096,1.023-2.273,1.535-3.534,1.535
		c-1.592,0-2.907-0.574-3.947-1.725c-1.032-1.174-1.548-2.641-1.548-4.396c0-1.727,0.516-3.164,1.548-4.314s2.324-1.727,3.877-1.727
		c1.339,0,2.541,0.553,3.604,1.656V148.775z M202.823,154.496c0,1.104,0.296,2,0.887,2.693c0.606,0.703,1.371,1.053,2.293,1.053
		c0.984,0,1.78-0.338,2.388-1.016c0.606-0.701,0.91-1.592,0.91-2.672s-0.304-1.971-0.91-2.672c-0.607-0.686-1.396-1.027-2.364-1.027
		c-0.914,0-1.679,0.346-2.293,1.039C203.127,152.598,202.823,153.463,202.823,154.496z"/>
	<path fill="#FFFFFF" d="M226.224,160.016c0,0.543-0.019,1.021-0.054,1.436s-0.085,0.777-0.147,1.094
		c-0.189,0.865-0.56,1.611-1.111,2.232c-1.04,1.199-2.47,1.797-4.29,1.797c-1.536,0-2.801-0.416-3.794-1.246
		c-1.024-0.855-1.615-2.035-1.772-3.541h2.671c0.102,0.568,0.271,1.006,0.508,1.312c0.552,0.717,1.355,1.076,2.411,1.076
		c1.946,0,2.919-1.189,2.919-3.57v-1.607c-1.056,1.08-2.272,1.619-3.651,1.619c-1.568,0-2.853-0.566-3.854-1.701
		c-1.009-1.15-1.513-2.588-1.513-4.314c0-1.678,0.469-3.104,1.406-4.277c1.009-1.246,2.341-1.869,3.995-1.869
		c1.45,0,2.655,0.541,3.616,1.621v-1.301h2.66V160.016z M223.67,154.561c0-1.117-0.299-2.01-0.897-2.678
		c-0.607-0.686-1.383-1.027-2.329-1.027c-1.009,0-1.804,0.373-2.387,1.121c-0.528,0.668-0.792,1.533-0.792,2.596
		c0,1.047,0.264,1.904,0.792,2.572c0.574,0.732,1.371,1.098,2.387,1.098c1.017,0,1.82-0.369,2.411-1.109
		C223.398,156.465,223.67,155.607,223.67,154.561z"/>
	<path fill="#FFFFFF" d="M239.967,155.158h-8.25c0.071,0.945,0.379,1.697,0.922,2.256c0.544,0.553,1.241,0.828,2.092,0.828
		c0.662,0,1.21-0.158,1.644-0.473c0.425-0.314,0.91-0.898,1.453-1.75l2.246,1.254c-0.347,0.59-0.713,1.098-1.1,1.518
		c-0.386,0.422-0.8,0.77-1.24,1.041c-0.441,0.271-0.919,0.471-1.431,0.596c-0.512,0.127-1.067,0.189-1.666,0.189
		c-1.718,0-3.097-0.551-4.137-1.654c-1.04-1.111-1.561-2.584-1.561-4.42c0-1.82,0.504-3.293,1.513-4.42
		c1.017-1.111,2.364-1.668,4.042-1.668c1.694,0,3.034,0.541,4.019,1.621c0.978,1.07,1.467,2.557,1.467,4.455L239.967,155.158z
		 M237.236,152.982c-0.37-1.418-1.265-2.127-2.683-2.127c-0.323,0-0.627,0.049-0.91,0.148c-0.283,0.098-0.542,0.24-0.774,0.424
		c-0.232,0.186-0.431,0.408-0.597,0.668c-0.165,0.26-0.292,0.557-0.378,0.887H237.236z"/>
</g>
<g>
	<path fill="#FFFFFF" d="M242.703,148.775h2.659v1.027c0.488-0.512,0.922-0.861,1.301-1.051c0.385-0.197,0.843-0.297,1.371-0.297
		c0.701,0,1.434,0.23,2.197,0.686l-1.217,2.436c-0.504-0.361-0.997-0.543-1.478-0.543c-1.45,0-2.175,1.094-2.175,3.285v5.969h-2.659
		V148.775z"/>
	<path fill="#FFFFFF" d="M251.5,143.988c0-0.465,0.169-0.867,0.509-1.205c0.338-0.34,0.744-0.508,1.217-0.508
		c0.48,0,0.891,0.168,1.229,0.508c0.339,0.33,0.508,0.736,0.508,1.217s-0.169,0.891-0.508,1.229c-0.331,0.34-0.737,0.51-1.218,0.51
		s-0.891-0.17-1.229-0.51C251.669,144.891,251.5,144.477,251.5,143.988z M254.562,148.775v11.512h-2.66v-11.512H254.562z"/>
</g>
<g>
	<path fill="#FFFFFF" d="M268.267,155.158h-8.25c0.07,0.945,0.379,1.697,0.922,2.256c0.543,0.553,1.241,0.828,2.092,0.828
		c0.662,0,1.209-0.158,1.643-0.473c0.426-0.314,0.91-0.898,1.454-1.75l2.245,1.254c-0.346,0.59-0.713,1.098-1.099,1.518
		c-0.386,0.422-0.8,0.77-1.241,1.041s-0.918,0.471-1.43,0.596c-0.512,0.127-1.068,0.189-1.666,0.189
		c-1.719,0-3.098-0.551-4.137-1.654c-1.041-1.111-1.561-2.584-1.561-4.42c0-1.82,0.504-3.293,1.513-4.42
		c1.017-1.111,2.364-1.668,4.042-1.668c1.694,0,3.033,0.541,4.019,1.621c0.978,1.07,1.466,2.557,1.466,4.455L268.267,155.158z
		 M265.536,152.982c-0.371-1.418-1.265-2.127-2.684-2.127c-0.322,0-0.626,0.049-0.91,0.148c-0.283,0.098-0.541,0.24-0.773,0.424
		c-0.232,0.186-0.432,0.408-0.597,0.668s-0.292,0.557-0.378,0.887H265.536z"/>
	<path fill="#FFFFFF" d="M273.843,151.258v9.029h-2.658v-9.029h-1.135v-2.482h1.135v-4.219h2.658v4.219h2.068v2.482H273.843z"/>
	<path fill="#FFFFFF" d="M291.781,150.736l-2.199,1.17c-0.346-0.701-0.775-1.051-1.287-1.051c-0.244,0-0.453,0.08-0.627,0.242
		c-0.174,0.16-0.26,0.367-0.26,0.619c0,0.441,0.512,0.877,1.537,1.311c1.41,0.605,2.359,1.164,2.848,1.676s0.732,1.201,0.732,2.066
		c0,1.109-0.41,2.039-1.229,2.785c-0.797,0.709-1.758,1.062-2.885,1.062c-1.93,0-3.297-0.941-4.1-2.824l2.268-1.053
		c0.316,0.553,0.557,0.902,0.723,1.053c0.322,0.299,0.709,0.449,1.158,0.449c0.896,0,1.346-0.41,1.346-1.229
		c0-0.473-0.346-0.914-1.039-1.324c-0.268-0.135-0.537-0.264-0.805-0.391c-0.268-0.125-0.539-0.256-0.814-0.389
		c-0.773-0.379-1.316-0.758-1.631-1.135c-0.402-0.48-0.604-1.1-0.604-1.855c0-1.002,0.344-1.828,1.029-2.482
		c0.701-0.654,1.551-0.982,2.553-0.982C289.969,148.455,291.064,149.217,291.781,150.736z"/>
	<path fill="#FFFFFF" d="M305.348,155.158H297.1c0.07,0.945,0.377,1.697,0.922,2.256c0.543,0.553,1.24,0.828,2.092,0.828
		c0.662,0,1.209-0.158,1.643-0.473c0.426-0.314,0.91-0.898,1.453-1.75l2.246,1.254c-0.348,0.59-0.713,1.098-1.1,1.518
		c-0.387,0.422-0.799,0.77-1.24,1.041s-0.918,0.471-1.43,0.596c-0.514,0.127-1.068,0.189-1.668,0.189
		c-1.717,0-3.096-0.551-4.137-1.654c-1.039-1.111-1.559-2.584-1.559-4.42c0-1.82,0.504-3.293,1.512-4.42
		c1.018-1.111,2.363-1.668,4.043-1.668c1.693,0,3.033,0.541,4.018,1.621c0.977,1.07,1.467,2.557,1.467,4.455L305.348,155.158z
		 M302.619,152.982c-0.371-1.418-1.266-2.127-2.684-2.127c-0.324,0-0.627,0.049-0.91,0.148c-0.283,0.098-0.541,0.24-0.773,0.424
		c-0.232,0.186-0.432,0.408-0.598,0.668s-0.291,0.557-0.379,0.887H302.619z"/>
	<path fill="#FFFFFF" d="M316.67,140.324h2.67v19.963h-2.67v-1.205c-1.049,1.023-2.234,1.535-3.559,1.535
		c-1.576,0-2.883-0.574-3.924-1.725c-1.031-1.174-1.547-2.641-1.547-4.396c0-1.719,0.516-3.152,1.547-4.303
		c1.025-1.158,2.312-1.738,3.865-1.738c1.348,0,2.553,0.553,3.617,1.656V140.324z M310.357,154.496c0,1.104,0.297,2,0.887,2.693
		c0.607,0.703,1.371,1.053,2.293,1.053c0.984,0,1.781-0.338,2.389-1.016c0.605-0.701,0.91-1.592,0.91-2.672s-0.305-1.971-0.91-2.672
		c-0.607-0.686-1.396-1.027-2.365-1.027c-0.914,0-1.678,0.346-2.293,1.039C310.662,152.598,310.357,153.463,310.357,154.496z"/>
	<path fill="#FFFFFF" d="M331.135,148.775h2.672v11.512h-2.672v-1.205c-1.096,1.023-2.273,1.535-3.533,1.535
		c-1.592,0-2.908-0.574-3.947-1.725c-1.033-1.174-1.549-2.641-1.549-4.396c0-1.727,0.516-3.164,1.549-4.314
		c1.031-1.15,2.324-1.727,3.875-1.727c1.34,0,2.541,0.553,3.605,1.656V148.775z M324.824,154.496c0,1.104,0.295,2,0.885,2.693
		c0.607,0.703,1.371,1.053,2.293,1.053c0.986,0,1.781-0.338,2.389-1.016c0.605-0.701,0.91-1.592,0.91-2.672s-0.305-1.971-0.91-2.672
		c-0.607-0.686-1.395-1.027-2.363-1.027c-0.916,0-1.68,0.346-2.293,1.039C325.127,152.598,324.824,153.463,324.824,154.496z"/>
	<path fill="#FFFFFF" d="M337.113,148.775h2.672v1.062c0.93-0.922,1.979-1.383,3.145-1.383c1.338,0,2.383,0.422,3.131,1.266
		c0.646,0.717,0.969,1.887,0.969,3.51v7.057h-2.67v-6.422c0-1.133-0.158-1.916-0.473-2.35c-0.307-0.439-0.867-0.66-1.678-0.66
		c-0.883,0-1.51,0.291-1.881,0.873c-0.361,0.574-0.543,1.578-0.543,3.01v5.549h-2.672V148.775z"/>
</g>
<g>
	<path fill="#FFFFFF" d="M362.607,144.627h-3.156l1.514-2.588h4.396v18.248h-2.754V144.627z"/>
	<path fill="#FFFFFF" d="M374.295,160.914l-2.021-1.502l4.361-5.945c-0.236,0.031-0.438,0.057-0.604,0.072
		c-0.164,0.016-0.299,0.023-0.4,0.023c-1.475,0-2.75-0.564-3.83-1.691c-1.072-1.117-1.607-2.465-1.607-4.041
		c0-1.68,0.596-3.113,1.785-4.303c1.197-1.197,2.631-1.797,4.301-1.797c1.664,0,3.109,0.592,4.338,1.773
		c1.23,1.174,1.844,2.561,1.844,4.16c0,1.418-0.598,2.951-1.795,4.598L374.295,160.914z M372.877,147.629
		c0,0.984,0.334,1.812,1.004,2.482c0.678,0.678,1.494,1.016,2.447,1.016s1.764-0.334,2.434-1.004
		c0.678-0.678,1.018-1.494,1.018-2.447s-0.34-1.77-1.018-2.447c-0.67-0.668-1.484-1.004-2.445-1.004
		c-0.945,0-1.754,0.336-2.424,1.004C373.215,145.906,372.877,146.707,372.877,147.629z"/>
</g>
<g>
	<path fill="#FFFFFF" d="M395.258,144.627h-5.625l-0.898,3.014c0.133-0.016,0.262-0.027,0.383-0.035
		c0.123-0.008,0.234-0.012,0.338-0.012c1.773,0,3.227,0.598,4.361,1.797c1.143,1.189,1.713,2.713,1.713,4.572
		c0,1.924-0.646,3.508-1.938,4.752c-1.293,1.246-2.92,1.867-4.881,1.867c-2.42,0-4.326-1.135-5.721-3.404l2.08-1.76
		c0.574,0.977,1.154,1.666,1.736,2.068c0.584,0.393,1.297,0.59,2.141,0.59c1.102,0,2.027-0.385,2.777-1.158
		c0.748-0.795,1.123-1.76,1.123-2.895c0-1.166-0.371-2.121-1.111-2.861c-0.74-0.764-1.666-1.146-2.777-1.146
		c-1.238,0-2.305,0.541-3.203,1.619h-0.91l2.871-9.596h7.541V144.627z"/>
	<path fill="#FFFFFF" d="M407.049,144.627h-9.006v-2.588h13.604l-11.512,18.875l-2.186-1.383L407.049,144.627z"/>
</g>
<g>
	<path fill="#FFFFFF" d="M409.455,158.963c0-0.441,0.162-0.822,0.484-1.146c0.324-0.322,0.711-0.484,1.158-0.484
		c0.449,0,0.836,0.162,1.16,0.484c0.322,0.324,0.484,0.709,0.484,1.158c0,0.457-0.162,0.848-0.484,1.17
		c-0.316,0.316-0.703,0.473-1.16,0.473c-0.465,0-0.854-0.156-1.17-0.473C409.613,159.83,409.455,159.436,409.455,158.963z"/>
</g>
<path fill="none" d="M93.788,46.031l-0.891-0.446c-4.159,6.685-12.182,19.907-19.906,32.682c3.564,5.646,6.239,11.438,8.021,15.896
	C82.498,76.93,90.223,55.537,93.788,46.031z"/>
<path fill="#FFFFFF" d="M576.385,126.643H51.149c-2.199,1.811-4.453,3.303-6.764,4.391h531.999V126.643z"/>
<g>
	<path fill="#FFFFFF" d="M171.775,73.216c3.268,0,5.941-4.902,5.941-8.319c0-2.674-1.931-4.605-5.496-4.605
		c-2.822,0-6.238,4.902-6.238,8.172C165.982,70.988,168.21,73.216,171.775,73.216z"/>
	<path fill="#FFFFFF" d="M473.928,109.611c-0.596,0-1.041,0.447-1.783,1.191c-1.932,1.93-4.158,3.416-6.686,3.416
		c-3.418,0-6.09-3.416-6.09-11.143c4.01-4.16,7.725-10.845,7.725-16.045c0-3.119-1.932-5.793-6.24-5.793
		c-3.119,0-5.941,1.782-8.17,4.309c-2.08-2.973-4.754-5.051-10.25-5.051c-12.795,0-23.315,8.321-26.138,19.522
		c-4.64,6.865-10.449,13.159-16.796,13.159c-3.416,0-5.348-2.377-5.348-6.389c0-8.021,5.498-21.837,8.023-33.128h11.438
		c1.041,0,2.822-2.079,2.822-2.821c0-0.447-0.295-0.595-0.592-0.595h-12.777c0.447-2.823,0.742-5.942,0.742-8.616
		c0-2.972-6.09-7.131-9.061-7.131c-0.744,0-1.189,0.594-1.189,1.485c0,1.04,0.594,2.08,0.594,4.308c0,4.16-0.891,7.28-1.633,9.954
		h-4.902c-1.039,0-2.525,2.08-2.525,2.822c0,0.446,0.297,0.594,0.594,0.594h5.793c-2.766,8.406-8.261,16.733-11.165,24.714
		c-0.155,0.158-0.289,0.347-0.419,0.541c-4.754,7.279-10.695,13.965-15.746,13.965c-3.121,0-4.605-1.932-4.605-4.754
		c0-4.754,5.051-13.519,5.051-19.461c0-4.605-2.377-8.171-9.211-8.171c-7.873,0-17.084,9.062-21.393,15.746
		c0.447-2.079,1.039-5.94,1.039-9.21c0-3.564-5.197-8.467-8.764-8.467c-1.039,0-1.783,0.742-1.783,1.634s0.744,1.782,0.744,4.308
		c0,4.52-2.635,9.268-4.99,14.541c-4.752,7.244-11.852,15.172-21.303,15.172c-5.496,0-9.062-3.863-9.062-9.51
		c6.982-2.523,18.867-8.764,18.867-17.528c0-3.417-2.229-6.685-9.062-6.685c-12.549,0-23.294,9.36-25.343,21.179
		c-4.382,6.188-9.465,11.503-13.871,11.503c-2.229,0-4.605-1.486-4.605-4.754c0-7.279,5.794-14.41,5.794-20.797
		c0-4.012-2.08-7.132-8.468-7.132c-7.28,0-17.382,7.873-24.066,18.124c1.04-3.119,2.525-8.171,2.525-10.992
		c0-4.309-1.932-7.132-7.576-7.132c-9.062,0-18.718,8.913-23.62,17.827c0,0,1.931-5.943,1.931-10.846
		c0-4.158-5.051-8.912-8.913-8.912c-1.04,0-1.634,0.594-1.634,1.337c0,1.04,0.892,2.228,0.892,4.011
		c0,5.236-2.929,10.472-5.51,15.916c-4.693,6.963-10.905,13.646-16.03,13.646c-2.821,0-4.754-1.486-4.754-4.457
		c0-8.021,4.606-14.261,4.606-18.568c0-3.863-1.635-6.24-4.309-8.319c-0.742-0.595-2.525-1.634-3.269-1.634
		c-0.742,0-1.337,0.445-1.337,1.188c0,0.743,0.595,1.189,0.595,4.457c0,3.871-5.031,9.211-8.192,15.729
		c-4.546,5.899-10.354,10.417-15.724,10.417c-5.496,0-8.319-4.16-8.319-10.398c0-4.607,0.445-8.469,0.445-8.469
		c14.559-13.816,32.385-38.03,32.385-49.766c0-4.309-3.119-7.279-7.873-7.279c-6.833,0-16.044,5.793-25.402,21.688
		c-9.059,15.285-12.849,32.308-13.188,43.007c-4.45,6.39-9.597,11.811-14.143,11.811c-5.942,0-6.834-6.537-6.834-17.53
		c0-16.192,6.091-36.247,10.399-47.092c2.821-7.131,4.158-9.656,4.158-11.884c0-2.08-6.684-4.606-9.357-4.606
		c-2.526,0-3.566,0.743-5.2,3.12c-8.022,11.736-17.381,26.74-25.551,39.516c-6.239-8.318-15.153-15.301-26.89-15.301
		c-11.438,0-20.352,8.319-20.352,19.163c0,10.103,8.468,14.707,15.004,14.707c1.04,0,1.486-0.297,1.486-0.743
		c0-0.445-0.297-0.594-0.743-0.594c-3.862-0.297-7.576-4.011-7.576-9.062c0-8.912,7.873-11.734,14.855-11.734
		c8.615,0,15.599,3.119,21.242,8.318c-14.854,22.58-28.67,38.18-44.418,38.18c-6.833,0-10.25-3.715-10.25-9.807
		c0-4.9,4.457-8.17,7.429-8.467c0.742-0.146,1.04-0.297,1.04-0.742c0-0.297-0.298-0.594-1.04-0.594
		c-7.873,0-16.49,6.834-16.49,17.084c0,9.061,6.537,18.271,19.907,18.271c3.022,0,5.96-0.736,8.815-2.051
		c2.362-1.088,4.667-2.58,6.917-4.391c11.998-9.65,22.386-28.412,31.21-44.068c4.606,5.646,8.022,12.926,10.399,21.244
		c2.823,10.4,5.941,17.232,15.301,17.232c8.084,0,15.334-8.538,20.707-16.374c0.693,12.48,7.799,16.374,15.982,16.374
		c7.504,0,14.201-5.995,19.429-12.548c-0.171,0.993-0.266,2.007-0.266,3.04c0,5.199,3.715,9.508,12.182,9.508
		c7.441,0,14.558-6.61,19.988-13.535c-0.51,1.853-0.827,3.737-0.827,5.662c0,5.496,5.349,7.873,9.508,7.873
		c1.783,0,3.27-1.039,3.27-3.268c0-4.309,2.228-10.25,5.198-16.193c4.902-9.953,13.964-16.34,16.936-16.34
		c1.931,0,2.525,1.039,2.525,2.971c0,5.941-9.062,13.816-9.062,25.402c0,5.051,6.536,7.428,9.804,7.428
		c2.675,0,4.16-1.039,4.16-2.674c0-5.051,0.891-10.695,4.457-16.787c5.496-9.358,14.261-15.896,16.786-15.896
		c1.635,0,2.674,0.743,2.674,2.674c0,4.903-8.912,11.886-8.912,22.581c0,5.645,3.713,10.102,11.735,10.102
		c8.777,0,16.131-7.764,21.538-15.28c0.009,10.83,7.137,15.28,17.38,15.28c11.438,0,20.308-7.521,26.251-14.923
		c-0.604,2.201-0.999,4.492-0.999,6.901c0,6.389,4.457,8.021,7.428,8.021c3.27,0,6.092-1.039,6.092-3.268
		c0-5.199,1.932-13.221,4.16-17.381c4.455-8.32,12.924-15.152,16.637-15.152c2.379,0,3.268,1.484,3.268,3.268
		c0,4.604-9.506,12.924-9.506,22.58c0,5.943,4.158,9.953,11.438,9.953c9.116,0,17.046-8.849,22.593-16.798
		c-0.188,1.151-0.312,2.296-0.312,3.429c0,8.021,4.902,13.369,13.816,13.369c9.371,0,17.692-8.618,23.37-16.485
		c-0.029,0.49-0.048,0.983-0.048,1.481c0,10.695,6.684,15.004,15.152,15.004c7.875,0,13.668-6.686,16.342-10.398
		c1.188,5.793,5.199,10.398,12.182,10.398c6.834,0,10.398-4.01,14.111-8.318c1.041-1.189,1.338-1.783,1.338-2.377
		C474.67,109.91,474.373,109.611,473.928,109.611z M302.053,84.804c2.229,0,3.416,1.485,3.416,3.565
		c0,5.496-9.357,11.736-15.598,13.666C289.871,93.568,296.26,84.804,302.053,84.804z M141.175,64.006
		c6.685-13.668,12.775-19.609,15.598-19.609c1.486,0,2.377,1.337,2.377,2.674c0,8.469-16.638,30.752-27.78,41.893
		C131.369,88.963,134.639,77.375,141.175,64.006z M81.012,94.162c-1.781-4.457-4.456-10.25-8.021-15.896
		c7.725-12.774,15.747-25.997,19.906-32.682l0.891,0.446C90.223,55.537,82.498,76.93,81.012,94.162z M446.445,107.83
		c-2.973,4.01-6.24,7.428-9.658,7.428c-3.416,0-5.496-3.119-5.496-8.914c0-12.032,6.686-22.58,13.965-22.58
		c2.822,0,4.457,1.188,5.795,3.417C447.633,92.379,446.445,101.293,446.445,107.83z"/>
</g>
<g>
	<polygon fill="#FFFFFF" points="474.139,53.934 525.252,3.426 525.252,53.934 	"/>
	<g>
		<rect x="482.088" y="62.26" fill="#FFFFFF" width="15.611" height="15.612"/>
		<rect x="501.863" y="62.26" fill="#FFFFFF" width="15.611" height="15.612"/>
		<rect x="482.088" y="81.775" fill="#FFFFFF" width="15.611" height="15.611"/>
		<rect x="501.863" y="81.775" fill="#FFFFFF" width="15.611" height="15.611"/>
	</g>
	<path fill="#FFFFFF" d="M525.252,53.934v67.131h51.027V53.934H525.252z M548.684,97.387h-15.611V81.775h15.611V97.387z
		 M548.684,77.872h-15.611V62.26h15.611V77.872z M568.459,97.387h-15.611V81.775h15.611V97.387z M568.459,77.872h-15.611V62.26
		h15.611V77.872z"/>
</g>
<g>
	<path fill="#FFFFFF" d="M482.807,141.736v15.9h5.404v2.65h-8.268v-18.551H482.807z"/>
	<path fill="#FFFFFF" d="M501.488,148.574v11.713h-2.703v-1.219c-0.123,0.141-0.283,0.305-0.477,0.49
		c-0.195,0.186-0.438,0.357-0.729,0.516c-0.291,0.16-0.633,0.297-1.021,0.412c-0.389,0.113-0.83,0.172-1.324,0.172
		c-0.9,0-1.701-0.178-2.398-0.531c-0.697-0.352-1.289-0.82-1.775-1.404c-0.486-0.582-0.857-1.244-1.113-1.986
		s-0.385-1.512-0.385-2.307s0.125-1.562,0.371-2.305c0.248-0.742,0.615-1.4,1.1-1.975c0.486-0.574,1.082-1.033,1.789-1.379
		c0.707-0.344,1.52-0.516,2.439-0.516c0.211,0,0.463,0.018,0.754,0.053c0.293,0.035,0.598,0.111,0.914,0.225
		c0.318,0.115,0.637,0.287,0.955,0.518s0.617,0.529,0.9,0.9v-1.377H501.488z M495.658,150.693c-0.494,0-0.945,0.098-1.352,0.291
		c-0.406,0.195-0.75,0.465-1.033,0.809c-0.283,0.346-0.504,0.746-0.662,1.207c-0.16,0.459-0.238,0.953-0.238,1.482
		c0,0.496,0.074,0.969,0.225,1.418c0.15,0.451,0.361,0.848,0.637,1.193c0.273,0.344,0.613,0.619,1.02,0.82
		c0.406,0.205,0.875,0.305,1.404,0.305c1.043,0,1.852-0.357,2.426-1.072c0.572-0.715,0.861-1.611,0.861-2.689
		c0-0.637-0.094-1.188-0.279-1.656s-0.428-0.857-0.729-1.166s-0.648-0.543-1.047-0.703
		C496.494,150.773,496.082,150.693,495.658,150.693z"/>
	<path fill="#FFFFFF" d="M524.939,146.082c-0.494-0.477-0.984-0.852-1.471-1.125s-0.949-0.482-1.391-0.623s-0.848-0.23-1.219-0.266
		s-0.682-0.053-0.928-0.053c-1.008,0-1.922,0.178-2.744,0.529c-0.82,0.354-1.52,0.844-2.092,1.471
		c-0.576,0.629-1.021,1.375-1.34,2.24c-0.316,0.865-0.477,1.811-0.477,2.836c0,0.988,0.164,1.902,0.49,2.742
		s0.781,1.568,1.365,2.186c0.582,0.619,1.281,1.105,2.094,1.459s1.713,0.529,2.703,0.529c0.211,0,0.494-0.018,0.848-0.053
		s0.75-0.129,1.191-0.279c0.441-0.148,0.916-0.365,1.418-0.648c0.504-0.283,1.021-0.672,1.551-1.166v3.393
		c-0.141,0.088-0.357,0.211-0.648,0.371c-0.293,0.158-0.65,0.312-1.074,0.463s-0.918,0.283-1.484,0.398
		c-0.564,0.113-1.191,0.172-1.881,0.172c-0.406,0-0.861-0.027-1.365-0.08s-1.043-0.172-1.615-0.357
		c-0.574-0.186-1.166-0.445-1.775-0.781c-0.611-0.336-1.215-0.787-1.816-1.352c-0.9-0.865-1.621-1.869-2.16-3.008
		c-0.539-1.141-0.807-2.469-0.807-3.988c0-0.602,0.047-1.219,0.145-1.855s0.266-1.264,0.504-1.881
		c0.238-0.619,0.543-1.229,0.914-1.83c0.371-0.6,0.84-1.166,1.404-1.695c0.971-0.936,2.014-1.58,3.127-1.934
		s2.307-0.531,3.578-0.531c1.201,0,2.186,0.133,2.955,0.398c0.768,0.264,1.434,0.592,2,0.98V146.082z"/>
	<path fill="#FFFFFF" d="M539.012,148.574v11.713h-2.703v-1.219c-0.125,0.141-0.283,0.305-0.479,0.49
		c-0.193,0.186-0.436,0.357-0.729,0.516c-0.291,0.16-0.631,0.297-1.02,0.412c-0.389,0.113-0.83,0.172-1.324,0.172
		c-0.902,0-1.701-0.178-2.398-0.531c-0.699-0.352-1.291-0.82-1.775-1.404c-0.486-0.582-0.857-1.244-1.113-1.986
		c-0.258-0.742-0.385-1.512-0.385-2.307s0.123-1.562,0.371-2.305c0.246-0.742,0.613-1.4,1.1-1.975s1.082-1.033,1.789-1.379
		c0.707-0.344,1.52-0.516,2.438-0.516c0.213,0,0.465,0.018,0.756,0.053s0.596,0.111,0.914,0.225
		c0.318,0.115,0.637,0.287,0.953,0.518c0.318,0.23,0.619,0.529,0.902,0.9v-1.377H539.012z M533.182,150.693
		c-0.496,0-0.945,0.098-1.352,0.291c-0.408,0.195-0.752,0.465-1.035,0.809c-0.281,0.346-0.502,0.746-0.662,1.207
		c-0.158,0.459-0.238,0.953-0.238,1.482c0,0.496,0.076,0.969,0.227,1.418c0.148,0.451,0.361,0.848,0.635,1.193
		c0.273,0.344,0.613,0.619,1.021,0.82c0.404,0.205,0.873,0.305,1.404,0.305c1.041,0,1.85-0.357,2.424-1.072s0.861-1.611,0.861-2.689
		c0-0.637-0.092-1.188-0.277-1.656s-0.43-0.857-0.73-1.166c-0.299-0.309-0.648-0.543-1.045-0.703
		C534.016,150.773,533.605,150.693,533.182,150.693z"/>
	<path fill="#FFFFFF" d="M546.748,151.754c-0.088-0.283-0.242-0.531-0.463-0.742c-0.221-0.213-0.5-0.318-0.836-0.318
		c-0.018,0-0.074,0.004-0.172,0.014s-0.199,0.035-0.305,0.08c-0.105,0.043-0.203,0.119-0.291,0.225s-0.133,0.256-0.133,0.451
		c0,0.336,0.133,0.592,0.398,0.768c0.264,0.178,0.652,0.389,1.166,0.637c0.299,0.141,0.662,0.312,1.086,0.516
		s0.803,0.43,1.139,0.676c0.602,0.441,0.984,0.889,1.154,1.338c0.166,0.451,0.25,0.881,0.25,1.287c0,0.67-0.131,1.254-0.396,1.748
		s-0.602,0.91-1.008,1.246s-0.865,0.582-1.377,0.742c-0.514,0.158-1.008,0.238-1.484,0.238c-0.406,0-0.812-0.059-1.219-0.172
		c-0.406-0.115-0.791-0.293-1.152-0.531c-0.363-0.238-0.689-0.543-0.98-0.914c-0.293-0.371-0.527-0.803-0.703-1.299l2.279-1.033
		c0.035,0.123,0.098,0.273,0.186,0.451c0.088,0.176,0.207,0.344,0.357,0.504c0.15,0.158,0.34,0.291,0.57,0.396
		c0.229,0.105,0.504,0.158,0.82,0.158c0.424,0,0.746-0.113,0.969-0.344c0.221-0.229,0.33-0.539,0.33-0.928
		c0-0.336-0.088-0.609-0.264-0.82c-0.178-0.213-0.496-0.434-0.955-0.664c-0.406-0.193-0.812-0.379-1.219-0.557
		c-0.406-0.176-0.777-0.371-1.113-0.582c-0.459-0.301-0.805-0.637-1.033-1.008c-0.23-0.371-0.344-0.891-0.344-1.562
		c0-0.459,0.074-0.9,0.225-1.326c0.15-0.424,0.375-0.795,0.676-1.111c0.301-0.318,0.68-0.574,1.139-0.77
		c0.459-0.193,0.998-0.291,1.617-0.291c0.158,0,0.379,0.018,0.662,0.053s0.584,0.129,0.9,0.277c0.318,0.15,0.637,0.381,0.955,0.689
		c0.318,0.311,0.592,0.738,0.822,1.285L546.748,151.754z"/>
	<path fill="#FFFFFF" d="M551.545,143.75c0-0.477,0.172-0.887,0.518-1.232c0.344-0.344,0.754-0.516,1.23-0.516
		c0.479,0,0.889,0.172,1.232,0.516c0.346,0.346,0.518,0.756,0.518,1.232c0,0.479-0.172,0.889-0.518,1.232
		c-0.344,0.346-0.754,0.518-1.232,0.518c-0.477,0-0.887-0.172-1.23-0.518C551.717,144.639,551.545,144.229,551.545,143.75z
		 M554.645,148.574v11.713h-2.703v-11.713H554.645z"/>
	<path fill="#FFFFFF" d="M560.66,151.012v9.275h-2.703v-9.275h-1.166v-2.438h1.166v-4.188h2.703v4.188h2.068v2.438H560.66z"/>
	<path fill="#FFFFFF" d="M575.688,148.574v11.713h-2.703v-1.219c-0.125,0.141-0.283,0.305-0.479,0.49
		c-0.193,0.186-0.436,0.357-0.729,0.516c-0.291,0.16-0.631,0.297-1.02,0.412c-0.389,0.113-0.83,0.172-1.324,0.172
		c-0.902,0-1.701-0.178-2.398-0.531c-0.699-0.352-1.291-0.82-1.775-1.404c-0.486-0.582-0.857-1.244-1.113-1.986
		c-0.258-0.742-0.385-1.512-0.385-2.307s0.123-1.562,0.371-2.305c0.246-0.742,0.613-1.4,1.1-1.975s1.082-1.033,1.789-1.379
		c0.707-0.344,1.52-0.516,2.438-0.516c0.213,0,0.465,0.018,0.756,0.053s0.596,0.111,0.914,0.225
		c0.318,0.115,0.637,0.287,0.953,0.518c0.318,0.23,0.619,0.529,0.902,0.9v-1.377H575.688z M569.857,150.693
		c-0.496,0-0.945,0.098-1.352,0.291c-0.408,0.195-0.752,0.465-1.035,0.809c-0.281,0.346-0.502,0.746-0.662,1.207
		c-0.158,0.459-0.238,0.953-0.238,1.482c0,0.496,0.076,0.969,0.227,1.418c0.148,0.451,0.361,0.848,0.635,1.193
		c0.273,0.344,0.613,0.619,1.021,0.82c0.404,0.205,0.873,0.305,1.404,0.305c1.041,0,1.85-0.357,2.424-1.072s0.861-1.611,0.861-2.689
		c0-0.637-0.092-1.188-0.277-1.656s-0.43-0.857-0.73-1.166c-0.299-0.309-0.648-0.543-1.045-0.703
		C570.691,150.773,570.281,150.693,569.857,150.693z"/>
</g>
</svg>
