<?xml version="1.0" encoding="utf-8"?>
<!-- Generator: Adobe Illustrator 15.0.0, SVG Export Plug-In . SVG Version: 6.00 Build 0)  -->
<!DOCTYPE svg PUBLIC "-//W3C//DTD SVG 1.1//EN" "http://www.w3.org/Graphics/SVG/1.1/DTD/svg11.dtd">
<svg version="1.1" id="Layer_1" xmlns="http://www.w3.org/2000/svg" xmlns:xlink="http://www.w3.org/1999/xlink" x="0px" y="0px"
	 width="36px" height="36px" viewBox="0 0 36 36" enable-background="new 0 0 36 36" xml:space="preserve">
<g>
	<path fill="#FFFFFF" d="M0.143,30.857V16.571c0-0.387,0.142-0.722,0.424-1.004c0.283-0.283,0.617-0.424,1.005-0.424H8
		c0.387,0,0.722,0.142,1.004,0.424c0.283,0.283,0.425,0.618,0.425,1.004v14.286c0,0.387-0.142,0.721-0.425,1.004
		C8.722,32.145,8.387,32.285,8,32.285H1.572c-0.388,0-0.722-0.141-1.005-0.424C0.285,31.578,0.143,31.244,0.143,30.857z M3,28
		c0,0.402,0.137,0.74,0.413,1.016c0.274,0.275,0.613,0.413,1.016,0.413c0.387,0,0.722-0.138,1.004-0.413S5.857,28.402,5.857,28
		c0-0.387-0.142-0.722-0.424-1.004c-0.282-0.283-0.617-0.425-1.004-0.425c-0.402,0-0.741,0.142-1.016,0.425
		C3.137,27.278,3,27.613,3,28z M10.857,30.857V16.549c0-0.372,0.135-0.695,0.402-0.971s0.588-0.428,0.96-0.458
		c0.356-0.03,0.922-0.469,1.696-1.317c0.773-0.849,1.525-1.749,2.254-2.701c1.013-1.294,1.764-2.188,2.255-2.679
		c0.268-0.268,0.498-0.625,0.693-1.071c0.191-0.446,0.322-0.807,0.391-1.083c0.066-0.275,0.166-0.726,0.301-1.351
		c0.104-0.58,0.197-1.034,0.279-1.361c0.08-0.327,0.227-0.714,0.436-1.161c0.207-0.447,0.461-0.818,0.758-1.116
		c0.283-0.283,0.617-0.424,1.004-0.424c0.686,0,1.299,0.078,1.842,0.234s0.99,0.35,1.34,0.581c0.35,0.231,0.646,0.532,0.893,0.904
		c0.246,0.372,0.424,0.707,0.535,1.004c0.113,0.298,0.201,0.67,0.27,1.116c0.066,0.446,0.104,0.781,0.111,1.004
		c0.006,0.223,0.01,0.514,0.01,0.871c0,0.566-0.07,1.131-0.211,1.696c-0.143,0.566-0.283,1.012-0.424,1.339
		c-0.143,0.328-0.346,0.745-0.615,1.25c-0.043,0.089-0.119,0.223-0.223,0.402s-0.186,0.343-0.246,0.491
		c-0.059,0.149-0.119,0.328-0.178,0.536h6.184c1.16,0,2.164,0.424,3.014,1.272c0.848,0.848,1.271,1.853,1.271,3.013
		c0,1.28-0.41,2.389-1.229,3.326c0.225,0.655,0.336,1.22,0.336,1.696c0.045,1.131-0.275,2.15-0.961,3.059
		c0.254,0.833,0.254,1.703,0,2.611c-0.223,0.848-0.625,1.547-1.205,2.098c0.135,1.667-0.23,3.014-1.094,4.041
		c-0.951,1.131-2.418,1.711-4.396,1.74h-0.805h-1.695H24.43c-0.982,0-2.055-0.115-3.215-0.346s-2.064-0.447-2.712-0.646
		c-0.647-0.201-1.544-0.496-2.689-0.883c-1.831-0.641-3.006-0.967-3.527-0.982c-0.387-0.014-0.722-0.16-1.004-0.436
		C10.999,31.574,10.857,31.244,10.857,30.857z"/>
</g>
</svg>
