<?xml version="1.0" encoding="utf-8"?>
<!-- Generator: Adobe Illustrator 15.1.0, SVG Export Plug-In . SVG Version: 6.00 Build 0)  -->
<!DOCTYPE svg PUBLIC "-//W3C//DTD SVG 1.1//EN" "http://www.w3.org/Graphics/SVG/1.1/DTD/svg11.dtd">
<svg version="1.1" id="Layer_1" xmlns="http://www.w3.org/2000/svg" xmlns:xlink="http://www.w3.org/1999/xlink" x="0px" y="0px"
	 width="20px" height="20px" viewBox="0 0 20 20" enable-background="new 0 0 20 20" xml:space="preserve">
<g>
	<path fill="#FFFFFF" d="M17.425,14.072c0,0.151-0.134,0.285-0.286,0.285H15.14v1.428c0,0.474-0.384,0.857-0.856,0.857h-8.57
		c-0.473,0-0.857-0.384-0.857-0.857v-1.428h-2c-0.152,0-0.286-0.134-0.286-0.285v-3.714c0-0.938,0.776-1.714,1.714-1.714h0.571
		V3.789c0-0.473,0.384-0.857,0.857-0.857h5.999c0.474,0,1.124,0.268,1.464,0.607l1.357,1.357c0.339,0.339,0.606,0.991,0.606,1.464
		v2.285h0.571c0.938,0,1.714,0.776,1.714,1.714V14.072z M13.997,9.787V6.359h-1.429c-0.473,0-0.856-0.384-0.856-0.857V4.074H5.999
		v5.713H13.997z M13.997,15.5v-2.285H5.999V15.5H13.997z M15.711,9.787c-0.312,0-0.571,0.259-0.571,0.571s0.259,0.571,0.571,0.571
		s0.571-0.259,0.571-0.571S16.023,9.787,15.711,9.787z"/>
</g>
</svg>
