<?xml version="1.0" encoding="utf-8"?>
<!-- Generator: Adobe Illustrator 15.1.0, SVG Export Plug-In . SVG Version: 6.00 Build 0)  -->
<!DOCTYPE svg PUBLIC "-//W3C//DTD SVG 1.1//EN" "http://www.w3.org/Graphics/SVG/1.1/DTD/svg11.dtd">
<svg version="1.1" id="Layer_1" xmlns="http://www.w3.org/2000/svg" xmlns:xlink="http://www.w3.org/1999/xlink" x="0px" y="0px"
	 width="30px" height="36px" viewBox="0 0 30 36" enable-background="new 0 0 30 36" xml:space="preserve">
<g>
	<defs>
		<path id="SVGID_1_" d="M17.777,29.25H2.222v-27h15.556V29.25z M10,33.75c-0.622,0-1.111-0.495-1.111-1.125S9.378,31.5,10,31.5
			s1.111,0.495,1.111,1.125S10.622,33.75,10,33.75z M15.556,0H4.444C2.222,0,0,2.25,0,4.5v27C0,33.75,2.222,36,4.444,36h11.111
			C17.777,36,20,33.75,20,31.5v-27C20,2.25,17.777,0,15.556,0z"/>
	</defs>
	<clipPath id="SVGID_2_">
		<use xlink:href="#SVGID_1_"  overflow="visible"/>
	</clipPath>
	<rect x="-5" y="-5" clip-path="url(#SVGID_2_)" fill-rule="evenodd" clip-rule="evenodd" width="30" height="46"/>
</g>
</svg>
